<svg height="512pt" viewBox="0 -7 512 511" width="512pt" xmlns="http://www.w3.org/2000/svg"><path d="m28.253906 394.855469c-12.363281 7.152343-20.6875 20.511719-20.6875 35.824219 0 .546874.011719 1.089843.03125 1.628906 1.011719 26.007812 40.300782 26.007812 41.308594 0 .023438-.539063.03125-1.082032.03125-1.628906.003906-15.3125-8.320312-28.671876-20.683594-35.824219zm0 0" fill="#84abc1"/><path d="m28.253906 451.816406c-10.070312 0-20.140625-6.507812-20.644531-19.507812-.019531-.542969-.042969-1.089844-.042969-1.632813 0-15.308593 8.328125-28.667969 20.6875-35.824219-2.492187 7.15625-4.167968 20.515626-4.167968 35.824219 0 .542969 0 1.089844.011718 1.632813.101563 13 2.128906 19.507812 4.15625 19.507812zm0 0" fill="#4d87a1"/><path d="m118.929688 433.535156c-12.363282 7.15625-20.6875 20.511719-20.6875 35.824219 0 .546875.011718 1.089844.03125 1.632813 1.011718 26.003906 40.296874 26.003906 41.308593 0 .019531-.542969.03125-1.085938.03125-1.632813 0-15.3125-8.324219-28.667969-20.683593-35.824219zm0 0" fill="#84abc1"/><path d="m118.929688 490.496094c-10.070313 0-20.144532-6.507813-20.648438-19.503906-.019531-.546876-.039062-1.089844-.039062-1.636719 0-15.304688 8.324218-28.667969 20.6875-35.820313-2.492188 7.152344-4.167969 20.515625-4.167969 35.820313 0 .546875 0 1.089843.007812 1.636719.101563 12.996093 2.128907 19.503906 4.160157 19.503906zm0 0" fill="#4d87a1"/><path d="m118.929688 327.367188c-12.363282 7.15625-20.6875 20.511718-20.6875 35.824218 0 .546875.011718 1.089844.03125 1.632813 1.011718 26.007812 40.296874 26.007812 41.308593 0 .019531-.542969.03125-1.085938.03125-1.632813 0-15.3125-8.324219-28.667968-20.683593-35.824218zm0 0" fill="#84abc1"/><path d="m118.929688 384.328125c-10.070313 0-20.144532-6.507813-20.648438-19.503906-.019531-.542969-.039062-1.089844-.039062-1.632813 0-15.308594 8.324218-28.667968 20.6875-35.824218-2.492188 7.15625-4.167969 20.515624-4.167969 35.824218 0 .542969 0 1.089844.007812 1.632813.101563 12.996093 2.128907 19.503906 4.160157 19.503906zm0 0" fill="#4d87a1"/><path d="m209.601562 394.855469c-12.363281 7.152343-20.6875 20.511719-20.6875 35.824219 0 .546874.011719 1.089843.03125 1.628906 1.011719 26.007812 40.300782 26.007812 41.308594 0 .023438-.539063.03125-1.082032.03125-1.628906.003906-15.3125-8.320312-28.671876-20.683594-35.824219zm0 0" fill="#84abc1"/><path d="m209.601562 451.816406c-10.070312 0-20.140624-6.507812-20.644531-19.507812-.023437-.542969-.042969-1.089844-.042969-1.632813 0-15.308593 8.324219-28.667969 20.6875-35.824219-2.492187 7.15625-4.167968 20.515626-4.167968 35.824219 0 .542969 0 1.089844.011718 1.632813.097657 13 2.128907 19.507812 4.15625 19.507812zm0 0" fill="#4d87a1"/><path d="m300.273438 433.535156c-12.359376 7.15625-20.683594 20.511719-20.683594 35.824219 0 .546875.007812 1.089844.03125 1.632813 1.007812 26.003906 40.296875 26.003906 41.308594 0 .019531-.542969.03125-1.085938.03125-1.632813 0-15.3125-8.324219-28.667969-20.6875-35.824219zm0 0" fill="#84abc1"/><path d="m300.273438 490.496094c-10.070313 0-20.140626-6.507813-20.644532-19.503906-.019531-.546876-.039062-1.089844-.039062-1.636719 0-15.304688 8.324218-28.667969 20.683594-35.820313-2.492188 7.152344-4.167969 20.515625-4.167969 35.820313 0 .546875 0 1.089843.011719 1.636719.101562 12.996093 2.128906 19.503906 4.15625 19.503906zm0 0" fill="#4d87a1"/><path d="m482.144531 433.535156c-12.363281 7.15625-20.683593 20.511719-20.683593 35.824219 0 .546875.007812 1.089844.03125 1.632813 1.007812 26.003906 40.296874 26.003906 41.308593 0 .019531-.542969.03125-1.085938.03125-1.632813 0-15.3125-8.324219-28.667969-20.6875-35.824219zm0 0" fill="#84abc1"/><path d="m482.144531 490.496094c-10.070312 0-20.140625-6.507813-20.644531-19.503906-.019531-.546876-.039062-1.089844-.039062-1.636719 0-15.304688 8.324218-28.667969 20.683593-35.820313-2.492187 7.152344-4.167969 20.515625-4.167969 35.820313 0 .546875 0 1.089843.011719 1.636719.101563 12.996093 2.128907 19.503906 4.15625 19.503906zm0 0" fill="#4d87a1"/><path d="m390.949219 394.855469c-12.363281 7.152343-20.6875 20.511719-20.6875 35.824219 0 .546874.011719 1.089843.03125 1.628906 1.011719 26.007812 40.296875 26.007812 41.308593 0 .019532-.539063.03125-1.082032.03125-1.628906 0-15.3125-8.320312-28.671876-20.683593-35.824219zm0 0" fill="#84abc1"/><path d="m390.949219 451.816406c-10.070313 0-20.144531-6.507812-20.648438-19.507812-.019531-.542969-.039062-1.089844-.039062-1.632813 0-15.308593 8.324219-28.667969 20.6875-35.824219-2.492188 7.15625-4.167969 20.515626-4.167969 35.824219 0 .542969 0 1.089844.007812 1.632813.101563 13 2.128907 19.507812 4.160157 19.507812zm0 0" fill="#4d87a1"/><path d="m403.746094 184.277344c0 36.707031-29.757813 66.464844-66.476563 66.464844h-240.558593c-48.8125 0-88.390626-39.566407-88.390626-88.386719 0-48.8125 39.578126-88.390625 88.390626-88.390625 4.378906 0 8.683593.339844 12.898437.949218 19.964844-39.640624 61.015625-66.839843 108.441406-66.839843 57.382813 0 105.457031 39.839843 118.082031 93.367187 1.261719 5.339844 2.171876 10.816406 2.695313 16.394532v.011718c35.984375.824219 64.917969 30.246094 64.917969 66.429688zm0 0" fill="#84abc1"/><path d="m260.222656 15.613281c-13.136718-4.878906-27.351562-7.535156-42.171875-7.535156-47.425781 0-88.464843 27.199219-108.441406 66.828125v.011719c-4.214844-.613281-8.519531-.949219-12.898437-.949219-48.824219 0-88.390626 39.578125-88.390626 88.386719 0 48.824219 39.566407 88.390625 88.390626 88.390625h42.71875c-43.992188 0-79.640626-35.660156-79.640626-79.640625 0-39.03125 28.074219-71.507813 65.144532-78.320313 3.667968-.6875 7.421875-1.109375 11.253906-1.261718 1.074219-.035157 2.160156-.0625 3.242188-.0625 14.300781 0 27.726562 3.769531 39.316406 10.382812-1.609375-11.222656-13.207032-21.730469-30.3125-30.203125 9.390625-31.757813 41.351562-61.214844 111.789062-56.027344zm0 0" fill="#4d87a1"/><path d="m264.429688 246.367188c.484374.082031.765624.082031.8125.082031h-3.683594c.964844 0 1.917968-.03125 2.871094-.082031zm0 0" fill="#97b0cc"/><path d="m504.433594 312.421875c0 29.6875-24.066406 53.753906-53.765625 53.753906h-194.550781c-39.476563 0-71.484376-31.996093-71.484376-71.484375 0-39.472656 32.007813-71.480468 71.484376-71.480468 3.542968 0 7.023437.269531 10.433593.765624 16.144531-32.058593 49.34375-54.054687 87.699219-54.054687 46.40625 0 85.289062 32.21875 95.5 75.507813 1.019531 4.320312 1.753906 8.75 2.179688 13.257812v.011719c29.101562.667969 52.503906 24.460937 52.503906 53.722656zm0 0" fill="#d3ddea"/><path d="m388.355469 176.019531c-10.625-3.945312-22.117188-6.097656-34.105469-6.097656-38.355469 0-71.542969 22-87.699219 54.046875v.011719c-3.410156-.496094-6.890625-.765625-10.433593-.765625-39.484376 0-71.484376 32.007812-71.484376 71.480468 0 39.484376 32 71.484376 71.484376 71.484376h34.550781c-35.582031 0-64.410157-28.839844-64.410157-64.410157 0-31.5625 22.703126-57.828125 52.683594-63.339843 2.96875-.554688 6.003906-.898438 9.101563-1.019532.867187-.03125 1.746093-.050781 2.625-.050781 11.5625 0 22.421875 3.046875 31.796875 8.394531-1.304688-9.074218-10.683594-17.574218-24.515625-24.425781 7.59375-25.683594 33.441406-49.503906 90.40625-45.308594zm0 0" fill="#97b0cc"/><path d="m32.046875 388.304688c-2.347656-1.359376-5.238281-1.359376-7.582031 0-15.089844 8.730468-24.464844 24.96875-24.464844 42.375 0 .644531.0117188 1.285156.0390625 1.925781.6796875 17.578125 14.7109375 26.777343 28.2148435 26.777343s27.535156-9.199218 28.21875-26.777343c.023438-.640625.035156-1.28125.035156-1.925781 0-17.40625-9.375-33.644532-24.460937-42.375zm9.300781 43.710937c-.351562 9.027344-7.273437 12.230469-13.09375 12.230469-5.820312 0-12.742187-3.203125-13.089844-12.230469-.019531-.445313-.027343-.890625-.027343-1.335937 0-10.492188 4.933593-20.367188 13.117187-26.722657 8.183594 6.355469 13.117188 16.234375 13.117188 26.722657 0 .445312-.007813.890624-.023438 1.335937zm0 0"/><path d="m122.71875 426.984375c-2.34375-1.355469-5.234375-1.355469-7.582031 0-15.089844 8.734375-24.460938 24.96875-24.460938 42.375 0 .644531.011719 1.289063.035157 1.925781.683593 17.582032 14.710937 26.777344 28.21875 26.777344 13.503906 0 27.53125-9.195312 28.214843-26.773438.023438-.640624.039063-1.285156.039063-1.929687 0-17.40625-9.375-33.640625-24.464844-42.375zm9.300781 43.714844c-.351562 9.027343-7.273437 12.230469-13.089843 12.230469-5.820313 0-12.742188-3.203126-13.09375-12.234376-.019532-.445312-.027344-.886718-.027344-1.335937 0-10.488281 4.933594-20.363281 13.121094-26.722656 8.183593 6.359375 13.117187 16.234375 13.117187 26.722656 0 .449219-.011719.890625-.027344 1.339844zm0 0"/><path d="m122.71875 320.816406c-2.34375-1.355468-5.238281-1.355468-7.582031 0-15.089844 8.734375-24.464844 24.96875-24.464844 42.375 0 .644532.011719 1.289063.039063 1.925782.679687 17.582031 14.710937 26.78125 28.214843 26.78125 13.503907 0 27.535157-9.199219 28.21875-26.777344.023438-.640625.035157-1.285156.035157-1.929688.003906-17.40625-9.371094-33.640625-24.460938-42.375zm9.300781 43.714844c-.351562 9.027344-7.273437 12.230469-13.089843 12.230469-5.820313 0-12.742188-3.203125-13.09375-12.234375-.019532-.441406-.027344-.890625-.027344-1.335938 0-10.492187 4.933594-20.367187 13.121094-26.722656 8.183593 6.355469 13.117187 16.230469 13.117187 26.722656 0 .449219-.011719.894532-.027344 1.339844zm0 0"/><path d="m213.390625 388.304688c-2.34375-1.359376-5.234375-1.359376-7.582031 0-15.089844 8.730468-24.460938 24.96875-24.460938 42.375 0 .644531.011719 1.285156.035156 1.925781.683594 17.578125 14.710938 26.777343 28.21875 26.777343 13.503907 0 27.535157-9.199218 28.214844-26.785156.027344-.636718.039063-1.277344.039063-1.917968 0-17.40625-9.375-33.644532-24.464844-42.375zm9.304687 43.710937c-.351562 9.027344-7.273437 12.230469-13.09375 12.230469-5.820312 0-12.742187-3.203125-13.09375-12.230469-.015624-.445313-.023437-.890625-.023437-1.335937 0-10.492188 4.933594-20.367188 13.117187-26.722657 8.183594 6.355469 13.117188 16.234375 13.117188 26.722657 0 .449218-.007812.894531-.023438 1.335937zm0 0"/><path d="m304.066406 426.984375c-2.34375-1.355469-5.238281-1.355469-7.582031 0-15.089844 8.734375-24.464844 24.96875-24.464844 42.375 0 .644531.015625 1.28125.039063 1.925781.683594 17.582032 14.710937 26.777344 28.214844 26.777344 13.507812 0 27.535156-9.195312 28.21875-26.773438.023437-.640624.035156-1.285156.035156-1.929687 0-17.40625-9.371094-33.640625-24.460938-42.375zm9.300782 43.714844c-.351563 9.027343-7.273438 12.230469-13.09375 12.230469-5.820313 0-12.738282-3.203126-13.089844-12.226563-.019532-.445313-.027344-.894531-.027344-1.34375 0-10.488281 4.933594-20.363281 13.117188-26.722656 8.183593 6.359375 13.117187 16.234375 13.117187 26.722656.003906.449219-.007813.890625-.023437 1.339844zm0 0"/><path d="m485.9375 426.984375c-2.347656-1.355469-5.238281-1.355469-7.582031 0-15.089844 8.734375-24.464844 24.96875-24.464844 42.375 0 .644531.011719 1.289063.039063 1.925781.683593 17.582032 14.710937 26.777344 28.214843 26.777344 13.507813 0 27.535157-9.195312 28.21875-26.773438.023438-.640624.035157-1.285156.035157-1.929687 0-17.40625-9.371094-33.640625-24.460938-42.375zm9.300781 43.714844c-.351562 9.027343-7.273437 12.230469-13.09375 12.230469-5.820312 0-12.738281-3.203126-13.089843-12.234376-.019532-.445312-.027344-.886718-.027344-1.335937 0-10.488281 4.933594-20.363281 13.117187-26.722656 8.183594 6.359375 13.117188 16.234375 13.117188 26.722656 0 .449219-.007813.890625-.023438 1.339844zm0 0"/><path d="m394.738281 388.304688c-2.34375-1.359376-5.234375-1.359376-7.582031 0-15.089844 8.730468-24.460938 24.96875-24.460938 42.375 0 .644531.011719 1.285156.035157 1.925781.683593 17.578125 14.710937 26.777343 28.21875 26.777343 13.503906 0 27.535156-9.199218 28.214843-26.777343.027344-.640625.039063-1.28125.039063-1.925781 0-17.40625-9.375-33.644532-24.464844-42.375zm9.300781 43.710937c-.351562 9.027344-7.269531 12.230469-13.089843 12.230469-5.820313 0-12.742188-3.203125-13.09375-12.230469-.015625-.445313-.023438-.890625-.023438-1.335937 0-10.492188 4.933594-20.367188 13.117188-26.722657 8.183593 6.355469 13.117187 16.234375 13.117187 26.722657 0 .445312-.007812.890624-.027344 1.335937zm0 0"/><path d="m512 312.421875c0-16.125-6.214844-31.355469-17.5-42.878906-9.710938-9.921875-22.25-16.152344-35.828125-17.914063-.417969-2.664062-.9375-5.316406-1.554687-7.9375-5.375-22.78125-18.449219-43.433594-36.808594-58.15625-2.945313-2.359375-6.023438-4.53125-9.191406-6.550781-1.242188-17.667969-8.703126-34.164063-21.277344-46.835937-11.996094-12.085938-27.511719-19.558594-44.246094-21.425782-.535156-3.707031-1.238281-7.394531-2.09375-11.019531-6.554688-27.78125-22.496094-52.96875-44.886719-70.925781-22.746093-18.234375-51.355469-28.277344-80.5625-28.277344-47.21875 0-89.921875 25.265625-112.703125 66.292969-2.921875-.265625-5.8125-.398438-8.640625-.398438-12.949219 0-25.515625 2.539063-37.347656 7.542969-3.851563 1.628906-5.652344 6.070312-4.023437 9.917969 1.628906 3.847656 6.070312 5.652343 9.917968 4.023437 9.957032-4.214844 20.542969-6.351562 31.453125-6.351562 3.824219 0 7.800781.296875 11.832031.875 3.214844.460937 6.371094-1.183594 7.835938-4.089844 19.464844-38.660156 58.425781-62.675781 101.675781-62.675781 26.152344 0 50.734375 8.628906 71.09375 24.949219 19.769531 15.851562 33.839844 38.082031 39.625 62.59375 1.179688 4.996093 2.023438 10.121093 2.511719 15.242187.289062 3.84375 3.453125 6.898437 7.371094 6.988281 27.3125.628906 49.78125 19.503906 55.878906 44.953125-12.707031-5.234375-26.40625-8.011719-40.28125-8.011719-38.398438 0-73.164062 20.378907-91.953125 53.535157-2.078125-.164063-4.140625-.246094-6.179687-.246094-23.917969 0-45.375 10.691406-59.882813 27.53125h-99.523437c-44.566407 0-80.820313-36.253906-80.820313-80.816406 0-22.507813 9.027344-43.40625 25.417969-58.847657 3.042968-2.863281 3.1875-7.65625.320312-10.695312-2.863281-3.042969-7.65625-3.1875-10.699218-.320312-19.175782 18.066406-30.171876 43.53125-30.171876 69.867187 0 52.90625 43.042969 95.953125 95.953126 95.953125h89.261718c-5.675781 10.898438-8.90625 23.265625-8.90625 36.378906 0 43.589844 35.460938 79.054688 79.050782 79.054688h111.5c4.179687 0 7.566406-3.390625 7.566406-7.570313 0-4.179687-3.386719-7.566406-7.566406-7.566406h-111.5c-35.242188 0-63.914063-28.675781-63.914063-63.917969 0-35.242187 28.671875-63.914062 63.914063-63.914062 3.050781 0 6.195312.230468 9.347656.691406 3.21875.464844 6.382812-1.179688 7.84375-4.085938 15.5-30.777343 46.515625-49.894531 80.941406-49.894531 20.816406 0 40.386719 6.867188 56.589844 19.859375 15.738281 12.617188 26.941406 30.308594 31.542968 49.820313.941407 3.984375 1.613282 8.058593 2 12.105469.289063 3.847656 3.453126 6.902343 7.375 6.992187 12.105469.277344 23.445313 5.203125 31.929688 13.867187 8.496094 8.679688 13.175781 20.144532 13.175781 32.289063 0 25.46875-20.722656 46.1875-46.195312 46.1875h-52.777344c-4.179687 0-7.566406 3.386719-7.566406 7.566406 0 4.179688 3.386719 7.570313 7.566406 7.570313h52.777344c33.820312 0 61.332031-27.511719 61.332031-61.324219zm0 0"/></svg>