<svg height="511pt" viewBox="0 -95 511.99797 511" width="511pt" xmlns="http://www.w3.org/2000/svg"><path d="m504.394531 229.476562c0 46.117188-37.382812 83.503907-83.519531 83.503907h-302.222656c-61.324219 0-111.046875-49.707031-111.046875-111.046875 0-61.324219 49.722656-111.046875 111.042969-111.046875 5.503906 0 10.910156.421875 16.210937 1.191406 25.078125-49.800781 76.652344-83.972656 136.234375-83.972656 72.09375 0 132.492188 50.050781 148.355469 117.300781 1.582031 6.707031 2.726562 13.589844 3.386719 20.597656v.015625c45.207031 1.035157 81.558593 37.996094 81.558593 83.457031zm0 0" fill="#d3ddea"/><path d="m324.078125 17.578125c-16.507813-6.128906-34.363281-9.46875-52.984375-9.46875-59.582031 0-111.140625 34.171875-136.238281 83.957031v.015625c-5.296875-.765625-10.703125-1.191406-16.207031-1.191406-61.339844 0-111.046876 49.722656-111.046876 111.046875 0 61.339844 49.710938 111.046875 111.046876 111.046875h53.671874c-55.269531 0-100.054687-44.800781-100.054687-100.058594 0-49.03125 35.269531-89.835937 81.839844-98.394531 4.609375-.859375 9.328125-1.394531 14.140625-1.582031 1.347656-.046875 2.710937-.078125 4.074218-.078125 17.964844 0 34.832032 4.734375 49.394532 13.042968-2.023438-14.097656-16.59375-27.304687-38.082032-37.945312 11.796876-39.902344 51.953126-76.910156 140.445313-70.390625zm0 0" fill="#97b0cc"/><path d="m118.648438 320.582031c-65.421876 0-118.648438-53.226562-118.648438-118.648437s53.226562-118.652344 118.648438-118.652344c3.917968 0 7.90625.207031 11.921874.609375 13.117188-24 32.1875-44.296875 55.417969-58.910156 25.457031-16.015625 54.886719-24.480469 85.105469-24.480469 34.402344 0 67.179688 10.75 94.796875 31.089844 3.382813 2.492187 4.105469 7.25 1.613281 10.632812-2.488281 3.382813-7.25 4.101563-10.632812 1.613282-24.984375-18.402344-54.644532-28.128907-85.777344-28.128907-27.351562 0-53.980469 7.65625-77.007812 22.144531-22.414063 14.101563-40.546876 34.035157-52.4375 57.644532-1.472657 2.921875-4.644532 4.574218-7.882813 4.105468-5.09375-.738281-10.179687-1.109374-15.117187-1.109374-57.035157 0-103.441407 46.402343-103.441407 103.441406 0 57.039062 46.40625 103.441406 103.441407 103.441406 4.199218 0 7.605468 3.40625 7.605468 7.605469s-3.40625 7.601562-7.605468 7.601562zm0 0"/><path d="m420.875 320.582031h-271.328125c-4.199219 0-7.605469-3.402343-7.605469-7.601562s3.40625-7.605469 7.605469-7.605469h271.328125c41.863281 0 75.917969-34.046875 75.917969-75.898438 0-19.960937-7.691407-38.808593-21.65625-53.070312-13.945313-14.238281-32.582031-22.332031-52.476563-22.785156-3.945312-.089844-7.132812-3.175782-7.410156-7.054688-.617188-6.496094-1.695312-13.027344-3.203125-19.414062-5.523437-23.425782-16.992187-45.328125-33.160156-63.335938-2.804688-3.125-2.546875-7.933594.578125-10.738281s7.933594-2.546875 10.738281.578125c17.867187 19.902344 30.535156 44.109375 36.648437 70.003906 1.175782 4.992188 2.117188 10.066406 2.808594 15.148438 21.363282 2.035156 41.167969 11.464844 56.339844 26.960937 16.765625 17.121094 25.996094 39.746094 25.996094 63.707031.003906 50.234376-40.875 91.105469-91.121094 91.105469zm0 0"/></svg>