<svg height="512pt" viewBox="-74 0 512 512.00053" width="512pt" xmlns="http://www.w3.org/2000/svg"><path d="m356.003906 7.613281-258.855468 208.363281h64.359374l-114.648437 132.78125h67.5l-106.746094 155.628907 255.878907-178.039063h-70.640626l113.023438-126.996094h-80.792969z" fill="#ffee8c"/><path d="m7.613281 512c-1.953125 0-3.894531-.75-5.363281-2.210938-2.609375-2.59375-2.996094-6.675781-.914062-9.707031l98.570312-143.710937h-53.046875c-2.980469 0-5.683594-1.738282-6.921875-4.445313-1.242188-2.707031-.789062-5.890625 1.160156-8.144531l103.78125-120.191406h-47.730468c-3.230469 0-6.109376-2.035156-7.179688-5.082032-1.074219-3.046874-.109375-6.4375 2.40625-8.460937l258.855469-208.363281c2.941406-2.367188 7.171875-2.222656 9.941406.339844 2.773437 2.558593 3.25 6.765624 1.121094 9.882812l-122.792969 179.832031h66.375c3 0 5.71875 1.761719 6.949219 4.496094 1.226562 2.738281.734375 5.9375-1.261719 8.179687l-68.046875 76.457032c-2.796875 3.140625-7.605469 3.421875-10.75.625-3.140625-2.792969-3.421875-7.605469-.625-10.746094l56.769531-63.785156h-63.828125c-2.820312 0-5.414062-1.5625-6.730469-4.058594-1.320312-2.496094-1.148437-5.515625.445313-7.847656l101.921875-149.269532-201.972656 162.574219h42.761718c2.980469 0 5.683594 1.738281 6.921876 4.445313 1.242187 2.707031.789062 5.890625-1.160157 8.144531l-103.78125 120.191406h50.871094c2.824219 0 5.417969 1.5625 6.734375 4.0625s1.140625 5.527344-.457031 7.855469l-83.195313 121.296875 201.78125-140.398437h-46.371094c-3 0-5.71875-1.761719-6.949218-4.5-1.226563-2.734376-.734375-5.9375 1.261718-8.175782l27.769532-31.207031c2.796875-3.140625 7.605468-3.417969 10.75-.625 3.140625 2.796875 3.417968 7.609375.625 10.75l-16.492188 18.527344h53.671875c3.328125 0 6.269531 2.160156 7.265625 5.335937.996094 3.175782-.1875 6.628906-2.917968 8.527344l-255.875 178.042969c-1.316407.914062-2.835938 1.363281-4.347657 1.363281zm0 0"/></svg>