<svg height="512pt" viewBox="0 -31 512 512" width="512pt" xmlns="http://www.w3.org/2000/svg"><path d="m504.394531 228.976562c0 46.117188-37.382812 83.503907-83.519531 83.503907h-302.222656c-61.324219 0-111.046875-49.707031-111.046875-111.046875 0-61.324219 49.722656-111.046875 111.042969-111.046875 5.503906 0 10.910156.425781 16.210937 1.191406 25.078125-49.800781 76.652344-83.972656 136.234375-83.972656 72.09375 0 132.492188 50.050781 148.355469 117.300781 1.582031 6.707031 2.726562 13.589844 3.386719 20.597656v.015625c45.207031 1.035157 81.558593 37.996094 81.558593 83.457031zm0 0" fill="#d3ddea"/><path d="m324.078125 17.078125c-16.507813-6.128906-34.363281-9.46875-52.984375-9.46875-59.582031 0-111.140625 34.175781-136.238281 83.960937v.015626c-5.296875-.769532-10.703125-1.191407-16.207031-1.191407-61.339844 0-111.046876 49.722657-111.046876 111.042969 0 61.339844 49.710938 111.046875 111.046876 111.046875h53.671874c-55.269531 0-100.054687-44.800781-100.054687-100.054687 0-49.035157 35.269531-89.839844 81.839844-98.394532 4.609375-.863281 9.328125-1.398437 14.140625-1.585937 1.347656-.046875 2.710937-.078125 4.074218-.078125 17.964844 0 34.832032 4.734375 49.394532 13.042968-2.023438-14.097656-16.597656-27.300781-38.082032-37.945312 11.796876-39.902344 51.953126-76.90625 140.445313-70.390625zm0 0" fill="#97b0cc"/><path d="m141.90625 320.085938c4.199219 0 7.601562-3.40625 7.601562-7.605469s-3.402343-7.605469-7.601562-7.605469h-23.257812c-57.035157 0-103.441407-46.402344-103.441407-103.441406 0-57.039063 46.40625-103.441406 103.441407-103.441406 4.941406 0 10.027343.375 15.117187 1.113281 3.238281.46875 6.414063-1.183594 7.882813-4.105469 11.890624-23.613281 30.023437-43.546875 52.4375-57.648438 23.03125-14.484374 49.660156-22.144531 77.007812-22.144531 30.535156 0 59.734375 9.390625 84.4375 27.152344 3.40625 2.453125 8.160156 1.675781 10.613281-1.734375s1.675781-8.160156-1.734375-10.613281c-27.308594-19.632813-59.574218-30.011719-93.316406-30.011719-30.21875 0-59.648438 8.464844-85.105469 24.480469-23.230469 14.613281-42.300781 34.910156-55.417969 58.910156-4.011718-.402344-8.003906-.605469-11.921874-.605469-65.421876 0-118.648438 53.226563-118.648438 118.648438 0 65.425781 53.226562 118.652344 118.648438 118.652344zm0 0"/><path d="m486 165.269531c-15.171875-15.496093-34.976562-24.925781-56.339844-26.960937-.691406-5.082032-1.632812-10.152344-2.808594-15.148438-6.304687-26.71875-19.542968-51.550781-38.289062-71.804687-2.851562-3.082031-7.664062-3.265625-10.746094-.414063-3.082031 2.851563-3.269531 7.664063-.414062 10.746094 16.964844 18.328125 28.945312 40.792969 34.644531 64.964844 1.511719 6.390625 2.585937 12.925781 3.203125 19.417968.277344 3.878907 3.464844 6.960938 7.410156 7.050782 19.898438.457031 38.53125 8.546875 52.476563 22.789062 13.964843 14.261719 21.65625 33.109375 21.65625 53.066406 0 41.851563-34.054688 75.898438-75.917969 75.898438h-248.550781c-4.203125 0-7.605469 3.40625-7.605469 7.605469s3.402344 7.605469 7.605469 7.605469h248.550781c50.246094 0 91.125-40.871094 91.125-91.109376 0-23.960937-9.230469-46.585937-26-63.707031zm0 0"/><path d="m168.066406 392.128906c-2.097656-3.636718-6.75-4.882812-10.386718-2.78125l-15.59375 9v-18.003906c0-4.199219-3.402344-7.605469-7.601563-7.605469s-7.605469 3.40625-7.605469 7.605469v18.003906l-15.589844-9c-3.640624-2.101562-8.289062-.855468-10.386718 2.78125-2.101563 3.636719-.855469 8.289063 2.78125 10.386719l15.59375 9.003906-15.59375 9c-3.636719 2.101563-4.882813 6.75-2.78125 10.386719 1.40625 2.441406 3.960937 3.804688 6.589844 3.804688 1.289062 0 2.597656-.328126 3.796874-1.019532l15.589844-9.003906v18.003906c0 4.199219 3.40625 7.605469 7.605469 7.605469s7.601563-3.40625 7.601563-7.605469v-18.003906l15.59375 9.003906c1.199218.691406 2.503906 1.019532 3.796874 1.019532 2.625 0 5.183594-1.367188 6.589844-3.804688 2.101563-3.636719.855469-8.285156-2.78125-10.386719l-15.59375-9 15.59375-9.003906c3.632813-2.097656 4.882813-6.75 2.78125-10.386719zm0 0"/><path d="m289.582031 392.128906c-2.097656-3.636718-6.75-4.882812-10.386719-2.78125l-15.59375 9v-18.003906c0-4.199219-3.402343-7.605469-7.601562-7.605469s-7.605469 3.40625-7.605469 7.605469v18.003906l-15.589843-9c-3.640626-2.101562-8.289063-.855468-10.386719 2.78125-2.101563 3.636719-.855469 8.289063 2.78125 10.386719l15.59375 9.003906-15.59375 9c-3.636719 2.101563-4.882813 6.75-2.78125 10.386719 1.40625 2.441406 3.960937 3.804688 6.589843 3.804688 1.289063 0 2.597657-.328126 3.796876-1.019532l15.589843-9.003906v18.003906c0 4.203125 3.40625 7.605469 7.605469 7.605469s7.601562-3.402344 7.601562-7.605469v-18.003906l15.59375 9.003906c1.199219.691406 2.503907 1.019532 3.796876 1.019532 2.625 0 5.183593-1.363282 6.589843-3.804688 2.101563-3.636719.855469-8.285156-2.78125-10.386719l-15.59375-9 15.59375-9.003906c3.636719-2.097656 4.882813-6.75 2.78125-10.386719zm0 0"/><path d="m411.097656 392.128906c-2.097656-3.636718-6.75-4.882812-10.386718-2.78125l-15.589844 9v-18.003906c0-4.199219-3.40625-7.605469-7.605469-7.605469s-7.601563 3.40625-7.601563 7.605469v18.003906l-15.59375-9c-3.640624-2.101562-8.289062-.855468-10.386718 2.78125-2.101563 3.636719-.855469 8.289063 2.78125 10.386719l15.59375 9.003906-15.59375 9c-3.636719 2.101563-4.882813 6.75-2.78125 10.386719 1.40625 2.441406 3.964844 3.804688 6.589844 3.804688 1.292968 0 2.601562-.328126 3.796874-1.019532l15.59375-9.003906v18.003906c0 4.199219 3.402344 7.605469 7.601563 7.605469s7.605469-3.40625 7.605469-7.605469v-18.003906l15.589844 9.003906c1.199218.691406 2.507812 1.019532 3.796874 1.019532 2.628907 0 5.183594-1.367188 6.589844-3.804688 2.101563-3.636719.855469-8.285156-2.78125-10.386719l-15.59375-9 15.59375-9.003906c3.636719-2.097656 4.882813-6.75 2.78125-10.386719zm0 0"/></svg>