<svg height="512pt" viewBox="0 -10 512.00202 512" width="512pt" xmlns="http://www.w3.org/2000/svg"><path d="m476.59375 154.433594c-35.667969 35.667968-93.496094 35.667968-129.164062 0-35.667969-35.667969-35.667969-93.496094 0-129.164063.371093-.375.75-.738281 1.128906-1.101562-24.03125 3.242187-47.238282 14.09375-65.710938 32.566406-44.8125 44.8125-44.8125 117.464844 0 162.277344s117.46875 44.8125 162.28125 0c18.472656-18.472657 29.324219-41.675781 32.566406-65.710938-.363281.378907-.730468.757813-1.101562 1.132813zm0 0" fill="#ffd073"/><path d="m413.449219 241.453125c-42.648438 20.363281-95.273438 12.882813-130.597657-22.441406-44.816406-44.8125-44.816406-117.464844 0-162.277344 17.210938-17.214844 38.535157-27.8125 60.804688-31.792969-11.449219 5.460938-22.183594 12.941406-31.667969 22.425782-44.8125 44.8125-44.8125 117.464843 0 162.277343 27.59375 27.597657 65.753907 38.199219 101.460938 31.808594zm0 0" fill="#f28f44"/><path d="m123.664062 72.136719 17.71875-3.464844c7.765626-1.515625 7.765626-12.625 0-14.140625l-17.71875-3.464844c-10.085937-1.972656-17.972656-9.855468-19.945312-19.941406l-3.460938-17.722656c-1.519531-7.765625-12.625-7.765625-14.144531 0l-3.460937 17.722656c-1.972656 10.085938-9.855469 17.96875-19.941406 19.941406l-17.722657 3.464844c-7.765625 1.515625-7.765625 12.625 0 14.140625l17.722657 3.464844c10.082031 1.96875 17.96875 9.855469 19.941406 19.941406l3.460937 17.722656c1.519531 7.761719 12.625 7.761719 14.144531 0l3.464844-17.722656c1.96875-10.085937 9.855469-17.972656 19.941406-19.941406zm0 0" fill="#ffee8c"/><path d="m403.589844 302.765625c0 36.761719-29.800782 66.5625-66.578125 66.5625h-240.914063c-48.882812 0-88.519531-39.621094-88.519531-88.519531 0-48.878906 39.636719-88.515625 88.519531-88.515625 4.386719 0 8.695313.335937 12.917969.949219 19.996094-39.699219 61.105469-66.941407 108.601563-66.941407 57.464843 0 105.613281 39.898438 118.257812 93.503907 1.261719 5.351562 2.171875 10.835937 2.699219 16.421874v.011719c36.039062.824219 65.015625 30.289063 65.015625 66.527344zm0 0" fill="#84abc1"/><path d="m259.851562 133.851562c-13.15625-4.882812-27.390624-7.546874-42.234374-7.546874-47.496094 0-88.59375 27.242187-108.601563 66.925781v.015625c-4.222656-.613282-8.53125-.953125-12.917969-.953125-48.894531 0-88.519531 39.636719-88.519531 88.519531 0 48.898438 39.625 88.519531 88.519531 88.519531h42.785156c-44.0625 0-79.761718-35.710937-79.761718-79.757812 0-39.085938 28.117187-71.613281 65.242187-78.433594 3.671875-.6875 7.433594-1.113281 11.269531-1.265625 1.074219-.035156 2.160157-.0625 3.25-.0625 14.320313 0 27.765626 3.773438 39.371094 10.398438-1.609375-11.238282-13.226562-21.765626-30.355468-30.246094 9.40625-31.808594 41.414062-61.304688 111.953124-56.113282zm0 0" fill="#4d87a1"/><path d="m504.421875 431.101562c0 29.730469-24.101563 53.832032-53.84375 53.832032h-194.835937c-39.535157 0-71.589844-32.046875-71.589844-71.589844 0-39.53125 32.054687-71.585938 71.589844-71.585938 3.546874 0 7.03125.269532 10.449218.765626 16.167969-32.105469 49.414063-54.136719 87.828125-54.136719 46.476563 0 85.414063 32.269531 95.640625 75.621093 1.019532 4.328126 1.757813 8.761719 2.179688 13.28125v.007813c29.148437.667969 52.582031 24.496094 52.582031 53.804687zm0 0" fill="#d3ddea"/><path d="m388.175781 294.496094c-10.640625-3.953125-22.152343-6.105469-34.160156-6.105469-38.410156 0-71.648437 22.03125-87.828125 54.125v.011719c-3.414062-.496094-6.902344-.769532-10.449219-.769532-39.542969 0-71.589843 32.054688-71.589843 71.589844 0 39.542969 32.046874 71.589844 71.589843 71.589844h34.601563c-35.632813 0-64.503906-28.882812-64.503906-64.503906 0-31.613282 22.738281-57.917969 52.761718-63.433594 2.972656-.558594 6.011719-.902344 9.117188-1.023438.867187-.027343 1.746094-.050781 2.625-.050781 11.582031 0 22.457031 3.054688 31.84375 8.410157-1.304688-9.089844-10.699219-17.601563-24.550782-24.460938 7.605469-25.726562 33.492188-49.582031 90.542969-45.378906zm0 0" fill="#97b0cc"/><path d="m43.535156 76.109375 17.71875 3.464844c7.09375 1.386719 12.574219 6.863281 13.957032 13.957031l3.464843 17.722656c1.375 7.035156 7.34375 11.949219 14.511719 11.949219s13.132812-4.914063 14.507812-11.949219l3.464844-17.722656c1.386719-7.09375 6.863282-12.570312 13.957032-13.957031l17.71875-3.464844c7.035156-1.371094 11.949218-7.339844 11.949218-14.507813 0-7.167968-4.914062-13.136718-11.949218-14.511718l-17.71875-3.460938c-7.09375-1.386718-12.574219-6.863281-13.960938-13.957031l-3.460938-17.722656c-1.375-7.035157-7.339843-11.949219-14.507812-11.949219s-13.136719 4.914062-14.511719 11.949219l-3.464843 17.722656c-1.382813 7.09375-6.863282 12.570313-13.957032 13.957031l-17.71875 3.460938c-7.035156 1.375-11.949218 7.34375-11.949218 14.511718 0 7.167969 4.914062 13.136719 11.949218 14.507813zm20.628906-17.605469c13.175782-2.574218 23.351563-12.75 25.925782-25.925781l3.097656-15.832031 3.09375 15.832031c2.574219 13.175781 12.753906 23.351563 25.929688 25.925781l15.832031 3.097656-15.832031 3.09375c-13.175782 2.574219-23.355469 12.753907-25.929688 25.929688l-3.097656 15.832031-3.09375-15.832031c-2.574219-13.175781-12.75-23.351562-25.925782-25.929688l-15.835937-3.097656zm0 0"/><path d="m494.476562 388.15625c-9.730468-9.9375-22.285156-16.171875-35.882812-17.9375-.417969-2.667969-.9375-5.324219-1.558594-7.949219-5.382812-22.816406-18.472656-43.5-36.863281-58.242187-2.949219-2.363282-6.03125-4.539063-9.203125-6.5625-1.066406-15.140625-6.695312-29.425782-16.195312-41.183594 21.035156-5.410156 40.085937-16.28125 55.714843-31.910156 19.109375-19.109375 31.113281-43.332032 34.722657-70.050782.433593-3.222656-1.234376-6.363281-4.148438-7.808593-2.914062-1.441407-6.421875-.867188-8.722656 1.433593-.28125.28125-.5625.570313-.835938.855469l-.308594.316407c-32.660156 32.605468-85.765624 32.59375-118.410156-.039063-32.648437-32.660156-32.648437-85.796875 0-118.453125.214844-.21875.4375-.429688.65625-.640625l.402344-.390625c2.34375-2.28125 2.960938-5.808594 1.527344-8.75-1.429688-2.9375-4.582032-4.628906-7.828125-4.191406-26.71875 3.605468-50.941407 15.613281-70.054688 34.722656-2.957031 2.960938-2.957031 7.757812 0 10.71875 2.960938 2.957031 7.761719 2.960938 10.71875 0 11.578125-11.578125 25.292969-20.175781 40.390625-25.425781-24.394531 38.253906-19.902344 89.746093 13.46875 123.128906 33.378906 33.367187 84.875 37.859375 123.125 13.464844-5.246094 15.097656-13.847656 28.816406-25.425781 40.390625-15.96875 15.972656-36.015625 26.261718-58.132813 29.910156-10.582031-7.992188-23.046874-12.984375-36.28125-14.460938-.542968-3.710937-1.242187-7.40625-2.101562-11.035156-6.5625-27.824218-22.527344-53.046875-44.953125-71.027344-12.160156-9.75-25.996094-17.160156-40.703125-21.953124 1.773438-14.800782 6.640625-29.191407 14.226562-41.945313 2.136719-3.597656.957032-8.25-2.640624-10.386719-3.597657-2.140625-8.246094-.957031-10.386719 2.636719-8.3125 13.972656-13.753907 29.664063-15.976563 45.832031-8.265625-1.652344-16.707031-2.503906-25.199218-2.503906-47.289063 0-90.054688 25.300781-112.867188 66.386719-2.929688-.265625-5.824219-.398438-8.65625-.398438-52.984375 0-96.09375 43.113281-96.09375 96.105469 0 52.988281 43.109375 96.09375 96.09375 96.09375h89.394531c-5.683593 10.917969-8.917969 23.300781-8.917969 36.4375 0 43.652344 35.515626 79.167969 79.167969 79.167969h13.636719c4.1875 0 7.582031-3.394531 7.582031-7.578125 0-4.1875-3.394531-7.582032-7.582031-7.582032h-13.636719c-35.296875 0-64.007812-28.714843-64.007812-64.007812 0-35.296875 28.710937-64.011719 64.007812-64.011719 3.054688 0 6.203125.234375 9.363281.691407 3.21875.464843 6.386719-1.179688 7.855469-4.09375 15.519531-30.820313 46.582031-49.964844 81.058594-49.964844 20.847656 0 40.445313 6.878906 56.671875 19.886718 15.761719 12.636719 26.984375 30.355469 31.59375 49.894532.941406 3.992187 1.613281 8.070312 2 12.125.289062 3.851562 3.460938 6.910156 7.382812 7.003906 12.125.273438 23.480469 5.207031 31.980469 13.882812 8.511719 8.695313 13.195313 20.175782 13.195313 32.339844 0 25.503906-20.753906 46.253906-46.261719 46.253906h-150.878906c-4.1875 0-7.582031 3.394532-7.582031 7.578126 0 4.1875 3.394531 7.582031 7.582031 7.582031h150.878906c33.871094 0 61.425781-27.550781 61.425781-61.414063 0-16.148437-6.226562-31.398437-17.527344-42.941406zm-232.546874-53.730469c-2.082032-.167969-4.148438-.25-6.1875-.25-23.957032 0-45.445313 10.710938-59.972657 27.574219h-99.671875c-44.628906 0-80.9375-36.304688-80.9375-80.933594 0-44.636718 36.308594-80.949218 80.9375-80.949218 3.828125 0 7.8125.292968 11.847656.875 3.222657.460937 6.382813-1.1875 7.847657-4.09375 19.496093-38.71875 58.511719-62.769532 101.824219-62.769532 26.191406 0 50.8125 8.640625 71.199218 24.988282 19.800782 15.875 33.890625 38.132812 39.683594 62.683593 1.183594 5.003907 2.027344 10.140625 2.515625 15.261719.289063 3.851562 3.460937 6.914062 7.386719 7.003906 27.347656.625 49.851562 19.53125 55.957031 45.015625-12.722656-5.238281-26.445313-8.023437-40.339844-8.023437-38.457031 0-73.273437 20.410156-92.089843 53.617187zm0 0"/></svg>