<svg height="512pt" viewBox="0 -1 512 512" width="512pt" xmlns="http://www.w3.org/2000/svg"><path d="m438.679688 207.464844c-54.722657 54.722656-143.445313 54.722656-198.167969 0-54.726563-54.722656-54.726563-143.445313 0-198.171875.570312-.570313 1.152343-1.128907 1.730469-1.6875-36.871094 4.976562-72.472657 21.621093-100.8125 49.960937-68.753907 68.753906-68.753907 180.226563 0 248.980469 68.75 68.75 180.222656 68.75 248.976562 0 28.339844-28.339844 44.988281-63.941406 49.964844-100.816406-.5625.578125-1.117188 1.160156-1.691406 1.734375zm0 0" fill="#ffd073"/><path d="m341.800781 340.972656c-65.433593 31.242188-146.175781 19.769532-200.371093-34.429687-68.753907-68.753907-68.753907-180.21875 0-248.972657 26.40625-26.410156 59.125-42.671874 93.292968-48.78125-17.566406 8.378907-34.039062 19.855469-48.589844 34.40625-68.753906 68.753907-68.753906 180.222657 0 248.976563 42.339844 42.339844 100.882813 58.609375 155.667969 48.800781zm0 0" fill="#f28f44"/><path d="m265.988281 365.816406c32.25 0 64.722657-8.503906 93.949219-25.941406 3.605469-2.152344 4.785156-6.820312 2.632812-10.429688-2.152343-3.605468-6.820312-4.785156-10.425781-2.632812-66.261719 39.539062-150.699219 28.992188-205.335937-25.644531-31.816406-31.816407-49.339844-74.117188-49.339844-119.109375 0-44.996094 17.519531-87.296875 49.339844-119.113282 21.027344-21.03125 46.5625-35.816406 74.753906-43.433593-13.480469 17.851562-22.703125 38.5-26.996094 60.660156-.796875 4.121094 1.898438 8.109375 6.023438 8.910156 4.125.796875 8.113281-1.898437 8.910156-6.019531 5.023438-25.964844 17.609375-49.613281 36.390625-68.394531.457031-.457031.921875-.90625 1.390625-1.355469l.246094-.238281c2.363281-2.285157 2.992187-5.828125 1.5625-8.785157-1.433594-2.957031-4.605469-4.660156-7.863282-4.2187495-40.121093 5.4140625-76.488281 23.4374995-105.171874 52.1210935-34.691407 34.6875-53.792969 80.808594-53.792969 129.863282 0 49.058593 19.101562 95.179687 53.792969 129.867187 35.46875 35.472656 82.460937 53.894531 129.933593 53.894531zm0 0"/><path d="m207.074219 107.425781c.03125-4.199219-3.347657-7.628906-7.546875-7.660156-4.152344-.023437-7.628906 3.351563-7.660156 7.550781-.285157 39.863282 15.082031 77.335938 43.265624 105.523438 28.804688 28.804687 66.628907 43.203125 104.464844 43.203125 31.332032-.003907 62.667969-9.882813 88.867188-29.640625-7.617188 28.199218-22.402344 53.734375-43.4375 74.765625-4.0625 4.066406-8.371094 7.957031-12.796875 11.570312-3.257813 2.65625-3.742188 7.445313-1.085938 10.699219 1.5 1.84375 3.6875 2.796875 5.894531 2.796875 1.691407 0 3.390626-.558594 4.800782-1.710937 4.824218-3.933594 9.515625-8.171876 13.941406-12.601563 28.683594-28.683594 46.707031-65.050781 52.125-105.171875.4375-3.257812-1.265625-6.425781-4.21875-7.859375-2.957031-1.433594-6.5-.808594-8.785156 1.554687l-.277344.289063c-.4375.453125-.871094.902344-1.324219 1.351563-51.667969 51.671874-135.746093 51.671874-187.414062 0-25.285157-25.28125-39.066407-58.902344-38.8125-94.660157zm0 0"/><path d="m504.394531 465.441406c-18.628906 0-28.054687 9.234375-36.371093 17.378906-7.433594 7.285157-13.308594 13.039063-25.730469 13.039063s-18.296875-5.753906-25.730469-13.039063c-8.316406-8.144531-17.742188-17.378906-36.371094-17.378906-18.632812 0-28.058594 9.234375-36.371094 17.382813-7.4375 7.28125-13.308593 13.035156-25.730468 13.035156s-18.292969-5.753906-25.730469-13.039063c-8.3125-8.144531-17.738281-17.378906-36.367187-17.378906-18.628907 0-28.054688 9.234375-36.371094 17.382813-7.433594 7.28125-13.304688 13.035156-25.726563 13.035156-12.417969 0-18.292969-5.753906-25.726562-13.035156-8.316407-8.148438-17.742188-17.382813-36.371094-17.382813s-28.054687 9.234375-36.371094 17.382813c-7.433593 7.28125-13.304687 13.035156-25.726562 13.035156s-18.292969-5.753906-25.726563-13.039063c-8.316406-8.144531-17.742187-17.378906-36.367187-17.378906-4.203125 0-7.605469 3.40625-7.605469 7.605469s3.402344 7.601563 7.605469 7.601563c12.417969 0 18.289062 5.753906 25.722656 13.035156 8.316406 8.148437 17.742187 17.382812 36.371094 17.382812 18.628906 0 28.054687-9.234375 36.371093-17.378906 7.433594-7.285156 13.308594-13.039062 25.726563-13.039062 12.421875 0 18.292969 5.753906 25.730469 13.039062 8.316406 8.144531 17.742187 17.378906 36.367187 17.378906 18.628907 0 28.054688-9.234375 36.371094-17.382812 7.433594-7.28125 13.304687-13.035156 25.726563-13.035156 12.417968 0 18.292968 5.753906 25.726562 13.039062 8.316406 8.144531 17.742188 17.378906 36.371094 17.378906s28.054687-9.234375 36.371094-17.378906c7.433593-7.285156 13.308593-13.039062 25.730468-13.039062s18.292969 5.753906 25.730469 13.039062c8.316406 8.144531 17.742187 17.378906 36.371094 17.378906 18.628906 0 28.054687-9.234375 36.371093-17.378906 7.4375-7.285156 13.308594-13.039062 25.730469-13.039062 4.203125 0 7.605469-3.402344 7.605469-7.601563s-3.402344-7.605469-7.605469-7.605469zm0 0"/><path d="m7.605469 424.566406c12.417969 0 18.289062 5.75 25.722656 13.035156 8.316406 8.144532 17.742187 17.378907 36.371094 17.378907 18.628906 0 28.054687-9.234375 36.371093-17.378907 7.433594-7.285156 13.308594-13.035156 25.726563-13.035156 12.421875 0 18.292969 5.75 25.730469 13.035156 8.316406 8.144532 17.742187 17.378907 36.367187 17.378907 18.628907 0 28.054688-9.234375 36.371094-17.378907 7.433594-7.285156 13.304687-13.035156 25.726563-13.035156 12.417968 0 18.292968 5.75 25.726562 13.035156 8.316406 8.144532 17.742188 17.378907 36.371094 17.378907s28.054687-9.234375 36.371094-17.378907c7.433593-7.285156 13.308593-13.035156 25.730468-13.035156s18.292969 5.75 25.730469 13.035156c8.316406 8.144532 17.742187 17.378907 36.371094 17.378907 18.628906 0 28.054687-9.234375 36.371093-17.378907 7.4375-7.285156 13.308594-13.035156 25.730469-13.035156 4.203125 0 7.605469-3.40625 7.605469-7.605468 0-4.199219-3.402344-7.605469-7.605469-7.605469-18.628906 0-28.054687 9.234375-36.371093 17.382812-7.433594 7.28125-13.308594 13.035157-25.730469 13.035157s-18.296875-5.753907-25.730469-13.035157c-8.316406-8.148437-17.742188-17.382812-36.371094-17.382812-18.632812 0-28.058594 9.234375-36.371094 17.382812-7.4375 7.28125-13.308593 13.035157-25.730468 13.035157s-18.292969-5.753907-25.730469-13.035157c-8.3125-8.148437-17.738281-17.382812-36.367187-17.382812-18.628907 0-28.054688 9.234375-36.371094 17.382812-7.433594 7.28125-13.304688 13.035157-25.726563 13.035157-12.417969 0-18.292969-5.753907-25.726562-13.035157-8.316407-8.148437-17.742188-17.382812-36.371094-17.382812s-28.054687 9.234375-36.371094 17.382812c-7.433593 7.28125-13.304687 13.035157-25.726562 13.035157s-18.292969-5.753907-25.726563-13.035157c-8.316406-8.148437-17.742187-17.382812-36.367187-17.382812-4.203125 0-7.605469 3.40625-7.605469 7.605469 0 4.199218 3.402344 7.605468 7.605469 7.605468zm0 0"/><path d="m146.746094 218.980469c.800781 0 1.617187-.128907 2.414062-.394531 3.984375-1.335938 6.132813-5.644532 4.796875-9.625l-2.878906-8.605469c-1.332031-3.980469-5.644531-6.128907-9.625-4.796875-3.984375 1.335937-6.128906 5.644531-4.796875 9.625l2.878906 8.605468c1.066406 3.179688 4.03125 5.191407 7.210938 5.191407zm0 0"/><path d="m188.65625 204.953125c.800781 0 1.613281-.128906 2.414062-.398437 3.984376-1.332032 6.128907-5.640626 4.796876-9.625l-2.878907-8.601563c-1.335937-3.980469-5.644531-6.128906-9.625-4.796875-3.984375 1.332031-6.128906 5.640625-4.796875 9.625l2.878906 8.601562c1.066407 3.183594 4.03125 5.195313 7.210938 5.195313zm0 0"/><path d="m144.523438 253.917969c8.304687 4.140625 17.265624 6.230469 26.285156 6.230469 6.308594 0 12.644531-1.023438 18.796875-3.085938 14.960937-5.007812 27.070312-15.539062 34.109375-29.652344 1.875-3.761718.34375-8.324218-3.414063-10.199218-3.757812-1.875-8.324219-.34375-10.199219 3.414062-5.222656 10.480469-14.214843 18.300781-25.320312 22.015625-11.105469 3.71875-22.996094 2.890625-33.476562-2.335937-3.757813-1.875-8.324219-.34375-10.195313 3.414062-1.875 3.757812-.347656 8.324219 3.414063 10.199219zm0 0"/></svg>