<svg height="512pt" viewBox="0 0 512 512" width="512pt" xmlns="http://www.w3.org/2000/svg"><path d="m7.605469 281.347656c14.035156-17.691406 36.621093-29.167968 62.101562-29.167968 25.488281 0 48.074219 11.476562 62.097657 29.167968 14.035156-17.691406 36.621093-29.167968 62.097656-29.167968 25.492187 0 48.078125 11.476562 62.101562 29.167968 14.03125-17.691406 36.617188-29.167968 62.097656-29.167968 25.492188 0 48.074219 11.476562 62.097657 29.167968 14.035156-17.691406 36.621093-29.167968 62.101562-29.167968 25.488281 0 48.074219 11.476562 62.097657 29.167968 0-137.183594-111.210938-248.394531-248.394532-248.394531-137.1875 0-248.398437 111.210937-248.398437 248.394531zm0 0" fill="#ff7694"/><path d="m256.003906 32.953125c-68.597656 0-124.199218 111.210937-124.199218 248.394531-14.019532-17.691406-36.609376-29.167968-62.097657-29.167968-25.480469 0-48.066406 11.476562-62.101562 29.167968 0-137.183594 111.210937-248.394531 248.398437-248.394531zm0 0" fill="#eac749"/><path d="m380.199219 281.347656c-14.019531-17.691406-36.609375-29.167968-62.097657-29.167968-25.476562 0-48.066406 11.476562-62.097656 29.167968v-248.394531c68.585938 0 124.195313 111.210937 124.195313 248.394531zm0 0" fill="#ffee8c"/><path d="m270.847656 33.398438v-10.941407c0-8.203125-6.640625-14.851562-14.84375-14.851562s-14.855468 6.648437-14.855468 14.851562v10.941407" fill="#84abc1"/><path d="m215.816406 504.390625c-24.089844.367187-44.824218-14.484375-53.191406-35.546875-3.949219-9.9375 3.484375-20.714844 14.179688-20.714844 6.128906 0 11.808593 3.621094 14.027343 9.335938 3.699219 9.523437 12.890625 16.328125 23.667969 16.511718 14.542969.246094 26.292969-11.890624 26.292969-26.4375v-65.550781c0-8.398437 6.808593-15.207031 15.210937-15.207031 8.398438 0 15.207032 6.808594 15.207032 15.207031v65.285157c-.003907 30.878906-24.519532 56.644531-55.394532 57.117187zm0 0" fill="#84abc1"/><path d="m437.019531 100.328125c-43.019531-43.019531-98.660156-68.824219-158.570312-73.996094v-3.875c0-12.382812-10.070313-22.457031-22.445313-22.457031-12.382812 0-22.457031 10.074219-22.457031 22.457031v3.871094c-42.222656 3.679687-82.71875 17.703125-118.246094 41.121094-40.730469 26.84375-72.824219 64.472656-92.808593 108.824219-1.726563 3.828124-.023438 8.332031 3.804687 10.058593 3.832031 1.722657 8.332031.019531 10.058594-3.808593 18.800781-41.722657 48.992187-77.121094 87.3125-102.378907 24.351562-16.046875 51.179687-27.402343 79.316406-33.722656-15.464844 13.003906-29.574219 31.8125-41.605469 55.882813-21.84375 43.6875-34.742187 100.355468-36.863281 161.140624-15.171875-12.007812-34.621094-18.871093-54.808594-18.871093-19.722656 0-38.761719 6.539062-53.78125 18.046875 1.386719-17.996094 4.769531-35.714844 10.105469-52.878906 1.25-4.011719-.992188-8.273438-5-9.519532s-8.273438.992188-9.519531 5.003906c-7.640625 24.554688-11.511719 50.167969-11.511719 76.121094 0 2.445313 1.175781 4.742188 3.160156 6.171875 1.980469 1.429688 4.53125 1.816407 6.851563 1.042969 1.398437-.464844 2.632812-1.332031 3.550781-2.488281 13.058594-16.460938 34.046875-26.289063 56.140625-26.289063 22.109375 0 43.09375 9.828125 56.140625 26.289063 1.441406 1.816406 3.636719 2.878906 5.957031 2.878906h.003907c2.320312 0 4.511718-1.058594 5.957031-2.878906 13.058593-16.460938 34.046875-26.289063 56.140625-26.289063 21.203125 0 41.371094 9.042969 54.496094 24.308594v76.394531c-8.851563 3.136719-15.210938 11.589844-15.210938 21.503907v65.546874c0 5.097657-2.078125 10.0625-5.707031 13.632813-3.496094 3.433594-8.066407 5.289063-12.855469 5.203125-7.445312-.125-14.003906-4.703125-16.707031-11.664062-3.296875-8.484376-11.78125-14.1875-21.117188-14.1875-7.582031 0-14.652343 3.75-18.917969 10.03125-4.226562 6.234374-5.097656 14.121093-2.328124 21.097656 9.632812 24.234375 33.425781 40.347656 59.417968 40.347656.316406 0 .636719-.003906.957032-.007812 34.675781-.527344 62.882812-29.5625 62.882812-64.71875v-65.28125c0-9.914063-6.355469-18.367188-15.207031-21.503907v-76.398437c13.136719-15.261719 33.304687-24.304688 54.492187-24.304688 22.105469 0 43.09375 9.828125 56.140625 26.289063 1.441407 1.816406 3.636719 2.878906 5.957031 2.878906 2.324219 0 4.515626-1.058594 5.960938-2.878906 13.058594-16.460938 34.042969-26.289063 56.140625-26.289063 22.105469 0 43.089844 9.828125 56.140625 26.289063 1.46875 1.855469 3.679688 2.882812 5.960938 2.882812.835937 0 1.679687-.140625 2.496093-.425781 3.058594-1.0625 5.105469-3.945312 5.105469-7.179688 0-68.382812-26.628906-132.667968-74.980469-181.023437zm-188.265625-77.871094c0-3.996093 3.253906-7.25 7.25-7.25 3.992188 0 7.238282 3.253907 7.238282 7.25v3c-2.410157-.066406-4.820313-.109375-7.242188-.109375s-4.835938.046875-7.246094.113282zm-54.851562 222.117188c-19.894532 0-39.078125 6.675781-54.160156 18.375 2.148437-58.238281 14.46875-112.308594 35.238281-153.839844 20.234375-40.472656 46.0625-64.285156 73.414062-68.019531v222.113281c-15.121093-11.855469-34.441406-18.628906-54.492187-18.628906zm69.703125 202.699219c0 26.898437-21.492188 49.109374-47.90625 49.511718-20.085938.300782-38.578125-12.050781-46.011719-30.75-.921875-2.320312-.636719-4.851562.78125-6.941406 1.449219-2.136719 3.757812-3.363281 6.332031-3.363281 3.109375 0 5.898438 1.804687 6.941407 4.488281 4.953124 12.746094 16.972656 21.128906 30.625 21.359375 8.90625.144531 17.347656-3.246094 23.777343-9.566406 6.515625-6.40625 10.253907-15.324219 10.253907-24.472657v-65.546874c0-4.195313 3.410156-7.605469 7.601562-7.605469 4.195312 0 7.605469 3.410156 7.605469 7.605469zm178.691406-202.699219c-20.1875 0-39.640625 6.867187-54.816406 18.882812-1.574219-44.886719-9.050781-87.832031-21.875-125.140625-1.367188-3.972656-5.691407-6.085937-9.664063-4.71875-3.96875 1.363282-6.082031 5.691406-4.71875 9.660156 12.246094 35.617188 19.433594 76.667969 21.03125 119.679688-15.074218-11.691406-34.253906-18.363281-54.152344-18.363281-20.046874 0-39.367187 6.773437-54.496093 18.636719v-222.097657c28.28125 3.992188 55.5625 30.0625 75.8125 72.929688 1.792969 3.796875 6.324219 5.421875 10.125 3.625 3.796875-1.792969 5.421875-6.324219 3.625-10.121094-11.933594-25.269531-26.117188-45.238281-42.148438-59.355469-.722656-.636718-1.449219-1.238281-2.175781-1.847656 44.140625 9.832031 84.667969 31.984375 117.421875 64.738281 41.035156 41.035157 65.4375 94.28125 69.816406 151.539063-15.015625-11.507813-34.054687-18.046875-53.785156-18.046875zm0 0"/></svg>