<svg height="512pt" viewBox="0 0 512.00004 512" width="512pt" xmlns="http://www.w3.org/2000/svg"><path d="m327.726562 444.53125c-12.421874 7.1875-20.785156 20.609375-20.785156 35.992188 0 .550781.011719 1.097656.03125 1.640624 1.015625 26.128907 40.492188 26.128907 41.507813 0 .019531-.542968.03125-1.089843.03125-1.640624 0-15.382813-8.363281-28.804688-20.785157-35.992188zm0 0" fill="#84abc1"/><path d="m327.726562 501.761719c-10.117187 0-20.234374-6.539063-20.742187-19.597657-.019531-.546874-.042969-1.09375-.042969-1.640624 0-15.382813 8.367188-28.804688 20.785156-35.992188-2.503906 7.1875-4.1875 20.609375-4.1875 35.992188 0 .546874 0 1.09375.011719 1.640624.101563 13.058594 2.136719 19.597657 4.175781 19.597657zm0 0" fill="#4d87a1"/><path d="m28.386719 444.53125c-12.417969 7.1875-20.78125 20.609375-20.78125 35.992188 0 .550781.007812 1.097656.03125 1.640624 1.011719 26.128907 40.488281 26.128907 41.503906 0 .019531-.542968.03125-1.089843.03125-1.640624 0-15.382813-8.363281-28.804688-20.785156-35.992188zm0 0" fill="#84abc1"/><path d="m28.386719 501.761719c-10.117188 0-20.234375-6.539063-20.742188-19.597657-.019531-.546874-.039062-1.09375-.039062-1.640624 0-15.382813 8.363281-28.804688 20.78125-35.992188-2.503907 7.1875-4.1875 20.609375-4.1875 35.992188 0 .546874 0 1.09375.011719 1.640624.101562 13.058594 2.140624 19.597657 4.175781 19.597657zm0 0" fill="#4d87a1"/><path d="m504.394531 228.972656c0 46.117188-37.386719 83.503906-83.519531 83.503906h-302.222656c-61.324219 0-111.046875-49.707031-111.046875-111.046874 0-61.320313 49.722656-111.042969 111.046875-111.042969 5.5 0 10.910156.421875 16.207031 1.191406 25.082031-49.800781 76.652344-83.976563 136.238281-83.976563 72.089844 0 132.488282 50.054688 148.351563 117.300782 1.585937 6.710937 2.726562 13.59375 3.386719 20.597656v.015625c45.207031 1.035156 81.558593 38 81.558593 83.457031zm0 0" fill="#d3ddea"/><path d="m324.078125 17.078125c-16.507813-6.128906-34.363281-9.46875-52.984375-9.46875-59.582031 0-111.140625 34.171875-136.234375 83.957031v.015625c-5.300781-.769531-10.707031-1.191406-16.210937-1.191406-61.339844 0-111.042969 49.722656-111.042969 111.046875 0 61.335938 49.707031 111.046875 111.042969 111.046875h53.671874c-55.269531 0-100.054687-44.800781-100.054687-100.058594 0-49.03125 35.269531-89.835937 81.839844-98.394531 4.609375-.863281 9.328125-1.394531 14.140625-1.585938 1.347656-.042968 2.710937-.078124 4.074218-.078124 17.964844 0 34.832032 4.734374 49.394532 13.042968-2.023438-14.097656-16.597656-27.300781-38.082032-37.941406 11.796876-39.902344 51.953126-76.910156 140.445313-70.390625zm0 0" fill="#97b0cc"/><path d="m413.628906 358.300781c-12.417968 7.1875-20.78125 20.609375-20.78125 35.992188 0 .550781.007813 1.097656.03125 1.640625 1.011719 26.128906 40.488282 26.128906 41.503906 0 .019532-.542969.03125-1.089844.03125-1.640625 0-15.382813-8.363281-28.804688-20.785156-35.992188zm0 0" fill="#84abc1"/><path d="m413.628906 415.53125c-10.117187 0-20.234375-6.539062-20.742187-19.597656-.019531-.546875-.039063-1.09375-.039063-1.640625 0-15.382813 8.363282-28.804688 20.78125-35.992188-2.503906 7.1875-4.1875 20.609375-4.1875 35.992188 0 .546875 0 1.09375.011719 1.640625.101563 13.058594 2.140625 19.597656 4.175781 19.597656zm0 0" fill="#4d87a1"/><path d="m98.367188 358.300781c-12.421876 7.1875-20.785157 20.609375-20.785157 35.992188 0 .550781.011719 1.097656.03125 1.640625 1.015625 26.128906 40.492188 26.128906 41.507813 0 .019531-.542969.03125-1.089844.03125-1.640625 0-15.382813-8.363282-28.804688-20.785156-35.992188zm0 0" fill="#84abc1"/><path d="m98.367188 415.53125c-10.117188 0-20.234376-6.539062-20.742188-19.597656-.019531-.546875-.042969-1.09375-.042969-1.640625 0-15.382813 8.367188-28.804688 20.785157-35.992188-2.503907 7.1875-4.1875 20.609375-4.1875 35.992188 0 .546875 0 1.09375.011718 1.640625.101563 13.058594 2.136719 19.597656 4.175782 19.597656zm0 0" fill="#4d87a1"/><path d="m331.535156 437.949219c-2.355468-1.363281-5.261718-1.363281-7.617187 0-15.160157 8.773437-24.578125 25.085937-24.578125 42.574219 0 .648437.011718 1.289062.035156 1.9375.6875 17.664062 14.78125 26.90625 28.351562 26.90625 13.570313 0 27.664063-9.242188 28.351563-26.90625.023437-.640626.035156-1.289063.035156-1.9375 0-17.484376-9.414062-33.800782-24.578125-42.574219zm9.347656 43.921875c-.355468 9.070312-7.308593 12.285156-13.15625 12.285156-5.847656 0-12.800781-3.214844-13.152343-12.28125-.019531-.449219-.027344-.898438-.027344-1.351562 0-10.539063 4.957031-20.460938 13.179687-26.847657 8.226563 6.386719 13.179688 16.3125 13.179688 26.847657 0 .449218-.007812.898437-.023438 1.347656zm0 0"/><path d="m32.195312 437.949219c-2.355468-1.363281-5.261718-1.363281-7.617187 0-15.160156 8.773437-24.578125 25.089843-24.578125 42.574219 0 .648437.0117188 1.296874.0390625 1.9375.6835935 17.664062 14.7812495 26.90625 28.3476565 26.90625 13.570312 0 27.664062-9.242188 28.351562-26.90625.023438-.640626.039063-1.289063.039063-1.9375 0-17.484376-9.421875-33.800782-24.582032-42.574219zm9.347657 43.921875c-.355469 9.070312-7.308594 12.285156-13.15625 12.285156-5.847657 0-12.800781-3.214844-13.152344-12.289062-.019531-.445313-.027344-.894532-.027344-1.34375 0-10.539063 4.957031-20.460938 13.179688-26.847657 8.226562 6.386719 13.179687 16.3125 13.179687 26.847657 0 .449218-.007812.898437-.023437 1.347656zm0 0"/><path d="m194.089844 37.351562c23.027344-14.488281 49.65625-22.144531 77.007812-22.144531 31.128906 0 60.792969 9.726563 85.777344 28.128907 3.378906 2.488281 8.140625 1.769531 10.632812-1.613282 2.488282-3.378906 1.765626-8.140625-1.613281-10.632812-27.617187-20.339844-60.398437-31.089844-94.796875-31.089844-30.222656 0-59.648437 8.464844-85.105468 24.480469-23.234376 14.613281-42.304688 34.910156-55.421876 58.910156-4.011718-.402344-8-.609375-11.917968-.609375-65.421875 0-118.64843775 53.226562-118.64843775 118.652344 0 65.421875 53.22656275 118.648437 118.64843775 118.648437h5.546875c4.199219 0 7.605469-3.402343 7.605469-7.601562 0-4.203125-3.40625-7.605469-7.605469-7.605469h-5.546875c-57.039063 0-103.441406-46.40625-103.441406-103.441406 0-57.039063 46.402343-103.445313 103.4375-103.445313 4.941406 0 10.027343.375 15.121093 1.113281 3.238281.46875 6.410157-1.183593 7.878907-4.105468 11.894531-23.609375 30.027343-43.542969 52.441406-57.644532zm0 0"/><path d="m412.046875 126.648438c1.507813 6.390624 2.585937 12.921874 3.203125 19.417968.277344 3.878906 3.464844 6.960938 7.410156 7.054688 19.898438.453125 38.53125 8.546875 52.476563 22.785156 13.964843 14.261719 21.65625 33.109375 21.65625 53.066406 0 41.851563-34.058594 75.902344-75.917969 75.902344h-266.257812c-4.199219 0-7.605469 3.402344-7.605469 7.601562 0 4.199219 3.40625 7.605469 7.605469 7.605469h266.257812c50.246094 0 91.121094-40.871093 91.121094-91.109375 0-23.960937-9.230469-46.585937-25.996094-63.707031-15.171875-15.492187-34.976562-24.925781-56.339844-26.957031-.691406-5.085938-1.632812-10.160156-2.808594-15.152344-6.109374-25.894531-18.78125-50.097656-36.648437-70-2.804687-3.125-7.609375-3.382812-10.738281-.578125-3.125 2.804687-3.382813 7.613281-.578125 10.738281 16.167969 18.007813 27.636719 39.910156 33.160156 63.332032zm0 0"/><path d="m211.640625 453.757812c-2.097656-3.636718-6.75-4.882812-10.386719-2.78125l-15.59375 9v-18.003906c0-4.199218-3.402344-7.605468-7.601562-7.605468-4.199219 0-7.605469 3.40625-7.605469 7.605468v18.003906l-15.589844-9c-3.640625-2.101562-8.289062-.855468-10.386719 2.78125-2.101562 3.636719-.855468 8.289063 2.78125 10.386719l15.59375 9.003907-15.59375 9c-3.636718 2.101562-4.882812 6.75-2.78125 10.386718 1.40625 2.441406 3.960938 3.804688 6.589844 3.804688 1.289063 0 2.597656-.328125 3.796875-1.019532l15.589844-9.003906v18.003906c0 4.199219 3.40625 7.605469 7.605469 7.605469 4.199218 0 7.601562-3.40625 7.601562-7.605469v-18.003906l15.59375 9.003906c1.199219.691407 2.503906 1.019532 3.796875 1.019532 2.625 0 5.183594-1.367188 6.589844-3.804688 2.101563-3.636718.855469-8.285156-2.78125-10.386718l-15.59375-9 15.59375-9.003907c3.636719-2.097656 4.882813-6.75 2.78125-10.386719zm0 0"/><path d="m510.980469 453.757812c-2.101563-3.636718-6.75-4.882812-10.386719-2.78125l-15.59375 9v-18.003906c0-4.199218-3.402344-7.605468-7.601562-7.605468-4.199219 0-7.605469 3.40625-7.605469 7.605468v18.003906l-15.59375-9c-3.636719-2.101562-8.285157-.855468-10.386719 2.78125-2.097656 3.636719-.851562 8.289063 2.785156 10.386719l15.589844 9.003907-15.589844 9c-3.636718 2.101562-4.882812 6.75-2.785156 10.386718 1.410156 2.441406 3.964844 3.804688 6.59375 3.804688 1.289062 0 2.597656-.328125 3.792969-1.019532l15.59375-9.003906v18.003906c0 4.199219 3.40625 7.605469 7.605469 7.605469 4.199218 0 7.601562-3.40625 7.601562-7.605469v-18.003906l15.59375 9.003906c1.195312.691407 2.503906 1.019532 3.792969 1.019532 2.628906 0 5.183593-1.367188 6.59375-3.804688 2.097656-3.636718.851562-8.285156-2.785157-10.386718l-15.589843-9 15.589843-9.003907c3.636719-2.097656 4.882813-6.75 2.785157-10.386719zm0 0"/><path d="m417.4375 351.71875c-2.355469-1.363281-5.257812-1.363281-7.617188 0-15.160156 8.773438-24.578124 25.089844-24.578124 42.578125 0 .648437.011718 1.292969.039062 1.933594.683594 17.664062 14.78125 26.90625 28.347656 26.90625 13.570313 0 27.667969-9.242188 28.351563-26.902344.027343-.644531.039062-1.289063.039062-1.9375 0-17.488281-9.417969-33.804687-24.582031-42.578125zm9.347656 43.921875c-.351562 9.070313-7.308594 12.285156-13.15625 12.285156s-12.800781-3.214843-13.152344-12.289062c-.015624-.445313-.027343-.890625-.027343-1.34375 0-10.535157 4.957031-20.460938 13.179687-26.847657 8.226563 6.386719 13.179688 16.3125 13.179688 26.847657 0 .453125-.007813.898437-.023438 1.347656zm0 0"/><path d="m102.175781 351.71875c-2.355469-1.363281-5.261719-1.363281-7.617187 0-15.160156 8.773438-24.578125 25.089844-24.578125 42.578125 0 .648437.011719 1.292969.035156 1.933594.6875 17.664062 14.78125 26.90625 28.351563 26.90625 13.570312 0 27.664062-9.242188 28.351562-26.902344.023438-.644531.035156-1.289063.035156-1.9375 0-17.488281-9.414062-33.804687-24.578125-42.578125zm9.347657 43.921875c-.355469 9.070313-7.308594 12.285156-13.15625 12.285156-5.847657 0-12.800782-3.214843-13.152344-12.289062-.019532-.445313-.027344-.890625-.027344-1.34375 0-10.535157 4.957031-20.460938 13.179688-26.847657 8.226562 6.386719 13.183593 16.3125 13.183593 26.847657-.003906.453125-.011719.898437-.027343 1.347656zm0 0"/><path d="m289.582031 367.527344c-2.097656-3.636719-6.75-4.882813-10.386719-2.785156l-15.59375 9.003906v-18.003906c0-4.199219-3.402343-7.605469-7.601562-7.605469s-7.605469 3.40625-7.605469 7.605469v18.003906l-15.589843-9.003906c-3.640626-2.097657-8.289063-.851563-10.386719 2.785156-2.101563 3.636718-.855469 8.285156 2.78125 10.386718l15.59375 9.003907-15.59375 9c-3.636719 2.101562-4.882813 6.75-2.78125 10.386719 1.40625 2.441406 3.960937 3.804687 6.589843 3.804687 1.289063 0 2.597657-.328125 3.796876-1.019531l15.589843-9.003906v18.003906c0 4.199218 3.40625 7.605468 7.605469 7.605468s7.601562-3.40625 7.601562-7.605468v-18.003906l15.59375 9.003906c1.199219.691406 2.503907 1.019531 3.796876 1.019531 2.625 0 5.183593-1.363281 6.589843-3.804687 2.101563-3.636719.855469-8.285157-2.78125-10.386719l-15.59375-9 15.59375-9.003907c3.636719-2.101562 4.882813-6.75 2.78125-10.386718zm0 0"/></svg>