<svg height="511pt" viewBox="0 -1 511.99696 511" width="511pt" xmlns="http://www.w3.org/2000/svg"><path d="m504.394531 229.472656c0 46.121094-37.382812 83.503906-83.519531 83.503906h-302.222656c-61.324219 0-111.046875-49.703124-111.046875-111.042968 0-61.324219 49.722656-111.046875 111.042969-111.046875 5.503906 0 10.910156.421875 16.210937 1.191406 25.078125-49.800781 76.652344-83.976563 136.234375-83.976563 72.09375 0 132.492188 50.054688 148.355469 117.304688 1.582031 6.707031 2.726562 13.589844 3.386719 20.597656v.011719c45.207031 1.035156 81.558593 38 81.558593 83.457031zm0 0" fill="#d3ddea"/><path d="m324.078125 17.578125c-16.507813-6.128906-34.363281-9.46875-52.984375-9.46875-59.582031 0-111.140625 34.171875-136.238281 83.957031v.015625c-5.296875-.769531-10.703125-1.191406-16.207031-1.191406-61.339844 0-111.046876 49.722656-111.046876 111.046875 0 61.339844 49.710938 111.046875 111.046876 111.046875h53.671874c-55.269531 0-100.054687-44.800781-100.054687-100.058594 0-49.03125 35.269531-89.835937 81.839844-98.394531 4.609375-.859375 9.328125-1.394531 14.140625-1.582031 1.347656-.046875 2.710937-.078125 4.074218-.078125 17.964844 0 34.832032 4.734375 49.394532 13.042968-2.023438-14.097656-16.59375-27.304687-38.082032-37.945312 11.796876-39.902344 51.953126-76.910156 140.445313-70.390625zm0 0" fill="#97b0cc"/><path d="m107.726562 376.0625c0 12.984375-8.128906 24.066406-19.585937 28.425781-3.367187 1.289063-7.015625 1.988281-10.828125 1.988281-16.800781 0-30.425781-13.617187-30.425781-30.414062 0-16.800781 13.625-30.417969 30.425781-30.417969 3.8125 0 7.460938.699219 10.828125 1.988281 11.457031 4.359376 19.585937 15.441407 19.585937 28.429688zm0 0" fill="#97b0cc"/><path d="m107.726562 376.0625c0 12.984375-8.128906 24.066406-19.585937 28.425781-11.457031-4.359375-19.597656-15.441406-19.597656-28.425781 0-12.988281 8.140625-24.070312 19.597656-28.429688 11.457031 4.359376 19.585937 15.441407 19.585937 28.429688zm0 0" fill="#d3ddea"/><path d="m226.855469 376.0625c0 12.984375-8.128907 24.066406-19.585938 28.425781-3.367187 1.289063-7.015625 1.988281-10.828125 1.988281-16.800781 0-30.425781-13.617187-30.425781-30.414062 0-16.800781 13.625-30.417969 30.425781-30.417969 3.8125 0 7.460938.699219 10.828125 1.988281 11.457031 4.359376 19.585938 15.441407 19.585938 28.429688zm0 0" fill="#97b0cc"/><path d="m226.855469 376.0625c0 12.984375-8.128907 24.066406-19.585938 28.425781-11.457031-4.359375-19.597656-15.441406-19.597656-28.425781 0-12.988281 8.140625-24.070312 19.597656-28.429688 11.457031 4.359376 19.585938 15.441407 19.585938 28.429688zm0 0" fill="#d3ddea"/><path d="m345.984375 376.0625c0 12.984375-8.128906 24.066406-19.585937 28.425781-3.367188 1.289063-7.015626 1.988281-10.828126 1.988281-16.800781 0-30.425781-13.617187-30.425781-30.414062 0-16.800781 13.625-30.417969 30.425781-30.417969 3.8125 0 7.460938.699219 10.828126 1.988281 11.457031 4.359376 19.585937 15.441407 19.585937 28.429688zm0 0" fill="#97b0cc"/><path d="m345.984375 376.0625c0 12.984375-8.128906 24.066406-19.585937 28.425781-11.457032-4.359375-19.597657-15.441406-19.597657-28.425781 0-12.988281 8.140625-24.070312 19.597657-28.429688 11.457031 4.359376 19.585937 15.441407 19.585937 28.429688zm0 0" fill="#d3ddea"/><path d="m465.113281 376.0625c0 12.984375-8.128906 24.066406-19.585937 28.425781-3.367188 1.289063-7.015625 1.988281-10.828125 1.988281-16.800781 0-30.425781-13.617187-30.425781-30.414062 0-16.800781 13.625-30.417969 30.425781-30.417969 3.8125 0 7.460937.699219 10.828125 1.988281 11.453125 4.359376 19.585937 15.441407 19.585937 28.429688zm0 0" fill="#97b0cc"/><path d="m465.113281 376.0625c0 12.984375-8.128906 24.066406-19.585937 28.425781-11.457032-4.359375-19.597656-15.441406-19.597656-28.425781 0-12.988281 8.140624-24.070312 19.597656-28.429688 11.453125 4.359376 19.585937 15.441407 19.585937 28.429688zm0 0" fill="#d3ddea"/><path d="m167.292969 470.539062c0 12.988282-8.132813 24.070313-19.589844 28.429688-3.367187 1.289062-7.015625 1.988281-10.828125 1.988281-16.800781 0-30.425781-13.617187-30.425781-30.417969 0-16.800781 13.625-30.414062 30.425781-30.414062 3.8125 0 7.460938.699219 10.828125 1.984375 11.457031 4.359375 19.589844 15.441406 19.589844 28.429687zm0 0" fill="#97b0cc"/><path d="m167.292969 470.539062c0 12.988282-8.132813 24.070313-19.589844 28.429688-11.457031-4.359375-19.597656-15.441406-19.597656-28.429688 0-12.988281 8.140625-24.070312 19.597656-28.429687 11.457031 4.359375 19.589844 15.441406 19.589844 28.429687zm0 0" fill="#d3ddea"/><path d="m286.421875 470.539062c0 12.988282-8.132813 24.070313-19.589844 28.429688-3.367187 1.289062-7.015625 1.988281-10.828125 1.988281-16.800781 0-30.425781-13.617187-30.425781-30.417969 0-16.800781 13.625-30.414062 30.425781-30.414062 3.8125 0 7.460938.699219 10.828125 1.984375 11.457031 4.359375 19.589844 15.441406 19.589844 28.429687zm0 0" fill="#97b0cc"/><path d="m286.421875 470.539062c0 12.988282-8.132813 24.070313-19.589844 28.429688-11.457031-4.359375-19.597656-15.441406-19.597656-28.429688 0-12.988281 8.140625-24.070312 19.597656-28.429687 11.457031 4.359375 19.589844 15.441406 19.589844 28.429687zm0 0" fill="#d3ddea"/><path d="m405.550781 470.539062c0 12.988282-8.132812 24.070313-19.589843 28.429688-3.367188 1.289062-7.015626 1.988281-10.828126 1.988281-16.800781 0-30.425781-13.617187-30.425781-30.417969 0-16.800781 13.625-30.414062 30.425781-30.414062 3.8125 0 7.460938.699219 10.828126 1.984375 11.457031 4.359375 19.589843 15.441406 19.589843 28.429687zm0 0" fill="#97b0cc"/><path d="m405.550781 470.539062c0 12.988282-8.132812 24.070313-19.589843 28.429688-11.457032-4.359375-19.597657-15.441406-19.597657-28.429688 0-12.988281 8.140625-24.070312 19.597657-28.429687 11.457031 4.359375 19.589843 15.441406 19.589843 28.429687zm0 0" fill="#d3ddea"/><path d="m420.875 320.582031h-302.226562c-65.421876 0-118.648438-53.226562-118.648438-118.648437 0-18.746094 4.25-36.679688 12.625-53.3125 1.890625-3.75 6.464844-5.257813 10.214844-3.371094 3.75 1.890625 5.257812 6.464844 3.371094 10.214844-7.300782 14.488281-11.003907 30.121094-11.003907 46.46875 0 57.039062 46.40625 103.441406 103.441407 103.441406h302.226562c41.863281 0 75.917969-34.050781 75.917969-75.902344 0-19.957031-7.691407-38.804687-21.65625-53.066406-13.945313-14.238281-32.582031-22.332031-52.476563-22.785156-3.945312-.089844-7.132812-3.175782-7.410156-7.054688-.617188-6.496094-1.691406-13.027344-3.199219-19.414062-7.363281-31.207032-25.277343-59.503906-50.449219-79.683594-25.917968-20.777344-57.214843-31.761719-90.507812-31.761719-27.351562 0-53.976562 7.65625-77.007812 22.144531-22.410157 14.097657-40.542969 34.03125-52.4375 57.644532-1.46875 2.921875-4.644532 4.574218-7.882813 4.105468-5.09375-.738281-10.179687-1.109374-15.117187-1.109374-29.65625 0-57.929688 12.761718-77.578126 35.015624-2.777343 3.148438-7.582031 3.449219-10.730468.667969-3.148438-2.777343-3.449219-7.582031-.667969-10.730469 22.53125-25.523437 54.960937-40.164062 88.976563-40.164062 3.917968 0 7.90625.203125 11.917968.609375 13.117188-24.003906 32.1875-44.296875 55.421875-58.914063 25.457031-16.011718 54.886719-24.476562 85.105469-24.476562 36.261719 0 71.78125 12.464844 100.019531 35.101562 27.804688 22.292969 47.597657 53.5625 55.734375 88.054688 1.179688 4.996094 2.117188 10.066406 2.808594 15.152344 21.367188 2.03125 41.171875 11.464844 56.34375 26.957031 16.765625 17.121094 25.996094 39.746094 25.996094 63.707031.003906 50.238282-40.875 91.109375-91.121094 91.109375zm0 0"/><path d="m77.308594 414.082031c-20.96875 0-38.023438-17.054687-38.023438-38.023437 0-20.964844 17.054688-38.023438 38.023438-38.023438 20.964844 0 38.019531 17.058594 38.019531 38.023438 0 20.96875-17.054687 38.023437-38.019531 38.023437zm0-60.835937c-12.582032 0-22.816406 10.234375-22.816406 22.8125 0 12.582031 10.234374 22.816406 22.816406 22.816406 12.578125 0 22.8125-10.234375 22.8125-22.816406 0-12.578125-10.234375-22.8125-22.8125-22.8125zm0 0"/><path d="m196.4375 414.082031c-20.96875 0-38.023438-17.054687-38.023438-38.023437 0-20.964844 17.054688-38.023438 38.023438-38.023438 20.964844 0 38.019531 17.058594 38.019531 38.023438 0 20.96875-17.054687 38.023437-38.019531 38.023437zm0-60.835937c-12.582031 0-22.816406 10.234375-22.816406 22.8125 0 12.582031 10.234375 22.816406 22.816406 22.816406 12.578125 0 22.8125-10.234375 22.8125-22.816406 0-12.578125-10.234375-22.8125-22.8125-22.8125zm0 0"/><path d="m315.566406 414.082031c-20.96875 0-38.023437-17.054687-38.023437-38.023437 0-20.964844 17.054687-38.023438 38.023437-38.023438 20.964844 0 38.023438 17.058594 38.023438 38.023438 0 20.96875-17.058594 38.023437-38.023438 38.023437zm0-60.835937c-12.582031 0-22.816406 10.234375-22.816406 22.8125 0 12.582031 10.234375 22.816406 22.816406 22.816406 12.578125 0 22.8125-10.234375 22.8125-22.816406 0-12.578125-10.234375-22.8125-22.8125-22.8125zm0 0"/><path d="m434.691406 414.082031c-20.964844 0-38.019531-17.054687-38.019531-38.023437 0-20.964844 17.054687-38.023438 38.019531-38.023438 20.96875 0 38.023438 17.058594 38.023438 38.023438 0 4.199218-3.402344 7.605468-7.601563 7.605468s-7.605469-3.40625-7.605469-7.605468c0-12.578125-10.234374-22.8125-22.816406-22.8125-12.578125 0-22.8125 10.234375-22.8125 22.8125 0 12.582031 10.234375 22.816406 22.8125 22.816406 5.316406 0 10.296875-1.769531 14.40625-5.121094 3.253906-2.65625 8.046875-2.167968 10.699219 1.085938 2.652344 3.257812 2.164063 8.046875-1.089844 10.699218-6.753906 5.511719-15.285156 8.542969-24.015625 8.542969zm0 0"/><path d="m136.871094 508.5625c-20.964844 0-38.023438-17.058594-38.023438-38.023438 0-20.964843 17.058594-38.023437 38.023438-38.023437 20.96875 0 38.023437 17.058594 38.023437 38.023437 0 20.964844-17.058593 38.023438-38.023437 38.023438zm0-60.839844c-12.578125 0-22.816406 10.234375-22.816406 22.816406 0 12.578126 10.238281 22.816407 22.816406 22.816407 12.582031 0 22.816406-10.238281 22.816406-22.816407 0-12.582031-10.234375-22.816406-22.816406-22.816406zm0 0"/><path d="m256 508.5625c-20.964844 0-38.023438-17.058594-38.023438-38.023438 0-20.964843 17.058594-38.023437 38.023438-38.023437s38.023438 17.058594 38.023438 38.023437c0 20.964844-17.058594 38.023438-38.023438 38.023438zm0-60.839844c-12.578125 0-22.816406 10.234375-22.816406 22.816406 0 12.578126 10.238281 22.816407 22.816406 22.816407 12.582031 0 22.816406-10.238281 22.816406-22.816407 0-12.582031-10.234375-22.816406-22.816406-22.816406zm0 0"/><path d="m375.128906 508.5625c-20.964844 0-38.023437-17.058594-38.023437-38.023438 0-20.964843 17.058593-38.023437 38.023437-38.023437 20.96875 0 38.023438 17.058594 38.023438 38.023437 0 20.964844-17.058594 38.023438-38.023438 38.023438zm0-60.839844c-12.578125 0-22.8125 10.234375-22.8125 22.816406 0 12.578126 10.234375 22.816407 22.8125 22.816407 12.582032 0 22.816406-10.238281 22.816406-22.816407 0-12.582031-10.234374-22.816406-22.816406-22.816406zm0 0"/></svg>