<svg height="511pt" viewBox="0 -1 511.99798 511" width="511pt" xmlns="http://www.w3.org/2000/svg"><path d="m403.589844 184.546875c0 36.761719-29.804688 66.5625-66.578125 66.5625h-240.917969c-48.878906 0-88.515625-39.625-88.515625-88.519531 0-48.882813 39.632813-88.519532 88.515625-88.519532 4.386719 0 8.699219.339844 12.921875.953126 19.992187-39.699219 61.105469-66.941407 108.601563-66.941407 57.464843 0 105.609374 39.898438 118.257812 93.503907 1.261719 5.347656 2.171875 10.832031 2.699219 16.417968v.011719c36.035156.828125 65.015625 30.292969 65.015625 66.53125zm0 0" fill="#84abc1"/><path d="m259.847656 15.632812c-13.15625-4.882812-27.390625-7.546874-42.234375-7.546874-47.496093 0-88.59375 27.242187-108.597656 66.925781v.015625c-4.222656-.613282-8.535156-.953125-12.921875-.953125-48.894531 0-88.515625 39.636719-88.515625 88.519531 0 48.894531 39.621094 88.519531 88.515625 88.519531h42.785156c-44.058594 0-79.757812-35.710937-79.757812-79.757812 0-39.085938 28.113281-71.613281 65.238281-78.4375 3.675781-.683594 7.433594-1.109375 11.269531-1.261719 1.074219-.035156 2.164063-.0625 3.25-.0625 14.320313 0 27.765625 3.773438 39.375 10.398438-1.613281-11.238282-13.230468-21.765626-30.359375-30.246094 9.40625-31.808594 41.414063-61.308594 111.953125-56.113282zm0 0" fill="#4d87a1"/><path d="m264.066406 258.351562c.480469.082032.765625.082032.808594.082032h-3.683594c.960938 0 1.917969-.03125 2.875-.082032zm0 0" fill="#97b0cc"/><path d="m504.417969 312.878906c0 29.734375-24.101563 53.835938-53.839844 53.835938h-194.839844c-39.535156 0-71.589843-32.046875-71.589843-71.589844 0-39.535156 32.054687-71.589844 71.589843-71.589844 3.546875 0 7.035157.273438 10.449219.769532 16.167969-32.105469 49.417969-54.136719 87.828125-54.136719 46.476563 0 85.414063 32.265625 95.640625 75.621093 1.019531 4.324219 1.757812 8.761719 2.183594 13.277344v.011719c29.144531.667969 52.578125 24.496094 52.578125 53.800781zm0 0" fill="#d3ddea"/><path d="m388.171875 176.277344c-10.640625-3.953125-22.152344-6.105469-34.15625-6.105469-38.414063 0-71.648437 22.03125-87.828125 54.125v.011719c-3.417969-.496094-6.902344-.769532-10.449219-.769532-39.542969 0-71.589843 32.054688-71.589843 71.589844 0 39.542969 32.046874 71.589844 71.589843 71.589844h34.601563c-35.632813 0-64.503906-28.882812-64.503906-64.503906 0-31.613282 22.738281-57.917969 52.761718-63.433594 2.96875-.558594 6.011719-.902344 9.113282-1.023438.871093-.027343 1.75-.050781 2.628906-.050781 11.582031 0 22.453125 3.054688 31.84375 8.410157-1.304688-9.089844-10.699219-17.601563-24.554688-24.460938 7.609375-25.726562 33.496094-49.582031 90.542969-45.378906zm0 0" fill="#97b0cc"/><path d="m494.476562 269.9375c-9.730468-9.9375-22.285156-16.171875-35.886718-17.9375-.414063-2.667969-.9375-5.324219-1.554688-7.953125-1.578125-6.679687-3.820312-13.234375-6.667968-19.480469-1.738282-3.808594-6.234376-5.488281-10.042969-3.75-3.808594 1.738282-5.488281 6.234375-3.75 10.042969 2.4375 5.34375 4.355469 10.953125 5.703125 16.671875.945312 3.992188 1.617187 8.070312 2.003906 12.121094.289062 3.855468 3.460938 6.914062 7.382812 7.003906 12.125.277344 23.480469 5.210938 31.980469 13.886719 8.507813 8.691406 13.195313 20.175781 13.195313 32.339843 0 25.503907-20.753906 46.253907-46.261719 46.253907h-194.839844c-35.296875 0-64.007812-28.714844-64.007812-64.011719 0-35.292969 28.710937-64.007812 64.007812-64.007812 3.054688 0 6.207031.230468 9.363281.691406 3.226563.464844 6.390626-1.183594 7.855469-4.09375 15.519531-30.820313 46.582031-49.964844 81.058594-49.964844 26.453125 0 51.523437 11.511719 68.789063 31.59375 2.730468 3.171875 7.515624 3.53125 10.6875.804688 3.175781-2.730469 3.535156-7.515626.804687-10.6875-6.824219-7.941407-14.703125-14.730469-23.332031-20.242188-1.25-17.679688-8.71875-34.195312-21.304688-46.875-12.015625-12.105469-27.554687-19.589844-44.308594-21.460938-.542968-3.710937-1.242187-7.40625-2.101562-11.035156-6.5625-27.820312-22.527344-53.046875-44.953125-71.027344-22.777344-18.265624-51.429687-28.320312-80.679687-28.320312-47.289063 0-90.054688 25.300781-112.867188 66.390625-2.929688-.265625-5.824219-.402344-8.65625-.402344-52.984375 0-96.09375 43.113281-96.09375 96.105469 0 23.113281 8.324219 45.449219 23.4375 62.894531 1.5 1.726563 3.609375 2.613281 5.730469 2.613281 1.757812 0 3.527343-.609374 4.960937-1.851562 3.164063-2.738281 3.503906-7.527344.765625-10.6875-12.726562-14.691406-19.734375-33.503906-19.734375-52.96875 0-44.632812 36.304688-80.945312 80.933594-80.945312 3.828125 0 7.8125.292968 11.847656.871093 3.222656.464844 6.382813-1.183593 7.847656-4.09375 19.496094-38.714843 58.515626-62.769531 101.828126-62.769531 26.1875 0 50.808593 8.640625 71.195312 24.988281 19.800781 15.875 33.894531 38.136719 39.683594 62.6875 1.183594 5.003907 2.03125 10.136719 2.519531 15.261719.289063 3.851562 3.460937 6.914062 7.382813 7.003906 27.335937.625 49.832031 19.511719 55.949218 44.980469-12.644531-5.210937-26.320312-7.988281-40.332031-7.988281-38.457031 0-73.269531 20.410156-92.089844 53.617187-2.078125-.167969-4.148437-.25-6.1875-.25-23.953125 0-45.441406 10.710938-59.972656 27.574219h-99.671875c-15.246094 0-30.09375-4.257812-42.945312-12.316406-3.542969-2.226563-8.222657-1.15625-10.445313 2.390625-2.226563 3.546875-1.15625 8.226562 2.390625 10.449219 15.265625 9.574218 32.902344 14.636718 51 14.636718h89.394531c-5.683593 10.914063-8.917969 23.300782-8.917969 36.433594 0 43.65625 35.511719 79.167969 79.167969 79.167969h194.835938c33.871093 0 61.421875-27.546875 61.421875-61.410157.003906-16.152343-6.21875-31.40625-17.519532-42.945312zm0 0"/><path d="m109.070312 323.914062c-2.09375-3.625-6.730468-4.867187-10.355468-2.773437l-15.539063 8.972656v-17.945312c0-4.183594-3.394531-7.578125-7.582031-7.578125-4.183594 0-7.578125 3.394531-7.578125 7.578125v17.945312l-15.542969-8.972656c-3.625-2.09375-8.257812-.851563-10.351562 2.773437s-.851563 8.261719 2.773437 10.355469l15.542969 8.972657-15.542969 8.972656c-3.625 2.09375-4.867187 6.726562-2.773437 10.351562 1.402344 2.433594 3.949218 3.792969 6.570312 3.792969 1.285156 0 2.589844-.328125 3.78125-1.019531l15.542969-8.972656v17.945312c0 4.1875 3.394531 7.582031 7.578125 7.582031 4.1875 0 7.582031-3.394531 7.582031-7.582031v-17.945312l15.539063 8.972656c1.195312.691406 2.496094 1.019531 3.785156 1.019531 2.617188 0 5.164062-1.363281 6.570312-3.792969 2.089844-3.625.847657-8.257812-2.773437-10.351562l-15.542969-8.972656 15.542969-8.972657c3.621094-2.09375 4.863281-6.726562 2.773437-10.355469zm0 0"/><path d="m109.070312 452c-2.09375-3.625-6.730468-4.867188-10.355468-2.773438l-15.539063 8.972657v-17.945313c0-4.1875-3.394531-7.578125-7.582031-7.578125-4.183594 0-7.578125 3.390625-7.578125 7.578125v17.945313l-15.542969-8.972657c-3.625-2.09375-8.257812-.851562-10.351562 2.773438s-.851563 8.261719 2.773437 10.351562l15.542969 8.976563-15.542969 8.972656c-3.625 2.089844-4.867187 6.726563-2.773437 10.351563 1.402344 2.429687 3.949218 3.789062 6.570312 3.789062 1.285156 0 2.589844-.324218 3.78125-1.015625l15.542969-8.972656v17.945313c0 4.1875 3.394531 7.582031 7.578125 7.582031 4.1875 0 7.582031-3.394531 7.582031-7.582031v-17.941407l15.539063 8.972657c1.195312.6875 2.496094 1.015624 3.785156 1.015624 2.617188 0 5.164062-1.359374 6.570312-3.789062 2.089844-3.625.847657-8.261719-2.773437-10.355469l-15.542969-8.972656 15.542969-8.972656c3.621094-2.09375 4.863281-6.730469 2.773437-10.355469zm0 0"/><path d="m230.191406 416.628906c-2.09375-3.625-6.730468-4.867187-10.355468-2.773437l-15.539063 8.972656v-17.945313c0-4.1875-3.394531-7.582031-7.582031-7.582031-4.183594 0-7.578125 3.394531-7.578125 7.582031v17.945313l-15.542969-8.972656c-3.625-2.09375-8.257812-.851563-10.351562 2.773437s-.851563 8.257813 2.773437 10.351563l15.542969 8.972656-15.542969 8.972656c-3.625 2.09375-4.867187 6.730469-2.773437 10.355469 1.402343 2.429688 3.949218 3.789062 6.570312 3.789062 1.285156 0 2.589844-.328124 3.78125-1.015624l15.542969-8.972657v17.945313c0 4.1875 3.394531 7.582031 7.578125 7.582031 4.1875 0 7.582031-3.394531 7.582031-7.582031v-17.945313l15.539063 8.972657c1.195312.691406 2.496093 1.015624 3.785156 1.015624 2.617187 0 5.164062-1.359374 6.570312-3.789062 2.089844-3.625.847656-8.261719-2.777344-10.351562l-15.539062-8.972657 15.539062-8.976562c3.628907-2.089844 4.871094-6.726563 2.777344-10.351563zm0 0"/><path d="m351.3125 452c-2.09375-3.625-6.730469-4.867188-10.355469-2.773438l-15.539062 8.972657v-17.945313c0-4.1875-3.394531-7.578125-7.582031-7.578125-4.183594 0-7.578126 3.390625-7.578126 7.578125v17.945313l-15.539062-8.972657c-3.628906-2.09375-8.261719-.851562-10.355469 2.773438s-.851562 8.261719 2.773438 10.351562l15.542969 8.976563-15.542969 8.972656c-3.625 2.089844-4.867188 6.726563-2.773438 10.351563 1.402344 2.429687 3.953125 3.789062 6.570313 3.789062 1.285156 0 2.589844-.324218 3.785156-1.015625l15.539062-8.972656v17.945313c0 4.1875 3.394532 7.582031 7.578126 7.582031 4.1875 0 7.582031-3.394531 7.582031-7.582031v-17.941407l15.539062 8.972657c1.195313.6875 2.5 1.015624 3.785157 1.015624 2.617187 0 5.167968-1.359374 6.570312-3.789062 2.09375-3.625.851562-8.261719-2.773438-10.355469l-15.542968-8.972656 15.542968-8.972656c3.625-2.09375 4.867188-6.730469 2.773438-10.355469zm0 0"/><path d="m472.433594 416.628906c-2.09375-3.625-6.730469-4.867187-10.355469-2.773437l-15.539063 8.972656v-17.945313c0-4.1875-3.394531-7.582031-7.582031-7.582031-4.183593 0-7.578125 3.394531-7.578125 7.582031v17.945313l-15.539062-8.972656c-3.628906-2.09375-8.261719-.851563-10.355469 2.773437s-.851563 8.257813 2.773437 10.351563l15.542969 8.972656-15.542969 8.972656c-3.625 2.09375-4.867187 6.730469-2.773437 10.355469 1.402344 2.429688 3.953125 3.789062 6.570313 3.789062 1.285156 0 2.589843-.328124 3.785156-1.015624l15.539062-8.972657v17.945313c0 4.1875 3.394532 7.578125 7.578125 7.578125 4.1875 0 7.582031-3.390625 7.582031-7.578125v-17.945313l15.539063 8.972657c1.195313.6875 2.5 1.015624 3.785156 1.015624 2.617188 0 5.167969-1.359374 6.570313-3.789062 2.09375-3.625.851562-8.261719-2.773438-10.355469l-15.542968-8.972656 15.542968-8.972656c3.625-2.089844 4.867188-6.726563 2.773438-10.351563zm0 0"/></svg>