<svg height="512pt" viewBox="0 -1 512.00082 512" width="512pt" xmlns="http://www.w3.org/2000/svg"><path d="m480.925781 181.445312c0-14.773437 26.761719-32.859374 23.121094-46.480468-3.769531-14.09375-36.09375-16.363282-43.234375-28.703125-7.242188-12.519531 6.875-41.632813-3.285156-51.789063-10.15625-10.160156-39.269532 3.957032-51.789063-3.285156-12.339843-7.136719-14.609375-39.464844-28.703125-43.230469-13.621094-3.640625-31.707031 23.117188-46.476562 23.117188-14.769532 0-32.855469-26.757813-46.480469-23.117188-14.09375 3.765625-16.363281 36.09375-28.703125 43.234375-12.519531 7.242188-41.628906-6.878906-51.789062 3.28125-10.160157 10.160156 3.960937 39.269532-3.28125 51.789063-7.140626 12.339843-39.46875 14.609375-43.234376 28.703125-3.640624 13.621094 23.121094 31.707031 23.121094 46.480468 0 14.769532-26.761718 32.855469-23.121094 46.476563 3.765626 14.09375 36.09375 16.363281 43.234376 28.707031 7.242187 12.515625-6.875 41.628906 3.28125 51.785156 10.160156 10.160157 39.269531-3.957031 51.789062 3.285157 12.339844 7.136719 14.609375 39.464843 28.703125 43.230469 13.625 3.640624 31.710937-23.117188 46.480469-23.117188 14.769531 0 32.855468 26.761719 46.476562 23.117188 14.09375-3.765626 16.367188-36.09375 28.707032-43.230469 12.515624-7.246094 41.628906 6.875 51.789062-3.285157 10.15625-10.160156-3.960938-39.269531 3.28125-51.789062 7.140625-12.339844 39.464844-14.609375 43.234375-28.703125 3.640625-13.621094-23.121094-31.710937-23.121094-46.476563zm0 0" fill="#ffee8c"/><path d="m446.640625 181.441406c0 58.632813-43.46875 107.113282-99.945313 114.96875-5.273437.738282-10.65625 1.113282-16.132812 1.113282-64.113281 0-116.089844-51.972657-116.089844-116.082032s51.976563-116.082031 116.089844-116.082031c5.476562 0 10.859375.375 16.132812 1.113281 56.476563 7.855469 99.945313 56.335938 99.945313 114.96875zm0 0" fill="#f28f44"/><path d="m446.640625 181.441406c0 58.632813-43.46875 107.113282-99.945313 114.96875-56.476562-7.855468-99.949218-56.335937-99.949218-114.96875 0-58.632812 43.472656-107.113281 99.949218-114.964844 56.476563 7.851563 99.945313 56.332032 99.945313 114.964844zm0 0" fill="#ffd073"/><path d="m328.726562 256.894531c0 29.8125-24.167968 53.976563-53.988281 53.976563h-195.355469c-39.636718 0-71.777343-32.128906-71.777343-71.777344 0-39.640625 32.140625-71.78125 71.777343-71.78125 3.558594 0 7.054688.273438 10.476563.769531 16.214844-32.1875 49.550781-54.277343 88.0625-54.277343 46.601563 0 85.640625 32.351562 95.894531 75.820312 1.023438 4.335938 1.761719 8.785156 2.1875 13.316406v.007813c29.222656.667969 52.722656 24.5625 52.722656 53.945312zm0 0" fill="#d3ddea"/><path d="m212.167969 119.925781c-10.667969-3.960937-22.210938-6.117187-34.246094-6.117187-38.515625 0-71.839844 22.085937-88.0625 54.269531v.007813c-3.425781-.496094-6.921875-.769532-10.476563-.769532-39.648437 0-71.78125 32.140625-71.78125 71.78125 0 39.648438 32.132813 71.777344 71.78125 71.777344h34.691407c-35.726563 0-64.675781-28.960938-64.675781-64.675781 0-31.695313 22.800781-58.070313 52.902343-63.601563 2.980469-.558594 6.03125-.902344 9.140625-1.023437.871094-.03125 1.753906-.050781 2.632813-.050781 11.613281 0 22.515625 3.058593 31.929687 8.429687-1.308594-9.113281-10.726562-17.648437-24.617187-24.527344 7.625-25.789062 33.582031-49.710937 90.78125-45.5zm0 0" fill="#97b0cc"/><path d="m456.128906 328.660156c0 29.808594-24.167968 53.972656-53.988281 53.972656h-195.355469c-39.636718 0-71.777344-32.128906-71.777344-71.777343 0-39.636719 32.140626-71.777344 71.777344-71.777344 3.558594 0 7.054688.273437 10.480469.769531 16.210937-32.191406 49.546875-54.28125 88.058594-54.28125 46.601562 0 85.640625 32.351563 95.894531 75.820313 1.023438 4.339843 1.765625 8.785156 2.191406 13.316406v.007813c29.21875.671874 52.71875 24.5625 52.71875 53.949218zm0 0" fill="#d3ddea"/><path d="m339.574219 191.691406c-10.671875-3.960937-22.210938-6.121094-34.25-6.121094-38.511719 0-71.839844 22.089844-88.0625 54.269532v.011718c-3.421875-.496093-6.917969-.769531-10.476563-.769531-39.648437 0-71.777344 32.140625-71.777344 71.777344 0 39.648437 32.128907 71.777344 71.777344 71.777344h34.695313c-35.726563 0-64.675781-28.957031-64.675781-64.675781 0-31.691407 22.796874-58.066407 52.902343-63.601563 2.976563-.554687 6.027344-.902344 9.136719-1.023437.871094-.03125 1.753906-.050782 2.636719-.050782 11.609375 0 22.511719 3.0625 31.925781 8.429688-1.304688-9.109375-10.726562-17.644532-24.617188-24.523438 7.628907-25.792968 33.582032-49.714844 90.785157-45.5zm0 0" fill="#97b0cc"/><path d="m106.453125 452.054688c-2.097656-3.636719-6.746094-4.882813-10.378906-2.78125l-15.582031 8.996093v-17.996093c0-4.195313-3.402344-7.597657-7.601563-7.597657-4.195313 0-7.597656 3.402344-7.597656 7.597657v17.996093l-15.582031-8.996093c-3.636719-2.101563-8.285157-.855469-10.382813 2.78125-2.097656 3.632812-.851563 8.28125 2.78125 10.378906l15.582031 8.996094-15.582031 8.996093c-3.632813 2.101563-4.878906 6.746094-2.78125 10.382813 1.40625 2.4375 3.960937 3.800781 6.589844 3.800781 1.289062 0 2.59375-.328125 3.792969-1.019531l15.582031-8.996094v17.992188c0 4.195312 3.402343 7.601562 7.597656 7.601562 4.199219 0 7.601563-3.40625 7.601563-7.601562v-17.992188l15.582031 8.996094c1.195312.691406 2.503906 1.019531 3.792969 1.019531 2.625 0 5.179687-1.363281 6.585937-3.800781 2.101563-3.636719.855469-8.28125-2.78125-10.382813l-15.582031-8.996093 15.582031-8.996094c3.632813-2.097656 4.882813-6.746094 2.78125-10.378906zm0 0"/><path d="m227.898438 416.585938c-2.097657-3.632813-6.75-4.878907-10.382813-2.78125l-15.582031 8.996093v-17.992187c0-4.195313-3.402344-7.597656-7.601563-7.597656-4.195312 0-7.597656 3.402343-7.597656 7.597656v17.992187l-15.582031-8.996093c-3.636719-2.097657-8.285156-.851563-10.382813 2.78125-2.097656 3.636718-.851562 8.285156 2.78125 10.382812l15.585938 8.996094-15.585938 8.996094c-3.632812 2.097656-4.878906 6.746093-2.78125 10.382812 1.410157 2.4375 3.964844 3.800781 6.589844 3.800781 1.289063 0 2.597656-.328125 3.792969-1.019531l15.582031-8.996094v17.992188c0 4.195312 3.402344 7.597656 7.597656 7.597656 4.199219 0 7.601563-3.402344 7.601563-7.597656v-17.992188l15.582031 8.996094c1.199219.691406 2.503906 1.019531 3.792969 1.019531 2.625 0 5.179687-1.367187 6.589844-3.800781 2.097656-3.636719.851562-8.285156-2.78125-10.382812l-15.585938-8.996094 15.585938-8.996094c3.632812-2.097656 4.878906-6.746094 2.78125-10.382812zm0 0"/><path d="m349.339844 452.054688c-2.097656-3.636719-6.746094-4.882813-10.378906-2.78125l-15.585938 8.996093v-17.996093c0-4.195313-3.398438-7.597657-7.597656-7.597657-4.199219 0-7.597656 3.402344-7.597656 7.597657v17.996093l-15.585938-8.996093c-3.636719-2.101563-8.28125-.855469-10.378906 2.78125-2.097656 3.632812-.855469 8.28125 2.78125 10.378906l15.582031 8.996094-15.582031 8.996093c-3.636719 2.101563-4.878906 6.746094-2.78125 10.382813 1.40625 2.4375 3.960937 3.800781 6.585937 3.800781 1.289063 0 2.597657-.328125 3.792969-1.019531l15.585938-8.996094v17.992188c0 4.195312 3.398437 7.601562 7.597656 7.601562 4.199218 0 7.597656-3.40625 7.597656-7.601562v-17.992188l15.585938 8.996094c1.195312.691406 2.503906 1.019531 3.792968 1.019531 2.625 0 5.179688-1.363281 6.585938-3.800781 2.097656-3.636719.855468-8.28125-2.78125-10.382813l-15.582032-8.996093 15.582032-8.996094c3.632812-2.097656 4.878906-6.746094 2.78125-10.378906zm0 0"/><path d="m470.78125 416.585938c-2.097656-3.632813-6.746094-4.878907-10.378906-2.78125l-15.582032 8.996093v-17.992187c0-4.195313-3.402343-7.597656-7.601562-7.597656-4.195312 0-7.597656 3.402343-7.597656 7.597656v17.992187l-15.582032-8.996093c-3.640624-2.097657-8.285156-.851563-10.382812 2.78125-2.097656 3.636718-.851562 8.285156 2.78125 10.382812l15.582031 8.996094-15.582031 8.996094c-3.632812 2.097656-4.878906 6.746093-2.78125 10.382812 1.40625 2.4375 3.960938 3.800781 6.589844 3.800781 1.289062 0 2.597656-.328125 3.792968-1.019531l15.582032-8.996094v17.992188c0 4.195312 3.402344 7.597656 7.597656 7.597656 4.199219 0 7.601562-3.402344 7.601562-7.597656v-17.992188l15.582032 8.996094c1.199218.691406 2.503906 1.019531 3.792968 1.019531 2.625 0 5.179688-1.367187 6.585938-3.800781 2.101562-3.636719.855469-8.285156-2.78125-10.382812l-15.582031-8.996094 15.582031-8.996094c3.636719-2.097656 4.882812-6.746094 2.78125-10.382812zm0 0"/><path d="m488.519531 181.4375c0-4.378906 5.484375-11.453125 10.320313-17.695312 7.59375-9.796876 15.441406-19.921876 12.546875-30.746094-2.996094-11.203125-15.132813-16.140625-26.867188-20.914063-6.738281-2.742187-15.125-6.152343-17.132812-9.617187-2.085938-3.613282-.847657-12.710938.148437-20.019532 1.6875-12.429687 3.433594-25.28125-4.636718-33.351562-8.0625-8.0625-20.90625-6.316406-33.328126-4.628906-7.3125.996094-16.414062 2.230468-20.03125.140625-3.476562-2.007813-6.886718-10.398438-9.632812-17.136719-4.773438-11.734375-9.710938-23.863281-20.90625-26.851562-10.820312-2.898438-20.941406 4.945312-30.734375 12.53125-6.242187 4.839843-13.320313 10.324218-17.710937 10.324218-4.382813 0-11.457032-5.480468-17.699219-10.316406-9.792969-7.589844-19.921875-15.4375-30.738281-12.539062-11.203126 2.988281-16.140626 15.117187-20.917969 26.851562-2.742188 6.738281-6.15625 15.125-9.636719 17.140625-3.609375 2.085937-12.707031.851563-20.015625-.144531-12.421875-1.6875-25.269531-3.433594-33.339844 4.632812-8.058593 8.066406-6.3125 20.910156-4.625 33.332032.992188 7.316406 2.230469 16.417968.136719 20.035156-.53125.925781-1.894531 2.367187-5.257812 4.265625-3.519532-.34375-7.054688-.527344-10.542969-.527344-13.441407 0-26.539063 2.480469-38.941407 7.371094-3.902343 1.539062-5.820312 5.953125-4.28125 9.859375 1.542969 3.90625 5.957032 5.820312 9.859376 4.277344 10.617187-4.1875 21.839843-6.308594 33.363281-6.308594 3.679687 0 7.429687.226562 11.136719.671875 35.675781 4.355469 65.488281 29.679687 75.863281 63.8125-21.636719 8.859375-39.992188 24.777343-51.929688 45.835937-2.085937-.164062-4.15625-.246094-6.203125-.246094-41.210937 0-75.175781 31.570313-79.007812 71.792969h-48.398438c-35.386718.003907-64.179687-28.789062-64.179687-64.175781 0-35.390625 28.792969-64.179688 64.179687-64.179688 3.0625 0 6.222656.230469 9.386719.691407 3.230469.464843 6.40625-1.183594 7.878906-4.105469 6-11.914062 14.742188-22.574219 25.277344-30.820312 3.308594-2.585938 3.890625-7.363282 1.300781-10.667969-2.585937-3.304688-7.363281-3.882813-10.667968-1.300781-10.882813 8.519531-20.128907 19.25-26.964844 31.25-2.089844-.164063-4.164063-.246094-6.210938-.246094-43.769531 0-79.378906 35.609375-79.378906 79.378906s35.609375 79.378906 79.378906 79.378906h48.402344c3.847656 40.207032 37.808594 71.761719 79.003906 71.761719h111.101563c4.195312 0 7.597656-3.402344 7.597656-7.601563 0-4.195312-3.402344-7.597656-7.597656-7.597656h-111.101563c-35.386718 0-64.179687-28.792968-64.179687-64.179687s28.792969-64.179688 64.179687-64.179688c3.066406 0 6.222656.230469 9.390625.691407 3.226563.464843 6.40625-1.183594 7.875-4.101563 15.5625-30.902344 46.707031-50.101563 81.273438-50.101563 20.902343 0 40.554687 6.898438 56.824219 19.941407 15.804687 12.671875 27.054687 30.4375 31.675781 50.027343.945312 4 1.621093 8.089844 2.007812 12.15625.289063 3.863282 3.46875 6.929688 7.402344 7.019532 12.15625.277344 23.542969 5.226562 32.0625 13.925781 8.535156 8.714844 13.234375 20.230469 13.234375 32.425781 0 25.570313-20.8125 46.375-46.386719 46.375h-53.859375c-4.199218 0-7.597656 3.402344-7.597656 7.597656 0 4.199219 3.398438 7.601563 7.597656 7.601563h53.855469c33.960937 0 61.585937-27.625 61.585937-61.574219 0-4.824218-.566406-9.566406-1.640624-14.152344.269531-.242187.554687-.46875.808593-.722656 8.074219-8.066406 6.324219-20.917968 4.636719-33.34375-.992188-7.308594-2.230469-16.40625-.148438-20.011718 2.011719-3.472657 10.398438-6.886719 17.136719-9.628907 11.734375-4.777343 23.871094-9.71875 26.863281-20.917969 2.898438-10.816406-4.949218-20.941406-12.535156-30.730468-4.839844-6.246094-10.328125-13.324219-10.328125-17.714844zm-116.863281 19.808594c-18.726562-15.011719-42.28125-23.277344-66.332031-23.277344-8.898438 0-17.597657 1.101562-25.957031 3.1875-7.125-23.199219-21.972657-42.894531-41.398438-56.265625 19.664062-32.199219 54.53125-51.929687 92.59375-51.929687 5.082031 0 10.15625.347656 15.085938 1.042968 25.679687 3.566406 49.292968 16.328125 66.488281 35.925782 17.351562 19.773437 26.90625 45.171874 26.90625 71.511718 0 28.714844-11.167969 55.75-31.011719 75.941406-5.707031-21.976562-18.546875-41.84375-36.375-56.136718zm125.046875 24.707031c-1.042969 3.902344-10.792969 7.871094-17.914063 10.769531-9.800781 3.992188-19.9375 8.117188-24.5625 16.097656-4.683593 8.113282-3.195312 19.070313-1.753906 29.667969.53125 3.910157 1.160156 8.5625 1.257813 12.523438-2.1875-3.34375-4.71875-6.496094-7.574219-9.410157-7.902344-8.074218-17.667969-13.707031-28.34375-16.5 23.292969-23.128906 36.429688-54.40625 36.429688-87.664062 0-30.027344-10.894532-58.984375-30.679688-81.535156-19.601562-22.335938-46.527344-36.882813-75.808594-40.953125-5.617187-.789063-11.402344-1.1875-17.1875-1.1875-43.480468 0-83.300781 22.585937-105.691406 59.421875-5.761719-2.855469-11.804688-5.207032-18.074219-6.984375.027344-.042969.054688-.085938.082031-.128907 4.691407-8.117187 3.203126-19.082031 1.761719-29.683593-1.023437-7.515625-2.421875-17.808594.3125-20.542969 2.738281-2.738281 13.03125-1.339844 20.542969-.316406 10.601562 1.441406 21.566406 2.933594 29.675781-1.761719 7.984375-4.613281 12.113281-14.757813 16.105469-24.566406 2.894531-7.113281 6.859375-16.859375 10.761719-17.898438 3.539062-.949219 11.613281 5.304688 17.503906 9.871094 8.570313 6.636719 17.425781 13.5 27.007813 13.5 9.589843 0 18.453124-6.867187 27.023437-13.507813 5.890625-4.5625 13.949219-10.816406 17.496094-9.863281 3.898437 1.039063 7.863281 10.78125 10.757812 17.898438 3.992188 9.808593 8.121094 19.949219 16.101563 24.5625 8.117187 4.695312 19.082031 3.207031 29.6875 1.765625 7.511718-1.023438 17.796875-2.421875 20.53125.3125 2.742187 2.742187 1.34375 13.039062.320312 20.558594-1.4375 10.597656-2.929687 21.554687 1.761719 29.675781 4.617187 7.976562 14.753906 12.097656 24.558594 16.085937 7.117187 2.898438 16.867187 6.863282 17.910156 10.765625.949219 3.542969-5.304687 11.613281-9.875 17.503907-6.640625 8.570312-13.503906 17.425781-13.503906 27.007812 0 9.589844 6.867187 18.453125 13.511719 27.023438 4.5625 5.890624 10.8125 13.957031 9.867187 17.492187zm0 0"/><path d="m326.753906 103.726562c-4.199218 0-7.597656 3.402344-7.597656 7.601563v6.6875c0 4.199219 3.398438 7.601563 7.597656 7.601563 4.199219 0 7.597656-3.402344 7.597656-7.601563v-6.6875c0-4.199219-3.398437-7.601563-7.597656-7.601563zm0 0"/><path d="m373.53125 103.726562c-4.199219 0-7.597656 3.402344-7.597656 7.601563v6.6875c0 4.199219 3.398437 7.601563 7.597656 7.601563s7.601562-3.402344 7.601562-7.601563v-6.6875c0-4.199219-3.402343-7.601563-7.601562-7.601563zm0 0"/><path d="m360.445312 147.210938h-16.210937c-4.199219 0-7.601563 3.402343-7.601563 7.597656 0 4.199218 3.402344 7.601562 7.601563 7.601562h16.210937c4.195313 0 7.597657-3.402344 7.597657-7.601562 0-4.195313-3.402344-7.597656-7.597657-7.597656zm0 0"/></svg>