<svg height="512pt" viewBox="-67 0 512 512" width="512pt" xmlns="http://www.w3.org/2000/svg"><path d="m189.96875 294.851562v-220.332031c0-36.957031-29.957031-66.914062-66.914062-66.914062-36.957032 0-66.914063 29.957031-66.914063 66.914062v220.332031c-29.378906 20.929688-48.535156 55.273438-48.535156 94.09375 0 63.761719 51.6875 115.449219 115.449219 115.449219 63.761718 0 115.453124-51.6875 115.453124-115.449219 0-38.820312-19.160156-73.164062-48.539062-94.09375zm0 0" fill="#d3ddea"/><path d="m197.949219 388.945312c0 41.296876-33.589844 74.894532-74.894531 74.894532-41.292969 0-74.894532-33.597656-74.894532-74.894532 0-24.179687 11.78125-47 31.511719-61.0625l17.023437-12.125v-241.238281c0-14.539062 11.820313-26.363281 26.359376-26.363281 14.539062 0 26.359374 11.824219 26.359374 26.363281v241.238281l17.023438 12.125c19.738281 14.0625 31.511719 36.882813 31.511719 61.0625zm0 0" fill="#84abc1"/><path d="m123.050781 463.839844c-41.292969 0-74.890625-33.597656-74.890625-74.894532 0-24.179687 11.78125-47 31.507813-61.0625l17.023437-12.125v-241.238281c0-14.539062 11.820313-26.363281 26.359375-26.363281-8.292969 0-9.976562 11.824219-9.976562 26.363281v241.238281s-32.765625 25.679688-32.765625 73.1875c0 41.296876 19.179687 74.894532 42.742187 74.894532zm0 0" fill="#4d87a1"/><path d="m149.414062 74.519531v146.175781h-52.71875v-146.175781c0-14.539062 11.820313-26.363281 26.359376-26.363281 14.539062 0 26.359374 11.824219 26.359374 26.363281zm0 0" fill="#fff"/><path d="m374.027344 209.855469-15.589844-9.003907 15.589844-9c3.636718-2.101562 4.882812-6.75 2.785156-10.386718-2.101562-3.636719-6.75-4.882813-10.386719-2.785156l-15.59375 9.003906v-18.003906c0-4.199219-3.402343-7.605469-7.601562-7.605469-4.203125 0-7.605469 3.40625-7.605469 7.605469v18.003906l-15.59375-9.003906c-3.636719-2.097657-8.289062-.851563-10.386719 2.785156-2.097656 3.636718-.851562 8.285156 2.785157 10.386718l15.589843 9-15.589843 9.003907c-3.636719 2.097656-4.882813 6.75-2.785157 10.386719 1.410157 2.4375 3.964844 3.804687 6.59375 3.804687 1.289063 0 2.597657-.332031 3.792969-1.023437l15.59375-9v18.003906c0 4.199218 3.402344 7.605468 7.605469 7.605468 4.199219 0 7.601562-3.40625 7.601562-7.605468v-18.003906l15.59375 9c1.195313.691406 2.503907 1.023437 3.792969 1.023437 2.628906 0 5.183594-1.367187 6.59375-3.804687 2.097656-3.636719.851562-8.289063-2.785156-10.386719zm0 0"/><path d="m336.664062 132.347656c1.199219.691406 2.507813 1.023438 3.796876 1.023438 2.625 0 5.183593-1.367188 6.589843-3.804688 2.101563-3.636718.855469-8.289062-2.78125-10.386718l-40.78125-23.542969 40.78125-23.546875c3.636719-2.097656 4.882813-6.75 2.78125-10.386719-2.097656-3.636719-6.75-4.882813-10.386719-2.78125l-40.777343 23.542969v-47.085938c0-4.199218-3.40625-7.605468-7.605469-7.605468s-7.605469 3.40625-7.605469 7.605468v47.085938l-40.777343-23.542969c-3.636719-2.101563-8.289063-.855469-10.386719 2.78125-2.101563 3.636719-.855469 8.289063 2.78125 10.386719l40.78125 23.546875-40.78125 23.542969c-3.636719 2.097656-4.882813 6.75-2.78125 10.386718 1.40625 2.4375 3.964843 3.804688 6.589843 3.804688 1.292969 0 2.597657-.332032 3.796876-1.023438l40.777343-23.542968v47.089843c0 4.199219 3.40625 7.601563 7.605469 7.601563s7.605469-3.402344 7.605469-7.601563v-47.089843zm0 0"/><path d="m197.574219 291.011719v-216.492188c0-41.089843-33.429688-74.519531-74.519531-74.519531-41.089844 0-74.515626 33.429688-74.515626 74.519531v71.242188c0 4.199219 3.402344 7.605469 7.601563 7.605469s7.605469-3.40625 7.605469-7.605469v-71.242188c0-32.703125 26.605468-59.3125 59.308594-59.3125 32.707031 0 59.3125 26.609375 59.3125 59.3125v220.332031c0 2.460938 1.1875 4.765626 3.191406 6.191407 28.394531 20.230469 45.34375 53.089843 45.34375 87.902343 0 59.464844-48.378906 107.847657-107.847656 107.847657-59.464844 0-107.847657-48.382813-107.847657-107.847657 0-34.8125 16.953125-67.671874 45.347657-87.902343 2-1.425781 3.191406-3.730469 3.191406-6.191407v-118.671874c0-4.199219-3.40625-7.605469-7.605469-7.605469s-7.601563 3.40625-7.601563 7.605469v114.832031c-30.464843 23.222656-48.539062 59.539062-48.539062 97.933593 0 67.851563 55.203125 123.054688 123.054688 123.054688 67.855468 0 123.058593-55.203125 123.058593-123.054688 0-38.398437-18.074219-74.710937-48.539062-97.933593zm0 0"/><path d="m157.019531 74.519531c0-18.730469-15.234375-33.964843-33.964843-33.964843-18.726563 0-33.964844 15.234374-33.964844 33.964843v237.316407l-13.832032 9.851562c-21.730468 15.484375-34.703124 40.625-34.703124 67.257812 0 45.492188 37.007812 82.5 82.5 82.5 12.992187 0 25.433593-2.949218 36.984374-8.761718 3.75-1.886719 5.261719-6.460938 3.371094-10.210938-1.886718-3.75-6.460937-5.261718-10.210937-3.371094-9.40625 4.734376-19.550781 7.136719-30.144531 7.136719-37.105469 0-67.292969-30.1875-67.292969-67.292969 0-21.726562 10.589843-42.238281 28.324219-54.871093l17.023437-12.128907c2.003906-1.425781 3.191406-3.734374 3.191406-6.191406v-29.359375h37.511719v29.359375c0 2.457032 1.191406 4.765625 3.191406 6.191406l17.023438 12.128907c17.734375 12.632812 28.320312 33.144531 28.320312 54.871093 0 16.664063-6.164062 32.667969-17.359375 45.0625-2.816406 3.113282-2.574219 7.921876.542969 10.738282s7.925781 2.570312 10.738281-.542969c13.726563-15.191406 21.289063-34.816406 21.289063-55.257813 0-26.632812-12.976563-51.773437-34.707032-67.257812l-13.832031-9.851562zm-15.207031 80.46875h-37.511719v-42.890625h37.511719zm-37.511719 15.207031h37.511719v42.890626h-37.511719zm18.753907-114.433593c10.34375 0 18.757812 8.414062 18.757812 18.757812v22.371094h-37.511719v-22.371094c0-10.34375 8.414063-18.757812 18.753907-18.757812zm-18.753907 215.425781v-42.890625h37.511719v42.890625zm0 0"/></svg>