<svg height="512pt" viewBox="-82 0 512 512" width="512pt" xmlns="http://www.w3.org/2000/svg"><path d="m265.75 29.898438c-23.652344 13.6875-39.578125 39.246093-39.578125 68.542968 0 1.042969.019531 2.085938.058594 3.121094 1.933593 49.757812 77.105469 49.757812 79.039062 0 .039063-1.035156.058594-2.078125.058594-3.121094 0-29.296875-15.925781-54.855468-39.578125-68.542968zm0 0" fill="#84abc1"/><path d="m265.75 138.882812c-19.269531 0-38.535156-12.453124-39.5-37.320312-.039062-1.042969-.078125-2.085938-.078125-3.125 0-29.289062 15.925781-54.851562 39.578125-68.539062-4.769531 13.6875-7.972656 39.25-7.972656 68.539062 0 1.039062 0 2.082031.019531 3.125.191406 24.867188 4.074219 37.320312 7.953125 37.320312zm0 0" fill="#4d87a1"/><path d="m315.039062 153.980469c-15.554687 9-26.027343 25.808593-26.027343 45.070312 0 .6875.015625 1.375.042969 2.054688 1.269531 32.71875 50.699218 32.71875 51.972656 0 .023437-.679688.039062-1.367188.039062-2.054688 0-19.265625-10.472656-36.070312-26.027344-45.070312zm0 0" fill="#84abc1"/><path d="m315.039062 225.644531c-12.671874 0-25.339843-8.1875-25.976562-24.539062-.023438-.6875-.050781-1.371094-.050781-2.058594 0-19.257813 10.476562-36.066406 26.027343-45.070313-3.136718 9.003907-5.242187 25.8125-5.242187 45.070313 0 .6875 0 1.371094.011719 2.058594.125 16.351562 2.679687 24.539062 5.230468 24.539062zm0 0" fill="#4d87a1"/><path d="m189.96875 294.851562v-220.332031c0-36.957031-29.957031-66.914062-66.914062-66.914062-36.957032 0-66.914063 29.957031-66.914063 66.914062v220.332031c-29.378906 20.929688-48.535156 55.273438-48.535156 94.09375 0 63.761719 51.6875 115.449219 115.449219 115.449219 63.761718 0 115.453124-51.6875 115.453124-115.449219 0-38.820312-19.160156-73.164062-48.539062-94.09375zm0 0" fill="#d3ddea"/><path d="m197.949219 388.945312c0 41.296876-33.589844 74.894532-74.894531 74.894532-41.292969 0-74.894532-33.597656-74.894532-74.894532 0-24.179687 11.78125-47 31.511719-61.0625l17.023437-12.125v-241.238281c0-14.539062 11.820313-26.363281 26.359376-26.363281 14.539062 0 26.359374 11.824219 26.359374 26.363281v241.238281l17.023438 12.125c19.738281 14.0625 31.511719 36.882813 31.511719 61.0625zm0 0" fill="#84abc1"/><path d="m123.050781 463.839844c-41.292969 0-74.890625-33.597656-74.890625-74.894532 0-24.179687 11.78125-47 31.507813-61.0625l17.023437-12.125v-241.238281c0-14.539062 11.820313-26.363281 26.359375-26.363281-8.292969 0-9.976562 11.824219-9.976562 26.363281v241.238281s-32.765625 25.679688-32.765625 73.1875c0 41.296876 19.179687 74.894532 42.742187 74.894532zm0 0" fill="#4d87a1"/><path d="m149.414062 74.519531v88.074219h-52.71875v-88.074219c0-14.539062 11.820313-26.363281 26.359376-26.363281 14.539062 0 26.359374 11.824219 26.359374 26.363281zm0 0" fill="#fff"/><path d="m312.867188 101.863281c.042968-1.136719.066406-2.277343.066406-3.421875 0-30.855468-16.621094-59.640625-43.375-75.125-2.355469-1.363281-5.261719-1.363281-7.617188 0-26.753906 15.484375-43.375 44.269532-43.375 75.125 0 1.144532.023438 2.28125.066406 3.417969.53125 13.738281 5.921876 25.324219 15.578126 33.496094 8.480468 7.179687 19.679687 11.128906 31.539062 11.128906 11.855469 0 23.054688-3.949219 31.535156-11.128906 9.660156-8.171875 15.046875-19.757813 15.582032-33.492188zm-47.117188 29.414063c-21.246094 0-31.339844-15.070313-31.921875-30.007813-.035156-.9375-.054687-1.882812-.054687-2.828125 0-23.949218 12.148437-46.386718 31.976562-59.59375 19.832031 13.207032 31.976562 35.644532 31.976562 59.59375 0 .945313-.019531 1.886719-.054687 2.828125-.582031 14.9375-10.675781 30.007813-31.921875 30.007813zm0 0"/><path d="m318.847656 147.398438c-2.355468-1.363282-5.261718-1.363282-7.617187 0-18.394531 10.644531-29.820313 30.4375-29.820313 51.652343 0 .785157.011719 1.566407.042969 2.347657.8125 20.910156 17.511719 31.847656 33.585937 31.847656 16.074219 0 32.769532-10.9375 33.582032-31.84375.03125-.78125.046875-1.5625.046875-2.351563 0-21.214843-11.425781-41.007812-29.820313-51.652343zm14.578125 53.410156c-.460937 11.902344-9.566406 17.230468-18.386719 17.230468-12.242187 0-18.054687-8.652343-18.386718-17.226562-.023438-.585938-.035156-1.171875-.035156-1.761719 0-14.289062 6.957031-27.710937 18.421874-36.019531 11.464844 8.308594 18.421876 21.730469 18.421876 36.019531 0 .585938-.011719 1.171875-.035157 1.757813zm0 0"/><path d="m197.574219 291.011719v-107.738281c0-4.199219-3.40625-7.601563-7.605469-7.601563s-7.601562 3.402344-7.601562 7.601563v111.578124c0 2.460938 1.1875 4.765626 3.191406 6.191407 28.394531 20.230469 45.34375 53.089843 45.34375 87.902343 0 59.464844-48.378906 107.847657-107.847656 107.847657s-107.847657-48.382813-107.847657-107.847657c0-34.8125 16.953125-67.671874 45.347657-87.902343 2-1.425781 3.191406-3.730469 3.191406-6.191407v-220.332031c0-32.703125 26.605468-59.3125 59.308594-59.3125 32.707031 0 59.3125 26.609375 59.3125 59.3125v78.335938c0 4.199219 3.40625 7.605469 7.605468 7.605469 4.199219 0 7.601563-3.40625 7.601563-7.605469v-78.335938c0-41.089843-33.429688-74.519531-74.519531-74.519531-41.089844 0-74.515626 33.429688-74.515626 74.519531v216.492188c-30.464843 23.222656-48.539062 59.539062-48.539062 97.933593 0 67.851563 55.203125 123.054688 123.054688 123.054688 67.855468 0 123.058593-55.203125 123.058593-123.054688 0-38.398437-18.074219-74.710937-48.539062-97.933593zm0 0"/><path d="m123.054688 456.238281c-12.199219 0-24.152344-3.3125-34.570313-9.578125-3.601563-2.167968-8.269531-1.003906-10.433594 2.59375-2.167969 3.597656-1.003906 8.273438 2.59375 10.4375 12.785157 7.6875 27.449219 11.753906 42.410157 11.753906 45.492187 0 82.503906-37.011718 82.503906-82.503906 0-26.628906-12.976563-51.773437-34.707032-67.253906l-13.832031-9.855469v-237.3125c0-18.730469-15.234375-33.964843-33.964843-33.964843-18.726563 0-33.960938 15.234374-33.960938 33.964843v237.316407l-13.832031 9.851562c-21.734375 15.484375-34.707031 40.625-34.707031 67.257812 0 18.832032 6.539062 37.261719 18.410156 51.894532 2.644531 3.261718 7.433594 3.761718 10.695312 1.117187 3.261719-2.644531 3.757813-7.433593 1.113282-10.695312-9.679688-11.933594-15.011719-26.964844-15.011719-42.316407 0-21.726562 10.589843-42.238281 28.320312-54.871093l17.023438-12.128907c2.003906-1.425781 3.195312-3.734374 3.195312-6.191406v-29.359375h37.511719v29.359375c0 2.457032 1.1875 4.765625 3.191406 6.191406l17.023438 12.128907c17.734375 12.632812 28.320312 33.144531 28.320312 54.871093 0 37.105469-30.1875 67.292969-67.292968 67.292969zm18.757812-301.25h-37.511719v-42.890625h37.511719zm-37.511719 15.207031h37.511719v42.890626h-37.511719zm18.753907-114.433593c10.34375 0 18.757812 8.414062 18.757812 18.757812v22.371094h-37.511719v-22.371094c0-10.34375 8.414063-18.757812 18.753907-18.757812zm-18.753907 215.425781v-42.890625h37.511719v42.890625zm0 0"/></svg>