<svg height="512pt" viewBox="-71 0 512 512" width="512pt" xmlns="http://www.w3.org/2000/svg"><path d="m189.972656 294.851562v-220.332031c0-36.957031-29.960937-66.914062-66.917968-66.914062-36.953126 0-66.914063 29.957031-66.914063 66.914062v220.332031c-29.375 20.929688-48.535156 55.273438-48.535156 94.09375 0 63.761719 51.6875 115.449219 115.449219 115.449219 63.761718 0 115.453124-51.6875 115.453124-115.449219 0-38.820312-19.160156-73.164062-48.535156-94.09375zm0 0" fill="#d3ddea"/><path d="m197.949219 388.945312c0 41.296876-33.589844 74.894532-74.894531 74.894532-41.292969 0-74.894532-33.597656-74.894532-74.894532 0-24.179687 11.78125-47 31.511719-61.0625l17.023437-12.125v-241.238281c0-14.539062 11.820313-26.363281 26.359376-26.363281 14.539062 0 26.359374 11.824219 26.359374 26.363281v241.238281l17.023438 12.125c19.742188 14.0625 31.511719 36.882813 31.511719 61.0625zm0 0" fill="#ff7694"/><path d="m123.054688 463.839844c-41.296876 0-74.894532-33.597656-74.894532-74.894532 0-24.179687 11.78125-47 31.511719-61.0625l17.019531-12.125v-241.238281c0-14.539062 11.824219-26.363281 26.363282-26.363281-8.292969 0-9.976563 11.824219-9.976563 26.363281v241.238281s-32.769531 25.679688-32.769531 73.1875c0 41.296876 19.183594 74.894532 42.746094 74.894532zm0 0" fill="#e53737"/><path d="m149.414062 74.519531v29.976563h-52.71875v-29.976563c0-14.539062 11.820313-26.363281 26.359376-26.363281 14.539062 0 26.359374 11.824219 26.359374 26.363281zm0 0" fill="#fff"/><path d="m351.714844 111 10.808594-28.976562-28.128907-12.84375-12.84375-28.128907-28.980469 10.804688-28.976562-10.804688-12.84375 28.128907-28.132812 12.84375 10.808593 28.976562-10.808593 28.980469 28.132812 12.84375 12.84375 28.128906 28.976562-10.804687 28.980469 10.804687 12.84375-28.128906 28.128907-12.84375zm0 0" fill="#ffee8c"/><path d="m324.503906 111c0 17.636719-14.296875 31.9375-31.933594 31.9375-17.636718 0-31.933593-14.300781-31.933593-31.9375s14.296875-31.933594 31.933593-31.933594c17.636719 0 31.933594 14.296875 31.933594 31.933594zm0 0" fill="#ffd073"/><path d="m197.574219 291.011719v-216.492188c0-41.089843-33.429688-74.519531-74.519531-74.519531-41.089844 0-74.515626 33.429688-74.515626 74.519531v216.492188c-30.464843 23.222656-48.539062 59.539062-48.539062 97.933593 0 18.871094 4.160156 36.980469 12.371094 53.828126 1.839844 3.777343 6.390625 5.347656 10.164062 3.507812 3.777344-1.839844 5.347656-6.390625 3.507813-10.167969-7.1875-14.753906-10.835938-30.625-10.835938-47.167969 0-34.8125 16.953125-67.671874 45.347657-87.898437 2.003906-1.425781 3.191406-3.734375 3.191406-6.195313v-220.332031c0-32.703125 26.605468-59.3125 59.3125-59.3125 32.703125 0 59.308594 26.609375 59.308594 59.3125v220.332031c0 2.460938 1.191406 4.765626 3.191406 6.191407 28.394531 20.230469 45.347656 53.089843 45.347656 87.902343 0 59.464844-48.382812 107.847657-107.847656 107.847657-32.96875 0-63.695313-14.792969-84.304688-40.578125-2.621094-3.28125-7.40625-3.816406-10.6875-1.195313-3.28125 2.621094-3.8125 7.40625-1.191406 10.6875 23.507812 29.421875 58.5625 46.292969 96.179688 46.292969 67.855468 0 123.058593-55.203125 123.058593-123.054688 0-38.398437-18.074219-74.710937-48.539062-97.933593zm0 0"/><path d="m149.417969 127.003906c4.199219 0 7.601562-3.402344 7.601562-7.601562v-44.882813c0-18.730469-15.234375-33.964843-33.964843-33.964843-18.726563 0-33.960938 15.234374-33.960938 33.964843v237.316407l-13.832031 9.851562c-21.734375 15.484375-34.707031 40.625-34.707031 67.257812 0 45.492188 37.011718 82.5 82.5 82.5 45.492187 0 82.503906-37.007812 82.503906-82.5 0-26.632812-12.976563-51.773437-34.707032-67.257812l-13.832031-9.851562v-162.019532c0-4.199218-3.402343-7.601562-7.601562-7.601562s-7.605469 3.402344-7.605469 7.601562v5.171875h-37.511719v-42.890625h37.511719v7.304688c0 4.199218 3.40625 7.601562 7.605469 7.601562zm-7.605469 144.183594h-37.511719v-42.890625h37.511719zm20.214844 62.886719c17.734375 12.636719 28.324218 33.144531 28.324218 54.871093 0 37.105469-30.1875 67.292969-67.292968 67.292969-37.105469 0-67.292969-30.1875-67.292969-67.292969 0-21.722656 10.585937-42.234374 28.320313-54.871093l17.023437-12.128907c2.003906-1.425781 3.191406-3.734374 3.191406-6.191406v-29.359375h37.511719v29.359375c0 2.457032 1.191406 4.765625 3.191406 6.191406zm-20.214844-163.878907v42.890626h-37.511719v-42.890626zm-37.511719-73.304687v-22.371094c0-10.34375 8.414063-18.757812 18.753907-18.757812 10.34375 0 18.757812 8.414062 18.757812 18.757812v22.371094zm0 0"/><path d="m292.570312 71.464844c-21.800781 0-39.539062 17.734375-39.539062 39.535156 0 21.804688 17.738281 39.542969 39.539062 39.542969 21.804688 0 39.539063-17.738281 39.539063-39.542969 0-21.800781-17.738281-39.535156-39.539063-39.535156zm0 63.867187c-13.414062 0-24.328124-10.914062-24.328124-24.332031 0-13.414062 10.914062-24.328125 24.328124-24.328125 13.417969 0 24.332032 10.914063 24.332032 24.328125 0 13.417969-10.914063 24.332031-24.332032 24.332031zm0 0"/><path d="m359.832031 111 9.816407-26.320312c1.394531-3.738282-.335938-7.917969-3.964844-9.574219l-25.550782-11.664063-11.667968-25.550781c-1.652344-3.628906-5.828125-5.363281-9.570313-3.964844l-26.324219 9.816407-26.320312-9.816407c-3.738281-1.394531-7.917969.335938-9.574219 3.964844l-11.664062 25.550781-25.550781 11.664063c-3.628907 1.65625-5.363282 5.835937-3.96875 9.574219l9.816406 26.320312-9.816406 26.324219c-1.394532 3.738281.339843 7.917969 3.96875 9.574219l25.546874 11.664062 11.667969 25.550781c1.269531 2.78125 4.019531 4.445313 6.917969 4.445313.882812 0 1.78125-.152344 2.65625-.480469l26.320312-9.816406 26.320313 9.816406c3.742187 1.394531 7.917969-.335937 9.574219-3.964844l11.667968-25.550781 25.546876-11.664062c3.628906-1.65625 5.363281-5.835938 3.96875-9.574219zm-28.597656 34.90625c-1.664063.761719-3 2.09375-3.757813 3.761719l-9.902343 21.6875-22.347657-8.332031c-.855468-.320313-1.757812-.480469-2.65625-.480469-.902343 0-1.800781.160156-2.65625.480469l-22.347656 8.332031-9.902344-21.6875c-.757812-1.667969-2.09375-3-3.757812-3.761719l-21.691406-9.902344 8.332031-22.347656c.640625-1.710938.640625-3.597656 0-5.3125l-8.332031-22.34375 21.691406-9.90625c1.664062-.757812 3-2.09375 3.757812-3.757812l9.902344-21.691407 22.347656 8.335938c1.714844.636719 3.597657.636719 5.3125 0l22.347657-8.335938 9.902343 21.691407c.757813 1.664062 2.09375 3 3.757813 3.757812l21.691406 9.90625-8.332031 22.34375c-.640625 1.714844-.640625 3.601562 0 5.3125l8.332031 22.347656zm0 0"/></svg>