<svg height="512pt" viewBox="-73 0 512 512" width="512pt" xmlns="http://www.w3.org/2000/svg"><path d="m189.96875 294.851562v-220.332031c0-36.957031-29.957031-66.914062-66.914062-66.914062-36.957032 0-66.914063 29.957031-66.914063 66.914062v220.332031c-29.378906 20.929688-48.535156 55.273438-48.535156 94.09375 0 63.761719 51.6875 115.449219 115.449219 115.449219 63.761718 0 115.453124-51.6875 115.453124-115.449219 0-38.820312-19.160156-73.164062-48.539062-94.09375zm0 0" fill="#d3ddea"/><path d="m197.949219 388.945312c0 41.296876-33.589844 74.894532-74.894531 74.894532-41.292969 0-74.894532-33.597656-74.894532-74.894532 0-24.179687 11.78125-47 31.511719-61.0625l17.023437-12.125v-241.238281c0-14.539062 11.820313-26.363281 26.359376-26.363281 14.539062 0 26.359374 11.824219 26.359374 26.363281v241.238281l17.023438 12.125c19.738281 14.0625 31.511719 36.882813 31.511719 61.0625zm0 0" fill="#ff7694"/><path d="m123.050781 463.839844c-41.292969 0-74.890625-33.597656-74.890625-74.894532 0-24.179687 11.78125-47 31.507813-61.0625l17.023437-12.125v-241.238281c0-14.539062 11.820313-26.363281 26.359375-26.363281-8.292969 0-9.976562 11.824219-9.976562 26.363281v241.238281s-32.765625 25.679688-32.765625 73.1875c0 41.296876 19.179687 74.894532 42.742187 74.894532zm0 0" fill="#e53737"/><path d="m149.414062 74.519531v88.074219h-52.71875v-88.074219c0-14.539062 11.820313-26.363281 26.359376-26.363281 14.539062 0 26.359374 11.824219 26.359374 26.363281zm0 0" fill="#fff"/><path d="m197.574219 291.011719v-216.492188c0-41.089843-33.429688-74.519531-74.519531-74.519531-41.089844 0-74.519532 33.429688-74.519532 74.519531v147.28125c0 4.199219 3.40625 7.605469 7.605469 7.605469s7.605469-3.40625 7.605469-7.605469v-147.28125c0-32.703125 26.605468-59.3125 59.308594-59.3125 32.703124 0 59.3125 26.609375 59.3125 59.3125v220.332031c0 2.460938 1.1875 4.765626 3.191406 6.191407 28.390625 20.230469 45.34375 53.089843 45.34375 87.902343 0 24.84375-8.207032 48.1875-23.738282 67.507813-2.628906 3.273437-2.109374 8.0625 1.164063 10.691406 1.402344 1.128907 3.085937 1.679688 4.757813 1.679688 2.222656 0 4.429687-.972657 5.929687-2.84375 17.472656-21.734375 27.09375-49.097657 27.09375-77.039063 0-38.394531-18.070313-74.707031-48.535156-97.929687zm0 0"/><path d="m190.457031 473.140625c-19.300781 15.472656-42.609375 23.652344-67.402343 23.652344-59.464844 0-107.847657-48.382813-107.847657-107.847657 0-34.8125 16.953125-67.671874 45.347657-87.902343 2-1.425781 3.191406-3.730469 3.191406-6.191407v-42.632812c0-4.199219-3.40625-7.601562-7.605469-7.601562s-7.605469 3.402343-7.605469 7.601562v38.792969c-30.460937 23.222656-48.535156 59.535156-48.535156 97.933593 0 67.851563 55.203125 123.054688 123.054688 123.054688 27.886718 0 55.203124-9.585938 76.917968-26.996094 3.273438-2.625 3.800782-7.410156 1.175782-10.6875-2.628907-3.277344-7.414063-3.804687-10.691407-1.175781zm0 0"/><path d="m157.019531 74.519531c0-18.730469-15.234375-33.964843-33.964843-33.964843-18.726563 0-33.964844 15.234374-33.964844 33.964843v237.316407l-13.832032 9.851562c-21.730468 15.484375-34.703124 40.625-34.703124 67.257812 0 45.492188 37.007812 82.5 82.5 82.5 45.492187 0 82.5-37.007812 82.5-82.5 0-26.632812-12.972657-51.777343-34.703126-67.257812l-13.832031-9.851562zm-15.207031 138.566407h-37.511719v-42.890626h37.511719zm0-58.097657h-37.511719v-42.890625h37.511719zm-37.511719 73.308594h37.511719v42.890625h-37.511719zm18.753907-172.535156c10.34375 0 18.757812 8.414062 18.757812 18.757812v22.371094h-37.511719v-22.371094c0-10.34375 8.414063-18.757812 18.753907-18.757812zm38.972656 278.3125c17.734375 12.636719 28.320312 33.144531 28.320312 54.871093 0 37.105469-30.183594 67.292969-67.292968 67.292969-37.105469 0-67.292969-30.1875-67.292969-67.292969 0-21.722656 10.589843-42.234374 28.324219-54.871093l17.023437-12.128907c2.003906-1.425781 3.191406-3.734374 3.191406-6.191406v-29.359375h37.511719v29.359375c0 2.457032 1.191406 4.765625 3.191406 6.191406zm0 0"/><path d="m360.847656 71.140625h-67.875c-3.773437 0-7.832031 1.96875-7.832031 6.289063v129.578124c0 4.214844 4.320313 6.097657 8.605469 6.097657 4.28125 0 8.605468-1.882813 8.605468-6.097657v-57.726562h29.570313c4.003906 0 6.101563-3.554688 6.101563-7.0625 0-4.386719-2.507813-7.449219-6.101563-7.449219h-29.570313v-47.960937h58.496094c3.648438 0 6.097656-3.226563 6.097656-8.027344 0-3.679688-1.90625-7.640625-6.097656-7.640625zm0 0"/><path d="m259.054688 24.605469c-13.695313 0-24.839844 11.144531-24.839844 24.839843 0 13.695313 11.144531 24.839844 24.839844 24.839844 13.699218 0 24.839843-11.144531 24.839843-24.839844 0-13.695312-11.140625-24.839843-24.839843-24.839843zm0 34.472656c-5.308594 0-9.628907-4.324219-9.628907-9.632813 0-5.3125 4.320313-9.632812 9.628907-9.632812 5.3125 0 9.632812 4.320312 9.632812 9.632812 0 5.308594-4.320312 9.632813-9.632812 9.632813zm0 0"/></svg>