<svg height="512pt" viewBox="-54 0 512 512" width="512pt" xmlns="http://www.w3.org/2000/svg"><path d="m189.972656 294.851562v-220.332031c0-36.957031-29.960937-66.914062-66.917968-66.914062-36.953126 0-66.914063 29.957031-66.914063 66.914062v220.332031c-29.375 20.929688-48.535156 55.273438-48.535156 94.09375 0 63.761719 51.6875 115.449219 115.449219 115.449219 63.761718 0 115.453124-51.6875 115.453124-115.449219 0-38.820312-19.160156-73.164062-48.535156-94.09375zm0 0" fill="#d3ddea"/><path d="m396.542969 139.113281c0 15.429688-12.507813 27.9375-27.941407 27.9375h-101.113281c-20.515625 0-37.152343-16.628906-37.152343-37.152343 0-20.515626 16.636718-37.152344 37.152343-37.152344 1.839844 0 3.648438.144531 5.421875.398437 8.390625-16.660156 25.648438-28.09375 45.582032-28.09375 24.117187 0 44.324218 16.746094 49.632812 39.246094.527344 2.242187.910156 4.546875 1.132812 6.890625v.003906c15.125.347656 27.285157 12.714844 27.285157 27.921875zm0 0" fill="#d3ddea"/><path d="m336.214844 68.222656c-5.523438-2.054687-11.496094-3.167968-17.726563-3.167968-19.933593 0-37.183593 11.433593-45.578125 28.085937v.007813c-1.773437-.257813-3.582031-.398438-5.421875-.398438-20.523437 0-37.152343 16.632812-37.152343 37.152344 0 20.519531 16.628906 37.152344 37.152343 37.152344h17.957031c-18.492187 0-33.476562-14.992188-33.476562-33.476563 0-16.40625 11.800781-30.058594 27.382812-32.921875 1.539063-.285156 3.121094-.464844 4.730469-.527344.449219-.015625.90625-.027344 1.363281-.027344 6.007813 0 11.652344 1.585938 16.523438 4.363282-.675781-4.714844-5.550781-9.132813-12.742188-12.691406 3.949219-13.351563 17.382813-25.734376 46.988282-23.550782zm0 0" fill="#97b0cc"/><path d="m197.949219 388.945312c0 41.296876-33.589844 74.894532-74.894531 74.894532-41.292969 0-74.894532-33.597656-74.894532-74.894532 0-24.179687 11.78125-47 31.511719-61.0625l17.023437-12.125v-241.238281c0-14.539062 11.820313-26.363281 26.359376-26.363281 14.539062 0 26.359374 11.824219 26.359374 26.363281v241.238281l17.023438 12.125c19.738281 14.0625 31.511719 36.882813 31.511719 61.0625zm0 0" fill="#ff7694"/><path d="m123.054688 463.839844c-41.296876 0-74.894532-33.597656-74.894532-74.894532 0-24.179687 11.78125-47 31.511719-61.0625l17.019531-12.125v-241.238281c0-14.539062 11.824219-26.363281 26.363282-26.363281-8.292969 0-9.976563 11.824219-9.976563 26.363281v241.238281s-32.769531 25.679688-32.769531 73.1875c0 41.296876 19.183594 74.894532 42.746094 74.894532zm0 0" fill="#e53737"/><path d="m149.414062 74.519531v88.074219h-52.71875v-88.074219c0-14.539062 11.820313-26.363281 26.359376-26.363281 14.539062 0 26.359374 11.824219 26.359374 26.363281zm0 0" fill="#fff"/><path d="m197.574219 291.011719v-216.492188c0-41.089843-33.429688-74.519531-74.519531-74.519531-41.089844 0-74.515626 33.429688-74.515626 74.519531v216.492188c-30.464843 23.222656-48.539062 59.539062-48.539062 97.933593 0 17.824219 3.730469 35.023438 11.089844 51.117188 1.746094 3.820312 6.257812 5.5 10.074218 3.753906 3.820313-1.746094 5.5-6.257812 3.753907-10.078125-6.445313-14.09375-9.710938-29.164062-9.710938-44.792969 0-34.8125 16.953125-67.671874 45.347657-87.902343 2-1.425781 3.191406-3.730469 3.191406-6.191407v-220.332031c0-32.703125 26.605468-59.3125 59.308594-59.3125 32.703124 0 59.3125 26.609375 59.3125 59.3125v220.332031c0 2.460938 1.1875 4.765626 3.191406 6.191407 28.390625 20.230469 45.34375 53.089843 45.34375 87.902343 0 59.464844-48.378906 107.847657-107.847656 107.847657-31.050782 0-60.613282-13.398438-81.105469-36.761719-2.773438-3.160156-7.578125-3.472656-10.734375-.703125s-3.46875 7.574219-.699219 10.730469c23.382813 26.65625 57.113281 41.941406 92.539063 41.941406 67.855468 0 123.058593-55.203125 123.058593-123.054688 0-38.394531-18.074219-74.710937-48.539062-97.933593zm0 0"/><path d="m375.917969 104.347656c-.121094-.601562-.253907-1.203125-.394531-1.796875-6.265626-26.554687-29.71875-45.101562-57.035157-45.101562-20.519531 0-39.164062 10.492187-49.816406 27.710937-25.25-.699218-45.941406 19.664063-45.941406 44.738282 0 24.679687 20.078125 44.757812 44.757812 44.757812h40.230469c4.199219 0 7.605469-3.40625 7.605469-7.605469s-3.40625-7.605469-7.605469-7.605469h-40.230469c-16.292969 0-29.550781-13.253906-29.550781-29.546874 0-16.292969 13.257812-29.546876 29.550781-29.546876 1.410157 0 2.867188.105469 4.328125.320313 3.234375.464844 6.414063-1.183594 7.882813-4.105469 7.429687-14.75 22.292969-23.910156 38.789062-23.910156 20.230469 0 37.597657 13.730469 42.234375 33.386719.445313 1.894531.769532 3.828125.953125 5.753906.304688 3.851563 3.480469 6.90625 7.40625 6.996094 10.949219.25 19.855469 9.367187 19.855469 20.320312 0 11.214844-9.121094 20.335938-20.339844 20.335938h-30.460937c-4.199219 0-7.605469 3.402343-7.605469 7.601562s3.40625 7.605469 7.605469 7.605469h30.460937c19.601563 0 35.546875-15.945312 35.546875-35.542969.003907-16.933593-12.171875-31.351562-28.226562-34.765625zm0 0"/><path d="m157.019531 74.519531c0-18.730469-15.234375-33.964843-33.964843-33.964843-18.726563 0-33.960938 15.234374-33.960938 33.964843v237.316407l-13.832031 9.851562c-21.734375 15.484375-34.707031 40.625-34.707031 67.257812 0 45.492188 37.011718 82.5 82.5 82.5 45.492187 0 82.503906-37.007812 82.503906-82.5 0-26.632812-12.972656-51.773437-34.707032-67.257812l-13.828124-9.851562v-237.316407zm-15.207031 138.566407h-37.511719v-42.890626h37.511719zm0-58.097657h-37.511719v-42.890625h37.511719zm-37.511719 73.308594h37.511719v42.890625h-37.511719zm18.753907-172.535156c10.34375 0 18.757812 8.414062 18.757812 18.757812v22.371094h-37.511719v-22.371094c0-10.34375 8.414063-18.757812 18.753907-18.757812zm38.972656 278.3125c17.734375 12.636719 28.320312 33.148437 28.320312 54.871093 0 37.105469-30.1875 67.292969-67.292968 67.292969-37.105469 0-67.292969-30.1875-67.292969-67.292969 0-21.722656 10.589843-42.234374 28.320312-54.871093l17.023438-12.128907c2.003906-1.425781 3.195312-3.734374 3.195312-6.191406v-29.359375h37.511719v29.359375c0 2.457032 1.1875 4.765625 3.191406 6.191406zm0 0"/></svg>