<svg height="512pt" viewBox="0 -6 512 512" width="512pt" xmlns="http://www.w3.org/2000/svg"><path d="m403.589844 184.046875c0 36.761719-29.804688 66.5625-66.578125 66.5625h-240.917969c-48.878906 0-88.515625-39.621094-88.515625-88.515625 0-48.882812 39.632813-88.519531 88.515625-88.519531 4.386719 0 8.699219.335937 12.921875.949219 19.992187-39.699219 61.101563-66.941407 108.597656-66.941407 57.46875 0 105.613281 39.898438 118.261719 93.503907 1.261719 5.351562 2.171875 10.835937 2.699219 16.421874v.011719c36.039062.824219 65.015625 30.289063 65.015625 66.527344zm0 0" fill="#84abc1"/><path d="m259.851562 15.136719c-13.160156-4.886719-27.390624-7.546875-42.238281-7.546875-47.496093 0-88.59375 27.238281-108.597656 66.925781v.011719c-4.222656-.613282-8.535156-.949219-12.921875-.949219-48.894531 0-88.515625 39.632813-88.515625 88.519531 0 48.894532 39.621094 88.515625 88.515625 88.515625h42.785156c-44.058594 0-79.757812-35.710937-79.757812-79.757812 0-39.085938 28.113281-71.613281 65.238281-78.433594 3.675781-.6875 7.4375-1.113281 11.273437-1.261719 1.074219-.039062 2.160157-.0625 3.246094-.0625 14.320313 0 27.765625 3.773438 39.375 10.394532-1.613281-11.238282-13.230468-21.761719-30.359375-30.246094 9.40625-31.804688 41.414063-61.304688 111.957031-56.109375zm0 0" fill="#4d87a1"/><path d="m264.066406 246.230469c.480469.082031.765625.082031.808594.082031h-3.683594c.960938 0 1.917969-.03125 2.875-.082031zm0 0" fill="#97b0cc"/><path d="m504.421875 312.382812c0 29.730469-24.101563 53.832032-53.84375 53.832032h-194.839844c-39.53125 0-71.589843-32.042969-71.589843-71.585938 0-39.535156 32.058593-71.589844 71.589843-71.589844 3.546875 0 7.035157.273438 10.449219.769532 16.167969-32.109375 49.417969-54.136719 87.828125-54.136719 46.476563 0 85.414063 32.265625 95.640625 75.621094 1.023438 4.324219 1.761719 8.761719 2.183594 13.277343v.011719c29.144531.664063 52.582031 24.496094 52.582031 53.800781zm0 0" fill="#d3ddea"/><path d="m388.171875 175.777344c-10.640625-3.953125-22.148437-6.105469-34.15625-6.105469-38.410156 0-71.648437 22.03125-87.828125 54.128906v.007813c-3.417969-.492188-6.902344-.765625-10.449219-.765625-39.542969 0-71.589843 32.054687-71.589843 71.585937 0 39.546875 32.046874 71.589844 71.589843 71.589844h34.601563c-35.632813 0-64.503906-28.882812-64.503906-64.503906 0-31.609375 22.738281-57.914063 52.761718-63.433594 2.96875-.554688 6.011719-.898438 9.113282-1.019531.871093-.03125 1.75-.050781 2.628906-.050781 11.582031 0 22.453125 3.050781 31.84375 8.40625-1.304688-9.085938-10.699219-17.601563-24.550782-24.460938 7.605469-25.722656 33.492188-49.578125 90.539063-45.378906zm0 0" fill="#97b0cc"/><path d="m494.476562 269.4375c-9.730468-9.933594-22.285156-16.171875-35.886718-17.933594-.417969-2.671875-.933594-5.328125-1.554688-7.953125-5.382812-22.816406-18.472656-43.5-36.863281-58.242187-2.949219-2.363282-6.03125-4.539063-9.203125-6.5625-1.246094-17.691406-8.714844-34.214844-21.308594-46.90625-12.015625-12.101563-27.554687-19.585938-44.308594-21.457032-.539062-3.710937-1.242187-7.40625-2.101562-11.035156-5.398438-22.898437-17.023438-43.914062-33.609375-60.777344-2.933594-2.984374-7.730469-3.023437-10.71875-.089843-2.984375 2.9375-3.023437 7.734375-.085937 10.71875 14.640624 14.886719 24.898437 33.429687 29.660156 53.628906 1.183594 5.003906 2.03125 10.140625 2.519531 15.265625.289063 3.851562 3.457031 6.914062 7.382813 7.003906 27.347656.625 49.855468 19.53125 55.960937 45.015625-12.726563-5.238281-26.449219-8.023437-40.34375-8.023437-38.457031 0-73.269531 20.410156-92.089844 53.613281-2.078125-.164063-4.148437-.246094-6.1875-.246094-23.953125 0-45.441406 10.710938-59.972656 27.574219h-99.671875c-44.628906 0-80.933594-36.308594-80.933594-80.9375 0-44.632812 36.304688-80.945312 80.933594-80.945312 3.828125 0 7.8125.292968 11.851562.871093 3.21875.464844 6.378907-1.183593 7.84375-4.09375 19.496094-38.714843 58.515626-62.769531 101.828126-62.769531 22 0 43.347656 6.28125 61.738281 18.167969 3.515625 2.269531 8.207031 1.261719 10.480469-2.253907 2.269531-3.515624 1.261718-8.207031-2.253907-10.480468-20.84375-13.46875-45.039062-20.589844-69.964843-20.589844-47.289063 0-90.054688 25.300781-112.867188 66.390625-2.929688-.265625-5.824219-.398437-8.65625-.398437-52.984375 0-96.09375 43.113281-96.09375 96.105468 0 52.984375 43.109375 96.09375 96.09375 96.09375h89.394531c-5.683593 10.914063-8.917969 23.300782-8.917969 36.433594 0 43.65625 35.515626 79.171875 79.167969 79.171875h194.839844c33.867187 0 61.421875-27.550781 61.421875-61.414063 0-16.152343-6.222656-31.402343-17.523438-42.945312zm-43.898437 89.199219h-194.839844c-35.292969 0-64.007812-28.714844-64.007812-64.007813 0-35.296875 28.714843-64.011718 64.007812-64.011718 3.054688 0 6.207031.230468 9.363281.691406 3.226563.460937 6.390626-1.179688 7.855469-4.09375 15.523438-30.820313 46.582031-49.964844 81.058594-49.964844 20.847656 0 40.445313 6.878906 56.675781 19.886719 15.761719 12.636719 26.980469 30.355469 31.589844 49.894531.941406 3.992188 1.613281 8.070312 2 12.125.289062 3.851562 3.460938 6.914062 7.386719 7.003906 12.125.277344 23.480469 5.207032 31.976562 13.886719 8.511719 8.691406 13.199219 20.175781 13.199219 32.335937-.003906 25.503907-20.757812 46.253907-46.265625 46.253907zm0 0"/><path d="m447.855469 391.976562h-325.894531c-4.1875 0-7.578126 3.394532-7.578126 7.578126 0 4.1875 3.390626 7.582031 7.578126 7.582031h325.894531c12.476562 0 22.625 10.148437 22.625 22.625 0 12.476562-10.148438 22.628906-22.625 22.628906-12.476563 0-22.628907-10.152344-22.628907-22.628906 0-4.183594-3.390624-7.578125-7.578124-7.578125-4.183594 0-7.578126 3.394531-7.578126 7.578125 0 20.835937 16.949219 37.785156 37.785157 37.785156 20.835937 0 37.785156-16.949219 37.785156-37.785156 0-20.835938-16.953125-37.785157-37.785156-37.785157zm0 0"/><path d="m109.652344 431.386719c0-4.183594-3.394532-7.578125-7.582032-7.578125h-69.539062c-4.1875 0-7.582031 3.394531-7.582031 7.578125 0 4.1875 3.394531 7.582031 7.582031 7.582031h69.539062c4.1875 0 7.582032-3.394531 7.582032-7.582031zm0 0"/><path d="m304.605469 423.808594h-172.890625c-4.1875 0-7.582032 3.394531-7.582032 7.578125 0 4.1875 3.394532 7.582031 7.582032 7.582031h172.890625c12.476562 0 22.625 10.148438 22.625 22.625s-10.148438 22.628906-22.625 22.628906c-12.476563 0-22.628907-10.152344-22.628907-22.628906 0-4.183594-3.390624-7.578125-7.578124-7.578125-4.183594 0-7.578126 3.394531-7.578126 7.578125 0 20.835938 16.949219 37.785156 37.785157 37.785156 20.835937 0 37.785156-16.949218 37.785156-37.785156s-16.949219-37.785156-37.785156-37.785156zm0 0"/><path d="m231.101562 457.886719h-166.738281c-4.1875 0-7.578125 3.394531-7.578125 7.578125 0 4.1875 3.390625 7.582031 7.578125 7.582031h166.738281c4.183594 0 7.578126-3.394531 7.578126-7.582031 0-4.183594-3.394532-7.578125-7.578126-7.578125zm0 0"/><path d="m165.917969 375.53125c4.1875 0 7.578125-3.394531 7.578125-7.582031 0-4.183594-3.390625-7.578125-7.578125-7.578125h-116.714844c-4.183594 0-7.578125 3.394531-7.578125 7.578125 0 4.1875 3.394531 7.582031 7.578125 7.582031zm0 0"/></svg>