<svg height="512pt" viewBox="-143 0 512 512" width="512pt" xmlns="http://www.w3.org/2000/svg"><path d="m113.441406 504.394531c-58.453125 0-105.835937-47.382812-105.835937-105.835937v-285.117188c0-58.453125 47.382812-105.835937 105.835937-105.835937s105.835938 47.382812 105.835938 105.835937v285.117188c0 58.453125-47.382813 105.835937-105.835938 105.835937zm0 0" fill="#d3ddea"/><path d="m154.507812 401.914062c0 22.679688-18.382812 41.0625-41.0625 41.0625-22.679687 0-41.070312-18.382812-41.070312-41.0625 0-17.308593 10.703125-32.097656 25.863281-38.152343v-296.460938c0-8.394531 6.800781-15.210937 15.207031-15.210937 8.394532 0 15.207032 6.816406 15.207032 15.210937v296.460938c15.148437 6.054687 25.855468 20.84375 25.855468 38.152343zm0 0" fill="#ff7694"/><path d="m128.652344 67.300781v163.304688h-30.414063v-163.304688c0-8.394531 6.800781-15.210937 15.207031-15.210937 8.394532 0 15.207032 6.816406 15.207032 15.210937zm0 0" fill="#fff"/><path d="m219.277344 185.808594c4.199218 0 7.605468-3.402344 7.605468-7.601563v-64.765625c0-62.550781-50.890624-113.441406-113.441406-113.441406-62.550781 0-113.441406 50.890625-113.441406 113.441406v285.117188c0 62.550781 50.890625 113.441406 113.441406 113.441406 62.550782 0 113.441406-50.890625 113.441406-113.441406v-189.933594c0-4.199219-3.40625-7.605469-7.605468-7.605469-4.199219 0-7.601563 3.40625-7.601563 7.605469v189.933594c0 54.167968-44.070312 98.234375-98.234375 98.234375-54.164062 0-98.234375-44.066407-98.234375-98.234375v-285.117188c0-54.164062 44.070313-98.234375 98.234375-98.234375 54.164063 0 98.234375 44.066407 98.234375 98.234375v64.765625c0 4.199219 3.402344 7.601563 7.601563 7.601563zm0 0"/><path d="m171.671875 93.742188c4.199219 0 7.605469-3.40625 7.605469-7.605469s-3.40625-7.605469-7.605469-7.605469h-35.417969v-11.226562c0-12.582032-10.234375-22.8125-22.8125-22.8125s-22.8125 10.230468-22.8125 22.8125v11.226562h-35.421875c-4.199219 0-7.605469 3.40625-7.605469 7.605469s3.40625 7.605469 7.605469 7.605469h35.421875v45.621093h-35.421875c-4.199219 0-7.605469 3.402344-7.605469 7.601563 0 4.199218 3.40625 7.605468 7.605469 7.605468h35.421875v45.621094h-35.421875c-4.199219 0-7.605469 3.40625-7.605469 7.605469s3.40625 7.601563 7.605469 7.601563h35.421875v45.625h-35.421875c-4.199219 0-7.605469 3.402343-7.605469 7.601562s3.40625 7.605469 7.605469 7.605469h35.421875v45.621093h-35.421875c-4.199219 0-7.605469 3.402344-7.605469 7.605469 0 4.199219 3.40625 7.601563 7.605469 7.601563h35.421875v21.859375c-15.863281 8.378906-25.855468 24.734375-25.855468 42.996093 0 4.199219 3.402343 7.605469 7.601562 7.605469s7.605469-3.40625 7.605469-7.605469c0-13.773437 8.269531-25.972656 21.070312-31.082031 2.890625-1.152343 4.785157-3.949219 4.785157-7.0625v-125.558593h15.210937v125.554687c0 3.113281 1.894531 5.910156 4.785156 7.0625 12.800781 5.109375 21.070313 17.308594 21.070313 31.082031 0 18.449219-15.011719 33.460938-33.460938 33.460938-10.589844 0-20.332031-4.855469-26.722656-13.320313-2.53125-3.347656-7.300781-4.015625-10.652344-1.484375-3.351562 2.53125-4.015625 7.300782-1.484375 10.652344 9.292969 12.304688 23.457031 19.363281 38.859375 19.363281 26.835938 0 48.667969-21.835937 48.667969-48.671875 0-18.257812-9.992187-34.617187-25.855469-42.996094v-21.859374h35.417969c4.199219 0 7.605469-3.402344 7.605469-7.601563s-3.40625-7.605469-7.605469-7.605469h-35.417969v-25.347656h35.417969c4.199219 0 7.605469-3.402344 7.605469-7.601562 0-4.199219-3.40625-7.605469-7.605469-7.605469h-35.417969v-25.34375h35.417969c4.199219 0 7.605469-3.40625 7.605469-7.605469s-3.40625-7.605469-7.605469-7.605469h-35.417969v-10.074219c0-.019531.003906-.039062.003906-.058593s-.003906-.039063-.003906-.058594v-15.144531h35.417969c4.199219 0 7.605469-3.402344 7.605469-7.601563 0-4.203125-3.40625-7.605469-7.605469-7.605469h-35.417969v-25.347656h35.417969c4.199219 0 7.605469-3.402344 7.605469-7.601562 0-4.199219-3.40625-7.605469-7.605469-7.605469h-35.417969v-25.347656h35.417969c4.199219 0 7.605469-3.402344 7.605469-7.601563 0-4.199218-3.40625-7.605468-7.605469-7.605468h-35.417969v-25.347657h35.417969zm-65.835937 129.261718v-155.699218c0-4.195313 3.410156-7.605469 7.605468-7.605469 4.191406 0 7.605469 3.410156 7.605469 7.605469v155.699218zm0 0"/></svg>