<svg height="512pt" viewBox="0 0 512 511" width="512pt" xmlns="http://www.w3.org/2000/svg"><path d="m480.875 286.171875h-449.75c-31.0546875 0 69.054688-224.183594 210.640625-259.261719 9.347656-2.3125 19.121094-2.3125 28.457031 0 141.597656 35.078125 241.707032 259.261719 210.652344 259.261719zm0 0" fill="#d3ddea"/><path d="m168.949219 148.347656c24.972656 24.964844-33.417969 88.726563-86.804688 137.824219h-51.019531c-31.0546875 0 69.054688-224.183594 210.640625-259.261719 9.347656-2.3125 19.121094-2.3125 28.457031 0-49.160156 0-144.289062 78.421875-101.273437 121.4375zm0 0" fill="#97b0cc"/><path d="m417.792969 271.433594-3.640625 34.042968v176.3125h-316.316406v-222.523437l161.804687-145.996094zm0 0" fill="#ff7694"/><path d="m417.792969 271.433594-3.640625 34.042968v33.457032l-158.152344-158.152344-158.164062 158.152344v-79.667969l161.804687-145.996094zm0 0" fill="#e53737"/><path d="m437.855469 329.1875-181.859375-181.863281-181.859375 181.863281-43.011719-43.015625 224.871094-224.875 224.875 224.875zm0 0" fill="#84abc1"/><path d="m191.664062 289.679688h132.300782v132.300781h-132.300782zm0 0" fill="#fff"/><path d="m452.820312 504.660156h-406.882812c-2.078125-9.742187-3.03125-19.890625-2.746094-30.3125 1.914063-69.449218 58.265625-124.148437 127.746094-124.117187 9.285156.007812 18.339844.992187 27.058594 2.878906 16.386718 3.546875 31.59375 10.230469 44.976562 19.394531 22.71875 15.574219 50.945313 20.378906 77.933594 14.902344 6.824219-1.386719 13.871094-2.136719 21.089844-2.199219 60.363281-.515625 110.359375 48.320313 111.199218 108.6875.050782 3.628907-.070312 7.21875-.375 10.765625zm0 0" fill="#d3ddea"/><path d="m148.246094 504.660156h-102.308594c-2.078125-9.742187-3.03125-19.890625-2.746094-30.3125 1.914063-69.449218 58.265625-124.148437 127.746094-124.117187 9.285156.007812 18.339844.992187 27.058594 2.878906-49.992188.6875-105.492188 91.066406-49.75 151.550781zm0 0" fill="#97b0cc"/><path d="m504.394531 497.058594h-43.597656c.011719-1.089844.015625-2.179688.003906-3.269532-.160156-11.339843-1.949219-22.546874-5.320312-33.3125-1.253907-4.007812-5.519531-6.238281-9.527344-4.984374-4.007813 1.253906-6.238281 5.519531-4.984375 9.527343 2.929688 9.363281 4.488281 19.113281 4.625 28.980469.015625 1.023438.007812 2.042969-.007812 3.058594h-393.320313c-1.179687-7.378906-1.679687-14.921875-1.472656-22.5 1.804687-65.464844 54.546875-116.722656 120.085937-116.722656h.054688c24.328125.007812 47.753906 7.25 67.738281 20.941406 23.664063 16.21875 54.191406 22.078125 83.75 16.082031 6.402344-1.300781 13.011719-1.992187 19.640625-2.046875.292969 0 .589844-.003906.882812-.003906 34.570313 0 66.601563 17.339844 85.816407 46.511718 2.308593 3.507813 7.023437 4.476563 10.53125 2.167969 3.507812-2.3125 4.476562-7.027343 2.167969-10.535156-5.660157-8.59375-12.300782-16.285156-19.703126-22.980469v-84.132812l10.722657 10.722656c1.425781 1.429688 3.359375 2.230469 5.375 2.230469 2.019531 0 3.953125-.800781 5.378906-2.230469l41.335937-41.335938c4.367188-1.304687 8.429688-5.105468 9.363282-12.765624 2.875-23.5625-23.507813-82.355469-60.066406-133.847657-27.988282-39.425781-86.226563-108.355469-161.8125-127.085937-10.503907-2.601563-21.609376-2.601563-32.113282 0-16.480468 4.085937-33.152344 10.835937-49.5625 20.066406-3.660156 2.058594-4.957031 6.695312-2.898437 10.355469 2.058593 3.660156 6.691406 4.957031 10.355469 2.898437 15.214843-8.558594 30.613281-14.804687 45.761718-18.558594 8.113282-2.007812 16.6875-2.007812 24.800782 0 39.3125 9.742188 79.972656 36.4375 117.59375 77.199219 29.671874 32.152344 57.300781 73.085938 75.800781 112.296875 11.660156 24.714844 16.019531 41.007813 16.988281 49.542969l-217.40625-217.40625c-1.425781-1.425781-3.359375-2.230469-5.378906-2.230469-2.015625 0-3.949219.804688-5.375 2.230469l-217.363282 217.359375c.492188-4.476562 1.925782-11.355469 5.320313-21.28125 5.667969-16.589844 15.160156-36.878906 26.734375-57.125 17.011719-29.757812 53.445312-85.558594 106.316406-124.914062 3.371094-2.507813 4.066406-7.269532 1.5625-10.640626-2.511718-3.367187-7.273437-4.066406-10.640625-1.558593-54.292969 40.410156-91.78125 97.273437-109.296875 127.574219-21.253906 36.769531-40.101562 81.714843-34.296875 99.230468 1.476563 4.464844 4.539063 7.523438 8.492188 8.6875l41.3125 41.308594c1.425781 1.429688 3.359375 2.230469 5.375 2.230469 2.019531 0 3.949219-.800781 5.378906-2.230469l10.71875-10.71875v45.21875c-4.824219 3.570312-9.441406 7.476562-13.804687 11.714844-25.355469 24.628906-39.859376 57.785156-40.839844 93.363281-.210938 7.703125.234375 15.375 1.300781 22.917969h-29.285156c-4.203125 0-7.605469 3.402344-7.605469 7.601562 0 4.199219 3.402344 7.605469 7.605469 7.605469h496.789062c4.203125 0 7.605469-3.40625 7.605469-7.605469 0-4.199218-3.402344-7.601562-7.605469-7.601562zm-305.128906-151.433594v-48.347656h50.945313v70.871094c-.992188-.621094-1.976563-1.257813-2.941407-1.917969-14.632812-10.019531-30.898437-16.953125-48.003906-20.605469zm66.152344 30.101562v-78.445312h50.949219v83.234375c-17.480469 2.992187-35.175782 1.261719-50.949219-4.789063zm-191.28125-57.292968-32.261719-32.261719 214.121094-214.121094 214.121094 214.121094-32.261719 32.261719-176.480469-176.484375c-1.425781-1.425781-3.359375-2.226563-5.378906-2.226563-2.015625 0-3.949219.800782-5.375 2.226563zm31.304687-9.796875 150.554688-150.558594 150.550781 150.554687v87.679688c-18.703125-12.0625-40.65625-18.710938-63.597656-18.710938-.335938 0-.679688 0-1.019531.003907-3.460938.027343-6.921876.214843-10.355469.542969v-88.472657c0-4.199219-3.40625-7.605469-7.605469-7.605469h-132.308594c-4.199218 0-7.605468 3.40625-7.605468 7.605469v53.605469c-4.335938-.417969-8.710938-.652344-13.117188-.65625-.019531 0-.035156 0-.058594 0-23.257812 0-45.644531 5.792969-65.4375 16.675781zm0 0"/><path d="m17.03125 84.789062c1.40625 2.441407 3.964844 3.804688 6.589844 3.804688 1.292968 0 2.601562-.328125 3.796875-1.019531l15.59375-9.003907v18.003907c0 4.199219 3.402343 7.605469 7.601562 7.605469s7.605469-3.40625 7.605469-7.605469v-18.003907l15.589844 9.003907c1.199218.691406 2.507812 1.019531 3.796875 1.019531 2.628906 0 5.183593-1.367188 6.589843-3.804688 2.101563-3.636718.855469-8.285156-2.78125-10.386718l-15.59375-9.003906 15.59375-9c3.636719-2.101563 4.882813-6.75 2.78125-10.386719-2.097656-3.636719-6.75-4.882813-10.386718-2.785157l-15.589844 9.003907v-18.003907c0-4.199218-3.40625-7.605468-7.605469-7.605468s-7.601562 3.40625-7.601562 7.605468v18.003907l-15.59375-9.003907c-3.640625-2.097656-8.289063-.851562-10.386719 2.785157-2.101562 3.636719-.855469 8.285156 2.78125 10.386719l15.59375 9-15.59375 9.003906c-3.636719 2.101562-4.882812 6.75-2.78125 10.386718zm0 0"/><path d="m439.917969 140.773438c1.40625 2.4375 3.960937 3.800781 6.589843 3.800781 1.289063 0 2.597657-.328125 3.796876-1.019531l15.589843-9v18.003906c0 4.199218 3.40625 7.601562 7.605469 7.601562s7.605469-3.402344 7.605469-7.601562v-18.003906l15.589843 9c1.199219.691406 2.503907 1.019531 3.796876 1.019531 2.625 0 5.183593-1.363281 6.589843-3.800781 2.101563-3.636719.855469-8.289063-2.78125-10.386719l-15.59375-9.003907 15.59375-9.003906c3.636719-2.097656 4.882813-6.75 2.78125-10.386718-2.097656-3.636719-6.75-4.882813-10.386719-2.78125l-15.589843 9v-18.003907c0-4.199219-3.40625-7.605469-7.605469-7.605469s-7.605469 3.40625-7.605469 7.605469v18.003907l-15.589843-9c-3.640626-2.101563-8.289063-.855469-10.386719 2.78125-2.101563 3.636718-.855469 8.289062 2.78125 10.386718l15.59375 9.003906-15.59375 9c-3.636719 2.101563-4.882813 6.753907-2.78125 10.390626zm0 0"/><path d="m369.964844 58.667969c1.410156 2.441406 3.964844 3.804687 6.59375 3.804687 1.289062 0 2.597656-.328125 3.792968-1.019531l15.59375-9.003906v18.003906c0 4.199219 3.402344 7.605469 7.601563 7.605469 4.203125 0 7.605469-3.40625 7.605469-7.605469v-18.003906l15.59375 9.003906c1.195312.691406 2.503906 1.019531 3.792968 1.019531 2.628907 0 5.183594-1.367187 6.59375-3.804687 2.097657-3.636719.851563-8.285157-2.785156-10.386719l-15.589844-9.003906 15.589844-9c3.636719-2.101563 4.882813-6.75 2.785156-10.386719-2.101562-3.636719-6.753906-4.882813-10.386718-2.785156l-15.59375 9.003906v-18.003906c0-4.199219-3.402344-7.605469-7.605469-7.605469-4.199219 0-7.601563 3.40625-7.601563 7.605469v18.003906l-15.59375-9.003906c-3.640624-2.101563-8.289062-.851563-10.386718 2.785156s-.851563 8.285156 2.785156 10.386719l15.589844 9-15.589844 9.003906c-3.636719 2.097656-4.882812 6.75-2.785156 10.386719zm0 0"/></svg>