<svg height="511pt" viewBox="-10 1 511 511.99893" width="511pt" xmlns="http://www.w3.org/2000/svg"><path d="m8.527344 245.394531 33.128906 258.578125 38.523438-192.625 30.5 117.179688 30.5-186.203125 24.078124 75.445312 52.433594-143.398437 45.484375 204.394531 36.917969-152.496094 17.660156 97.917969 27.285156-72.234375 49.761719 234.363281 30.5-146.074218 20.871094 96.3125 37.09375-191.160157-51.542969-14.308593-191.019531-176.574219-182.195313 182.191406zm0 0" fill="#d3ddea"/><g fill="#97b0cc"><path d="m41.65625 503.972656-2.664062-255.578125-30.464844-3zm0 0"/><path d="m110.679688 428.527344-24.964844-219.027344-18.894532 26.765625 13.359376 75.082031zm0 0"/><path d="m165.257812 317.769531-25.664062-174.253906 1.585938 98.808594zm0 0"/><path d="m263.175781 378.765625-37.253906-325.859375-8.230469 121.464844zm0 0"/><path d="m317.753906 324.1875-11.925781-249.878906-5.734375 151.960937zm0 0"/><path d="m394.800781 486.316406-21.90625-327.816406-27.855469 93.453125zm0 0"/><path d="m446.171875 436.554688-9.0625-223.117188-11.808594 126.804688zm0 0"/></g><path d="m437.863281 290.800781-191.96875-191.964843-191.964843 191.964843-45.402344-45.40625 237.367187-237.367187 237.371094 237.367187zm0 0" fill="#84abc1"/><path d="m488.941406 239.71875-48.691406-48.6875c-3.132812-3.136719-8.214844-3.136719-11.351562 0-3.132813 3.132812-3.132813 8.214844 0 11.351562l43.015624 43.011719-34.050781 34.054688-186.289062-186.289063c-1.507813-1.507812-3.546875-2.351562-5.675781-2.351562-2.128907 0-4.171876.84375-5.675782 2.351562l-186.292968 186.289063-34.050782-34.050781 226.015625-226.019532 159.28125 159.28125c3.136719 3.132813 8.21875 3.132813 11.351563 0 3.132812-3.136718 3.132812-8.21875 0-11.351562l-164.953125-164.957032c-1.507813-1.507812-3.546875-2.351562-5.679688-2.351562-2.128906 0-4.167969.84375-5.671875 2.351562l-237.371094 237.367188c-1.507812 1.507812-2.351562 3.546875-2.351562 5.675781 0 .324219.023438.644531.0625.960938.003906.019531 0 .039062.003906.058593l33.128906 258.578126c.5 3.902343 3.75 6.867187 7.679688 7.003906.09375 0 .1875.003906.285156.003906 3.808594 0 7.113282-2.691406 7.867188-6.453125l31.679687-158.398437 21.707031 83.402343c.953126 3.667969 4.355469 6.15625 8.136719 5.996094 3.789063-.175781 6.9375-2.980469 7.550781-6.722656l25.09375-153.214844 13.914063 43.597656c1.042969 3.265625 4.050781 5.511719 7.480469 5.582031 3.441406.042969 6.527344-2.042968 7.707031-5.265624l43.015625-117.644532 8.976562 40.339844c.964844 4.324219 5.253907 7.050781 9.578126 6.089844 4.328124-.960938 7.054687-5.25 6.09375-9.578125l-14.933594-67.105469c-.773438-3.480469-3.75-6.03125-7.308594-6.265625-3.554688-.226563-6.839844 1.90625-8.066406 5.253906l-44.378906 121.367188-16.949219-53.101563c-1.128907-3.535156-4.535157-5.835937-8.230469-5.566406-3.703125.273438-6.734375 3.046875-7.335938 6.710938l-24.367187 148.765624-20.941406-80.464843c-.941407-3.617188-4.257813-6.097657-8-6-3.738281.105469-6.90625 2.78125-7.640625 6.449219l-28.917969 144.589843-23.914063-186.667969 28.78125 28.78125c1.503907 1.503907 3.546876 2.351563 5.671876 2.351563 2.128906 0 4.171874-.847656 5.675781-2.351563l186.289062-186.289062 186.292969 186.289062c1.503906 1.503907 3.546875 2.351563 5.675781 2.351563 2.125 0 4.167969-.847656 5.671875-2.351563l26.851563-26.851562-24.648438 127.027344-12.59375-58.109375c-.796875-3.695313-4.066406-6.328125-7.84375-6.328125-.011719 0-.019531 0-.03125 0-3.789062.015625-7.050781 2.675781-7.824219 6.386718l-22.710937 108.757813-41.84375-197.070313c-.738281-3.488281-3.6875-6.066406-7.242187-6.339843-3.558594-.273438-6.859376 1.835937-8.117188 5.167969l-17.03125 45.085937-12.507812-69.355469c-.671876-3.734375-3.867188-6.488281-7.660157-6.597656-3.769531-.121094-7.144531 2.445312-8.039062 6.132812l-28.789063 118.914063-16.792968-75.460937c-.960938-4.328126-5.253907-7.054688-9.578126-6.09375-4.328124.964843-7.054687 5.253906-6.09375 9.578124l24.300782 109.191407c.808594 3.644531 4.027344 6.246093 7.757812 6.28125h.078125c3.699219 0 6.925781-2.53125 7.800781-6.136719l27.96875-115.527344 10.90625 60.484375c.640626 3.554688 3.574219 6.242188 7.167969 6.570313 3.597657.328125 6.964844-1.78125 8.242188-5.15625l17.613281-46.625 44.074219 207.582031c.789062 3.707031 4.0625 6.359375 7.851562 6.359375h.011719c3.796875-.007812 7.070312-2.671875 7.84375-6.386719l22.789062-109.140625 12.878907 59.4375c.800781 3.695313 4.070312 6.328125 7.84375 6.328125h.089843c3.808594-.042969 7.066407-2.753906 7.789063-6.496093l37.09375-191.140626c.496094-2.535156-.234375-5.261718-2.199219-7.226562zm0 0"/></svg>