<svg height="512pt" viewBox="0 -45 512 511" width="512pt" xmlns="http://www.w3.org/2000/svg"><path d="m504.394531 256.496094c0-137.183594-111.207031-248.394532-248.394531-248.394532-137.183594 0-248.394531 111.210938-248.394531 248.394532 0 59.269531 20.765625 113.707031 55.429687 156.410156h279.648438c-72.511719 0-131.292969-54.699219-131.292969-122.167969 0-67.472656 58.78125-122.167969 131.292969-122.167969 36.78125 0 70.023437 14.078126 93.859375 36.753907-22.28125 6.355469-38.601563 26.851562-38.601563 51.175781 0 29.394531 23.828125 53.226562 53.226563 53.226562 29.394531 0 53.222656-23.832031 53.222656-53.226562zm0 0" fill="#84abc1"/><path d="m211.382812 290.734375c0 67.472656 58.78125 122.171875 131.292969 122.171875h-171.515625c-37.042968-45.636719-74.058594-118.925781-36.820312-206.828125 74.191406-175.164063 271.710937-97.328125 302.199218-.75-23.835937-22.679687-57.082031-36.761719-93.863281-36.761719-72.511719 0-131.292969 54.695313-131.292969 122.167969zm0 0" fill="#4d87a1"/><path d="m504.394531 405.300781h-161.710937c-68.203125 0-123.691406-51.394531-123.691406-114.5625 0-63.171875 55.488281-114.566406 123.691406-114.566406 29.488281 0 57.304687 9.453125 79.546875 26.835937-19.265625 10.472657-31.894531 30.945313-31.894531 53.492188 0 33.539062 27.289062 60.828125 60.832031 60.828125 33.457031 0 60.695312-27.15625 60.828125-60.585937 0-.082032.003906-.164063.003906-.246094 0-49.058594-13.921875-96.734375-40.257812-137.863282-2.265626-3.535156-6.96875-4.566406-10.503907-2.300781-3.535156 2.261719-4.566406 6.964844-2.300781 10.503907 24.726562 38.613281 37.8125 83.367187 37.855469 129.441406 0 .074218-.003907.148437-.003907.222656 0 25.15625-20.464843 45.621094-45.621093 45.621094s-45.621094-20.464844-45.621094-45.621094c0-20.269531 13.601563-38.308594 33.082031-43.863281 2.625-.75 4.644532-2.847657 5.296875-5.496094.652344-2.648437-.167969-5.445313-2.140625-7.324219-26.335937-25.054687-61.53125-38.851562-99.101562-38.851562-76.589844 0-138.898438 58.214844-138.898438 129.773437 0 49.550781 29.882813 92.707031 73.695313 114.5625h-210.789063c-33.222656-42.222656-51.480468-94.917969-51.480468-148.800781 0-64.320312 25.046874-124.785156 70.527343-170.265625s105.949219-70.527344 170.265625-70.527344c72.125 0 139.847656 31.941407 185.808594 87.628907 2.671875 3.238281 7.464844 3.699218 10.703125 1.027343 3.238281-2.675781 3.699219-7.46875 1.027344-10.707031-48.859375-59.203125-120.859375-93.15625-197.539063-93.15625-68.378906 0-132.667968 26.628906-181.019531 74.980469-48.347656 48.351562-74.98046875 112.636719-74.98046875 181.015625 0 53.355468 16.84374975 105.613281 47.69140575 148.804687h-40.089843c-4.199219 0-7.605469 3.40625-7.605469 7.605469s3.40625 7.601562 7.605469 7.601562h496.789062c4.199219 0 7.601563-3.402343 7.601563-7.601562s-3.402344-7.605469-7.601563-7.605469zm0 0"/><path d="m318.210938 99.292969c-40.460938-9.753907-79.457032-5.519531-112.765626 12.238281-3.707031 1.976562-5.109374 6.582031-3.136718 10.285156 1.976562 3.707032 6.582031 5.109375 10.289062 3.136719 65.546875-34.941406 146.402344-6.253906 189.199219 38.472656 1.492187 1.5625 3.492187 2.347657 5.492187 2.347657 1.890626 0 3.785157-.703126 5.257813-2.109376 3.035156-2.902343 3.140625-7.71875.234375-10.753906-24.363281-25.460937-58.832031-45.007812-94.570312-53.617187zm0 0"/><path d="m172.566406 145.84375c-3.164062-2.761719-7.96875-2.433594-10.730468.730469-9.265626 10.621093-17.65625 22.898437-24.9375 36.492187-1.984376 3.699219-.589844 8.308594 3.113281 10.292969 1.140625.613281 2.371093.902344 3.582031.902344 2.714844 0 5.339844-1.457031 6.710938-4.015625 6.738281-12.585938 14.476562-23.914063 22.992187-33.671875 2.761719-3.164063 2.433594-7.96875-.730469-10.730469zm0 0"/><path d="m129.378906 218.488281c-4.015625-1.238281-8.269531 1.011719-9.507812 5.023438-15.933594 51.601562-9.871094 103.367187 18.015625 153.863281 1.386719 2.507812 3.984375 3.925781 6.664062 3.925781 1.242188 0 2.503907-.304687 3.667969-.949219 3.675781-2.027343 5.011719-6.65625 2.980469-10.332031-25.8125-46.738281-31.464844-94.519531-16.796875-142.023437 1.238281-4.011719-1.011719-8.265625-5.023438-9.507813zm0 0"/></svg>