<svg height="512pt" viewBox="0 -1 512 512" width="512pt" xmlns="http://www.w3.org/2000/svg"><path d="m504.394531 228.976562c0 46.117188-37.382812 83.503907-83.519531 83.503907h-302.222656c-61.324219 0-111.046875-49.710938-111.046875-111.046875 0-61.324219 49.722656-111.046875 111.042969-111.046875 5.503906 0 10.910156.421875 16.210937 1.191406 25.078125-49.800781 76.652344-83.976563 136.234375-83.976563 72.09375 0 132.492188 50.054688 148.355469 117.300782 1.582031 6.710937 2.726562 13.59375 3.386719 20.597656v.015625c45.207031 1.035156 81.558593 38 81.558593 83.460937zm0 0" fill="#d3ddea"/><path d="m324.078125 17.078125c-16.507813-6.128906-34.363281-9.46875-52.984375-9.46875-59.582031 0-111.140625 34.171875-136.238281 83.957031v.015625c-5.296875-.769531-10.703125-1.191406-16.207031-1.191406-61.339844 0-111.046876 49.722656-111.046876 111.046875 0 61.339844 49.710938 111.046875 111.046876 111.046875h53.671874c-55.269531 0-100.054687-44.800781-100.054687-100.058594 0-49.03125 35.269531-89.835937 81.839844-98.394531 4.609375-.863281 9.328125-1.394531 14.140625-1.582031 1.347656-.046875 2.710937-.078125 4.074218-.078125 17.964844 0 34.832032 4.730468 49.394532 13.039062-2.023438-14.097656-16.59375-27.300781-38.082032-37.941406 11.796876-39.902344 51.953126-76.910156 140.445313-70.390625zm0 0" fill="#97b0cc"/><path d="m269.457031 406.609375c0 20.027344-12.539062 37.113281-30.203125 43.835937-5.1875 1.984376-10.816406 3.0625-16.695312 3.0625-25.902344 0-46.914063-20.996093-46.914063-46.898437s21.011719-46.894531 46.914063-46.894531c5.878906 0 11.507812 1.078125 16.695312 3.0625 17.664063 6.722656 30.203125 23.808594 30.203125 43.832031zm0 0" fill="#97b0cc"/><path d="m269.457031 406.609375c0 20.027344-12.539062 37.113281-30.203125 43.835937-17.664062-6.722656-30.21875-23.808593-30.21875-43.835937 0-20.023437 12.554688-37.109375 30.21875-43.832031 17.664063 6.722656 30.203125 23.808594 30.203125 43.832031zm0 0" fill="#d3ddea"/><path d="m355.839844 479.246094c0 10.015625-6.269532 18.558594-15.101563 21.917968-2.597656.992188-5.410156 1.53125-8.347656 1.53125-12.953125 0-23.457031-10.496093-23.457031-23.449218 0-12.949219 10.503906-23.449219 23.457031-23.449219 2.9375 0 5.75.539063 8.347656 1.535156 8.832031 3.359375 15.101563 11.902344 15.101563 21.914063zm0 0" fill="#97b0cc"/><path d="m355.839844 479.246094c0 10.015625-6.269532 18.558594-15.101563 21.917968-8.832031-3.359374-15.109375-11.902343-15.109375-21.917968 0-10.011719 6.277344-18.554688 15.109375-21.914063 8.832031 3.359375 15.101563 11.902344 15.101563 21.914063zm0 0" fill="#d3ddea"/><path d="m486 165.265625c-15.171875-15.492187-34.972656-24.925781-56.339844-26.957031-.691406-5.082032-1.632812-10.15625-2.808594-15.148438-6.417968-27.203125-19.992187-52.390625-39.257812-72.84375-2.882812-3.058594-7.695312-3.199218-10.75-.320312-3.058594 2.878906-3.203125 7.691406-.320312 10.75 17.4375 18.507812 29.71875 41.300781 35.523437 65.90625 1.511719 6.390625 2.585937 12.925781 3.203125 19.417968.277344 3.875 3.464844 6.960938 7.410156 7.050782 19.898438.453125 38.53125 8.546875 52.476563 22.789062 13.964843 14.261719 21.65625 33.105469 21.65625 53.066406 0 41.851563-34.054688 75.898438-75.917969 75.898438h-302.226562c-57.035157 0-103.441407-46.40625-103.441407-103.441406 0-57.039063 46.40625-103.445313 103.441407-103.445313 4.941406 0 10.027343.375 15.117187 1.113281 3.238281.46875 6.414063-1.179687 7.882813-4.105468 11.894531-23.613282 30.027343-43.546875 52.4375-57.644532 23.03125-14.488281 49.660156-22.144531 77.007812-22.144531 30.1875 0 59.113281 9.195313 83.652344 26.589844 3.425781 2.429687 8.171875 1.621094 10.597656-1.804687 2.429688-3.425782 1.625-8.171876-1.804688-10.601563-27.121093-19.226563-59.089843-29.390625-92.445312-29.390625-30.21875 0-59.648438 8.464844-85.105469 24.480469-23.230469 14.613281-42.300781 34.910156-55.417969 58.910156-4.011718-.402344-8.003906-.609375-11.921874-.609375-65.421876 0-118.648438 53.226562-118.648438 118.652344 0 65.421875 53.226562 118.648437 118.648438 118.648437h302.226562c50.246094 0 91.125-40.871093 91.125-91.105469 0-23.964843-9.230469-46.589843-26-63.710937zm0 0"/><path d="m184.613281 124.273438c19.402344 0 24.0625 11.796874 24.558594 21.695312.21875 3.914062 3.273437 6.070312 8.605469 6.070312 5.449218 0 8.605468-1.53125 8.605468-9.375 0-20.050781-17.335937-34.058593-42.15625-34.058593-26.671874 0-41.964843 15.507812-41.964843 42.542969v58.039062c0 14.53125 4.152343 25.597656 12.339843 32.894531 7.089844 6.3125 17.265626 9.648438 29.429688 9.648438 24.933594 0 42.351562-14.242188 42.351562-34.636719 0-7.96875-3.292968-9.570312-8.605468-9.570312-5.308594 0-8.203125 2.035156-8.601563 6.035156-1.144531 8.960937-2.871093 22.503906-23.984375 22.503906-17.304687 0-25.71875-8.789062-25.71875-26.875v-58.039062c0-17.832032 8.457032-26.875 25.140625-26.875zm0 0"/><path d="m244.652344 151.148438v58.039062c0 27.433594 14.902344 42.542969 41.960937 42.542969 27.1875 0 42.160157-15.109375 42.160157-42.542969v-58.039062c0-27.433594-14.972657-42.542969-42.160157-42.542969-27.058593 0-41.960937 15.109375-41.960937 42.542969zm66.910156 58.039062c0 17.582031-8.628906 26.875-24.945312 26.875-16.195313 0-24.753907-9.292969-24.753907-26.875v-58.039062c0-17.582032 8.558594-26.875 24.753907-26.875 16.320312 0 24.945312 9.292968 24.945312 26.875zm0 0"/><path d="m380.1875 239.695312c10.773438-7.605468 24.183594-17.070312 24.183594-32.742187 0-14.578125-11.542969-25.574219-26.847656-25.574219-14.578126 0-25.574219 9.804688-25.574219 22.800782 0 7.574218 4.65625 8.703124 7.433593 8.703124 5.277344 0 8.125-3.53125 8.125-6.855468 0-8.3125 6.273438-9.550782 10.015626-9.550782 8.726562 0 11.054687 6.800782 11.054687 10.824219 0 7.992188-8.753906 14.34375-18.023437 21.066407-10.054688 7.292968-20.453126 14.832031-20.453126 25.84375v11.210937c0 3.832031 3.917969 6.507813 7.433594 6.507813h41.132813c3.824219 0 6.394531-3.84375 6.394531-7.433594 0-4.167969-2.808594-7.433594-6.394531-7.433594h-32.429688v-2.851562c0-4.671876 6.773438-9.453126 13.949219-14.515626zm0 0"/><path d="m222.550781 352.105469c-30.054687 0-54.503906 24.449219-54.503906 54.503906 0 6.582031 1.160156 13.023437 3.457031 19.136719 1.472656 3.933594 5.855469 5.921875 9.789063 4.449218 3.929687-1.472656 5.925781-5.855468 4.449219-9.789062-1.652344-4.402344-2.488282-9.042969-2.488282-13.796875 0-21.667969 17.628906-39.296875 39.296875-39.296875 21.671875 0 39.300781 17.628906 39.300781 39.296875s-17.628906 39.300781-39.300781 39.300781c-7.875 0-15.46875-2.320312-21.964843-6.707031-3.480469-2.351563-8.207032-1.4375-10.558594 2.042969-2.351563 3.480468-1.4375 8.207031 2.046875 10.558594 9.015625 6.089843 19.554687 9.3125 30.476562 9.3125 30.054688 0 54.507813-24.453126 54.507813-54.507813s-24.453125-54.503906-54.507813-54.503906zm0 0"/><path d="m332.386719 448.191406c-17.125 0-31.054688 13.929688-31.054688 31.054688s13.929688 31.054687 31.054688 31.054687 31.054687-13.929687 31.054687-31.054687-13.929687-31.054688-31.054687-31.054688zm0 46.902344c-8.738281 0-15.847657-7.109375-15.847657-15.847656 0-8.738282 7.109376-15.84375 15.847657-15.84375s15.847656 7.105468 15.847656 15.84375c0 8.738281-7.109375 15.847656-15.847656 15.847656zm0 0"/></svg>