<svg height="511pt" viewBox="0 -3 511.99987 511" width="511pt" xmlns="http://www.w3.org/2000/svg"><path d="m432.421875 300.824219v196.550781h-305.347656v-196.550781l152.667969-152.667969zm0 0" fill="#d3ddea"/><path d="m455.417969 296.761719-137.105469-206.980469-206.976562 137.105469-32.429688-48.957031 255.933594-169.53125 169.535156 255.933593zm0 0" fill="#ff7694"/><path d="m217.644531 285.570312h127.714844v127.714844h-127.714844zm0 0" fill="#fff"/><path d="m510.730469 260.121094-123.707031-186.753906c-2.324219-3.511719-7.054688-4.46875-10.566407-2.144532-3.511719 2.324219-4.472656 7.054688-2.148437 10.566406l119.496094 180.398438-36.242188 24.007812-132.890625-200.625c-1.117187-1.683593-2.855469-2.859374-4.839844-3.261718-1.980469-.402344-4.042969 0-5.726562 1.117187l-200.625 132.890625-24.003907-36.238281 243.21875-161.113281 24.800782 37.441406c2.324218 3.511719 7.054687 4.472656 10.566406 2.144531 3.511719-2.324219 4.472656-7.054687 2.148438-10.566406l-29.011719-43.796875c-2.328125-3.511719-7.054688-4.472656-10.570313-2.148438l-255.933594 169.535157c-3.507812 2.324219-4.46875 7.054687-2.144531 10.566406l32.429688 48.957031c2.324219 3.511719 7.054687 4.46875 10.566406 2.144532l200.621094-132.890626 132.894531 200.621094c1.117188 1.6875 2.855469 2.859375 4.839844 3.261719.503906.101563 1.011718.152344 1.515625.152344 1.488281 0 2.953125-.4375 4.210937-1.269531l48.957032-32.429688c3.507812-2.324219 4.46875-7.054688 2.144531-10.566406zm0 0"/><path d="m345.359375 420.910156c4.210937 0 7.625-3.414062 7.625-7.625v-127.714844c0-4.210937-3.414063-7.625-7.625-7.625h-127.714844c-4.210937 0-7.625 3.414063-7.625 7.625v127.714844c0 4.210938 3.414063 7.625 7.625 7.625zm-7.625-15.25h-48.609375v-112.464844h48.609375zm-112.464844-112.464844h48.605469v112.464844h-48.605469zm0 0"/><path d="m285.132812 142.761719c-2.976562-2.976563-7.804687-2.976563-10.78125 0l-152.667968 152.671875c-1.429688 1.429687-2.234375 3.367187-2.234375 5.390625v54.265625c0 4.210937 3.414062 7.625 7.625 7.625 4.214843 0 7.625-3.414063 7.625-7.625v-51.109375l145.042969-145.042969 145.054687 145.046875v185.765625h-290.097656v-104.160156c0-4.210938-3.414063-7.625-7.625-7.625-4.210938 0-7.625 3.414062-7.625 7.625v111.785156c0 4.210938 3.414062 7.625 7.625 7.625h305.347656c4.210937 0 7.625-3.414062 7.625-7.625v-196.550781c0-2.023438-.804687-3.960938-2.234375-5.394531zm0 0"/><path d="m8.367188 76.921875h172.015624c21.066407 0 38.207032-17.144531 38.207032-38.210937 0-21.070313-17.136719-38.210938-38.207032-38.210938-21.070312 0-38.210937 17.140625-38.210937 38.210938 0 4.210937 3.414063 7.625 7.625 7.625s7.625-3.414063 7.625-7.625c0-12.660157 10.300781-22.960938 22.960937-22.960938 12.660157 0 22.957032 10.300781 22.957032 22.960938 0 12.660156-10.296875 22.960937-22.957032 22.960937h-172.015624c-4.210938 0-7.625 3.414063-7.625 7.625s3.414062 7.625 7.625 7.625zm0 0"/><path d="m8.367188 165.480469h51.027343c21.070313 0 38.210938-17.140625 38.210938-38.210938 0-21.070312-17.140625-38.210937-38.210938-38.210937-21.070312 0-38.210937 17.140625-38.210937 38.210937 0 4.210938 3.414062 7.625 7.625 7.625 4.214844 0 7.625-3.414062 7.625-7.625 0-12.660156 10.300781-22.960937 22.960937-22.960937 12.660157 0 22.960938 10.300781 22.960938 22.960937 0 12.660157-10.300781 22.957031-22.960938 22.957031h-51.027343c-4.210938 0-7.625 3.414063-7.625 7.625 0 4.214844 3.414062 7.628907 7.625 7.628907zm0 0"/><path d="m69.5625 321.984375h-61.195312c-4.210938 0-7.625 3.414063-7.625 7.625s3.414062 7.625 7.625 7.625h61.195312c12.660156 0 22.957031 10.300781 22.957031 22.960937 0 12.660157-10.296875 22.960938-22.957031 22.960938s-22.960938-10.300781-22.960938-22.960938c0-4.210937-3.414062-7.625-7.625-7.625-4.210937 0-7.625 3.414063-7.625 7.625 0 21.066407 17.140626 38.210938 38.210938 38.210938s38.207031-17.144531 38.207031-38.210938c0-21.070312-17.136719-38.210937-38.207031-38.210937zm0 0"/><path d="m7.625 209.195312h42.703125c4.214844 0 7.625-3.414062 7.625-7.625 0-4.210937-3.410156-7.625-7.625-7.625h-42.703125c-4.210938 0-7.625 3.414063-7.625 7.625 0 4.210938 3.414062 7.625 7.625 7.625zm0 0"/><path d="m7.625 251.898438h73.203125c4.214844 0 7.628906-3.414063 7.628906-7.625 0-4.210938-3.414062-7.625-7.628906-7.625h-73.203125c-4.210938 0-7.625 3.414062-7.625 7.625 0 4.210937 3.414062 7.625 7.625 7.625zm0 0"/><path d="m109.296875 276.296875h-69.132813c-4.214843 0-7.625 3.414063-7.625 7.625s3.410157 7.625 7.625 7.625h69.132813c4.210937 0 7.625-3.414063 7.625-7.625s-3.414063-7.625-7.625-7.625zm0 0"/></svg>