<svg height="512pt" viewBox="0 -8 512.0023 512" width="512pt" xmlns="http://www.w3.org/2000/svg"><path d="m504.390625 312.5c-19.46875 2.246094-40.375-4.570312-56.011719-20.207031-15.644531-15.644531-22.460937-36.550781-20.210937-56.015625-19.472657 2.246094-40.375-4.570313-56.011719-20.210938-15.644531-15.640625-22.460938-36.546875-20.210938-56.011718-19.472656 2.246093-40.375-4.570313-56.011718-20.210938-15.644532-15.640625-22.460938-36.546875-20.210938-56.011719-19.472656 2.246094-40.375-4.570312-56.011718-20.210937-15.644532-15.640625-22.464844-36.546875-20.210938-56.011719-84.191406 84.191406-84.191406 220.699219 0 304.890625 84.195312 84.195312 220.699219 84.195312 304.890625 0zm0 0" fill="#84abc1"/><path d="m199.5 312.5c42.101562 42.101562 144.476562 7.972656 228.667969-76.222656-2.253907 19.464844 4.566406 40.371094 20.210937 56.015625 15.636719 15.636719 36.542969 22.453125 56.011719 20.207031-84.191406 84.195312-220.699219 84.195312-304.890625 0zm0 0" fill="#d3ddea"/><path d="m275.722656 83.832031c-2.253906 19.464844 4.566406 40.371094 20.210938 56.011719 15.636718 15.636719 36.542968 22.457031 56.011718 20.210938l-152.445312 152.445312c-42.09375-42.09375-7.972656-144.472656 76.222656-228.667969zm0 0" fill="#d3ddea"/><path d="m190.664062 303.121094-6.714843 6.710937c-5.035157 5.035157-5.042969 13.191407-.007813 18.226563s13.199219 5.035156 18.230469 0l6.714844-6.714844" fill="#84abc1"/><path d="m22.398438 440.28125c-15.007813-14.558594-18.621094-36.398438-10.832032-54.460938 3.675782-8.519531 14.855469-10.574218 21.417969-4.007812 3.761719 3.761719 5.023437 9.46875 2.878906 14.335938-3.574219 8.117187-2.109375 17.9375 4.390625 24.660156 8.777344 9.078125 23.4375 8.839844 32.363282-.085938l40.230468-40.230468c5.152344-5.152344 13.511719-5.152344 18.664063 0 5.15625 5.15625 5.15625 13.511718 0 18.667968l-40.0625 40.066406c-18.953125 18.949219-49.8125 19.714844-69.050781 1.054688zm0 0" fill="#84abc1"/><path d="m28.957031 162.472656c1.949219 0 3.898438-.742187 5.382813-2.230468l94.738281-94.738282c7.203125-7.203125 11.167969-16.777344 11.167969-26.964844s-3.964844-19.765624-11.167969-26.964843c-7.203125-7.203125-16.777344-11.171875-26.964844-11.171875s-19.765625 3.96875-26.964843 11.171875c-7.203126 7.199219-11.171876 16.777343-11.171876 26.964843s3.96875 19.761719 11.171876 26.964844c2.972656 2.972656 7.789062 2.972656 10.761718 0s2.972656-7.789062 0-10.761718c-8.9375-8.933594-8.9375-23.472657 0-32.40625 8.933594-8.933594 23.472656-8.933594 32.40625 0 4.328125 4.328124 6.710938 10.082031 6.710938 16.203124 0 6.121094-2.382813 11.875-6.710938 16.203126l-94.738281 94.738281c-2.972656 2.972656-2.972656 7.792969 0 10.761719 1.484375 1.488281 3.433594 2.230468 5.378906 2.230468zm0 0"/><path d="m27.113281 304.714844c1.949219 0 3.894531-.742188 5.382813-2.226563l69.789062-69.789062c14.867188-14.867188 14.867188-39.0625 0-53.929688-7.203125-7.207031-16.78125-11.171875-26.96875-11.171875-10.183594 0-19.761718 3.96875-26.964844 11.171875-7.203124 7.199219-11.171874 16.777344-11.171874 26.964844s3.96875 19.761719 11.171874 26.964844c2.972657 2.972656 7.789063 2.972656 10.761719 0 2.972657-2.972657 2.972657-7.789063 0-10.761719-8.933593-8.933594-8.933593-23.472656 0-32.40625 4.328125-4.328125 10.082031-6.710938 16.203125-6.710938s11.878906 2.382813 16.207032 6.710938c4.328124 4.328125 6.710937 10.082031 6.710937 16.203125s-2.386719 11.875-6.714844 16.203125l-69.785156 69.789062c-2.972656 2.96875-2.972656 7.789063 0 10.761719 1.484375 1.484375 3.429687 2.226563 5.378906 2.226563zm0 0"/><path d="m276.386719 408.566406c0-10.1875-3.96875-19.765625-11.171875-26.96875s-16.777344-11.167968-26.964844-11.167968-19.765625 3.964843-26.964844 11.167968l-100.988281 100.988282c-2.972656 2.972656-2.972656 7.792968 0 10.765624 1.484375 1.484376 3.433594 2.226563 5.378906 2.226563 1.949219 0 3.898438-.742187 5.382813-2.226563l100.988281-100.992187c4.328125-4.328125 10.082031-6.710937 16.203125-6.710937s11.875 2.382812 16.203125 6.710937c4.328125 4.332031 6.714844 10.085937 6.714844 16.203125 0 6.121094-2.386719 11.875-6.714844 16.207031-8.933594 8.929688-23.472656 8.933594-32.40625 0-2.972656-2.972656-7.789063-2.972656-10.761719 0-2.972656 2.96875-2.972656 7.789063 0 10.761719 7.203125 7.203125 16.78125 11.167969 26.964844 11.167969 10.1875 0 19.765625-3.964844 26.96875-11.167969 7.199219-7.203125 11.167969-16.78125 11.167969-26.964844zm0 0"/><path d="m473.46875 370.429688c-10.1875 0-19.765625 3.964843-26.96875 11.171874l-100.988281 100.984376c-2.972657 2.972656-2.972657 7.792968 0 10.765624 1.484375 1.484376 3.433593 2.226563 5.382812 2.226563 1.945313 0 3.894531-.742187 5.378907-2.226563l100.992187-100.992187c4.328125-4.328125 10.082031-6.710937 16.203125-6.710937 6.117188 0 11.875 2.382812 16.199219 6.710937 4.332031 4.332031 6.714843 10.085937 6.714843 16.203125 0 6.121094-2.386718 11.875-6.714843 16.207031-4.324219 4.324219-10.082031 6.710938-16.199219 6.710938-6.121094 0-11.875-2.386719-16.203125-6.710938-2.972656-2.972656-7.792969-2.972656-10.761719 0-2.976562 2.96875-2.976562 7.789063-.003906 10.761719 7.203125 7.203125 16.78125 11.167969 26.96875 11.167969 10.183594 0 19.761719-3.964844 26.964844-11.167969s11.167968-16.78125 11.167968-26.964844c0-10.1875-3.964843-19.765625-11.167968-26.96875s-16.78125-11.167968-26.964844-11.167968zm0 0"/><path d="m141.242188 381.527344 43.742187-43.738282c2.519531 1.078126 5.25 1.65625 8.074219 1.65625 5.476562 0 10.625-2.132812 14.496094-6.003906l1.738281-1.742187c40.53125 33.667969 91.324219 51.535156 142.917969 51.535156 26.527343 0 53.261718-4.71875 78.917968-14.433594 3.929688-1.488281 5.910156-5.882812 4.421875-9.8125-1.488281-3.933593-5.882812-5.910156-9.8125-4.421875-60.480469 22.902344-127.402343 16.003906-181.316406-16.507812 1.671875.074218 3.355469.125 5.070313.125 15.351562 0 32.492187-3.054688 50.960937-9.210938 39.855469-13.285156 82.121094-39.730468 120.453125-75.160156 2.328125 16.207031 10.023438 31.796875 22.089844 43.863281 11.707031 11.707031 26.742187 19.324219 42.4375 21.886719-11.367188 9.535156-23.679688 17.804688-36.769532 24.683594-3.71875 1.957031-5.148437 6.554687-3.195312 10.277344 1.957031 3.722656 6.558594 5.152343 10.277344 3.195312 19.847656-10.429688 38.023437-23.832031 54.027344-39.832031 1.558593-1.5625 2.363281-3.722657 2.210937-5.921875-.15625-2.203125-1.261719-4.226563-3.027344-5.550782-1.558593-1.167968-3.496093-1.699218-5.4375-1.472656-17.816406 2.054688-36.414062-4.6875-49.757812-18.03125-13.351563-13.347656-20.09375-31.949218-18.035157-49.757812.269532-2.304688-.535156-4.609375-2.175781-6.253906-1.644531-1.640626-3.9375-2.445313-6.253906-2.179688-17.8125 2.050781-36.417969-4.6875-49.761719-18.03125-13.347656-13.347656-20.089844-31.949219-18.03125-49.753906.269532-2.308594-.535156-4.613282-2.175781-6.257813-1.644531-1.640625-3.941406-2.449219-6.253906-2.179687-17.816407 2.054687-36.417969-4.683594-49.761719-18.03125-13.347656-13.347656-20.089844-31.949219-18.03125-49.753906.269531-2.308594-.535156-4.613282-2.179688-6.257813-1.640624-1.640625-3.941406-2.445313-6.253906-2.179687-17.804687 2.054687-36.414062-4.683594-49.757812-18.03125-13.351563-13.347657-20.089844-31.949219-18.03125-49.757813.371094-3.214844-1.332032-6.316406-4.246094-7.726563-2.914062-1.40625-6.40625-.820312-8.695312 1.472657-42.15625 42.15625-65.375 98.207031-65.375 157.828125 0 52.730468 18.175781 102.664062 51.542968 142.671875l-1.722656 1.722656c-3.871094 3.871094-6.003906 9.015625-6.007812 14.488281 0 2.828125.578124 5.566406 1.660156 8.085938l-43.738282 43.738281c-7.609374-3.304687-16.800781-1.867187-23.015624 4.347656l-40.230469 40.230469c-2.933594 2.933594-6.980469 4.621094-11.144531 4.566406-3.980469-.035156-7.660157-1.59375-10.363282-4.390625-4.207031-4.347656-5.34375-10.746093-2.894531-16.300781 3.347656-7.609375 1.554687-16.765625-4.464844-22.789062-4.890625-4.890626-11.871093-7.03125-18.671875-5.730469-6.75 1.292969-12.402344 5.820312-15.113281 12.109375-9.238281 21.421875-4.207031 46.714844 12.519531 62.9375 10.789063 10.464844 24.886719 15.675781 39.050782 15.675781 14.710937 0 29.488281-5.625 40.679687-16.8125l40.0625-40.066406c6.21875-6.214844 7.65625-15.402344 4.351563-23.015625zm225.53125-160.078125c11.839843 11.839843 27.074218 19.480469 42.960937 21.960937-36.53125 33.59375-76.53125 58.601563-114.089844 71.121094-36.328125 12.105469-66.082031 11.164062-84.941406-2.464844l134.042969-134.046875c2.398437 16.054688 10.070312 31.472657 22.027344 43.429688zm-174.335938-194.886719c2.5625 15.699219 10.179688 30.730469 21.890625 42.441406 12.066406 12.066406 27.660156 19.761719 43.875 22.085938-26.046875 28.191406-47.398437 58.699218-62.214844 89.039062-1.84375 3.777344-.277343 8.335938 3.5 10.179688 1.074219.523437 2.214844.773437 3.332031.773437 2.816407 0 5.527344-1.574219 6.84375-4.273437 14.027344-28.71875 34.242188-57.660156 58.925782-84.519532 2.484375 15.875 10.125 31.101563 21.960937 42.9375 11.960938 11.960938 27.378907 19.628907 43.4375 22.027344l-134.035156 134.035156c-14.027344-19.617187-14.476563-51.609374-.929687-89.40625 1.417968-3.957031-.640626-8.3125-4.597657-9.730468-3.960937-1.417969-8.3125.640625-9.730469 4.597656-8.050781 22.464844-11.625 43.019531-10.796874 60.9375-19.503907-32.132812-29.933594-69.078125-29.933594-107.628906 0-49.378906 17.089844-96.125 48.472656-133.496094zm1.683594 291.320312c1.246094 1.25 2.507812 2.472657 3.777344 3.6875l-1.105469 1.105469c-.996094 1-2.324219 1.546875-3.734375 1.546875s-2.730469-.546875-3.726563-1.539062c0 0 0-.003906-.003906-.003906 0 0-.003906-.003907-.007813-.007813-.992187-.992187-1.539062-2.316406-1.539062-3.722656 0-1.410157.550781-2.734375 1.550781-3.734375l1.101563-1.105469c1.214844 1.269531 2.441406 2.527344 3.6875 3.773437zm-67.988282 75.894532-40.066406 40.066406c-16.121094 16.121094-42.304687 16.558594-58.371094.976562-12.214843-11.851562-15.890624-30.332031-9.140624-45.984374 1.03125-2.382813 3.140624-3.023438 4-3.1875.257812-.050782.636718-.101563 1.085937-.101563 1.089844 0 2.617187.296875 3.960937 1.644531 1.617188 1.617188 2.136719 3.984375 1.296876 5.890625-4.949219 11.242188-2.640626 24.199219 5.882812 33.015625 5.5625 5.753906 13.085938 8.960938 21.179688 9.027344.085937 0 .167968.003906.253906.003906 8.113281 0 16.042968-3.28125 21.785156-9.027344l40.226562-40.226562c2.179688-2.179688 5.726563-2.183594 7.90625 0 1.054688 1.054688 1.636719 2.457031 1.636719 3.949219 0 1.492187-.582031 2.898437-1.636719 3.953125zm0 0"/><path d="m26.46875 352.777344c1.945312 0 3.894531-.742188 5.382812-2.230469l71.027344-71.027344c2.972656-2.972656 2.972656-7.792969 0-10.761719-2.972656-2.972656-7.789062-2.972656-10.761718 0l-71.03125 71.027344c-2.972657 2.972656-2.972657 7.792969 0 10.761719 1.488281 1.488281 3.433593 2.230469 5.382812 2.230469zm0 0"/><path d="m347.425781 401.683594c-2.972656-2.972656-7.792969-2.972656-10.765625 0l-71.027344 71.027344c-2.972656 2.972656-2.972656 7.792968 0 10.765624 1.484376 1.484376 3.433594 2.226563 5.382813 2.226563 1.945313 0 3.894531-.742187 5.378906-2.226563l71.03125-71.03125c2.972657-2.972656 2.972657-7.789062 0-10.761718zm0 0"/></svg>