<svg height="512pt" viewBox="-44 0 512 512" width="512pt" xmlns="http://www.w3.org/2000/svg"><path d="m38.683594 40.832031c-37.046875 93.234375-14.40625 226.078125 98.800781 288.074219 113.203125 61.996094-22.644531 109.347656-22.644531 183.09375h39.109375c0-76.613281 190.585937-62.242188 190.585937-170.722656 0-79.941406-105.511718-200.195313 62.875-291.210938" fill="#84abc1"/><path d="m415.351562 40.832031c0-18.289062-84.320312-33.113281-188.332031-33.113281-104.015625 0-188.335937 14.824219-188.335937 33.113281 0 18.289063 84.320312 33.113281 188.335937 33.113281 104.011719 0 188.332031-14.824218 188.332031-33.113281zm0 0" fill="#4d87a1"/><path d="m227.019531 81.664062c-50.742187 0-98.511719-3.484374-134.507812-9.816406-55.164063-9.699218-61.546875-22.347656-61.546875-31.015625s6.382812-21.316406 61.546875-31.015625c35.996093-6.332031 83.765625-9.816406 134.507812-9.816406 50.738281 0 98.507813 3.484375 134.507813 9.816406 55.164062 9.699219 61.542968 22.347656 61.542968 31.015625 0 12.101563-14.707031 18.558594-25.765624 22.359375-13.492188 4.636719-33.003907 8.71875-56.433594 11.804688-4.230469.5625-8.101563-2.414063-8.660156-6.640625-.558594-4.226563 2.417968-8.105469 6.644531-8.664063 49.664062-6.542968 65.804687-15.359375 68.53125-18.855468-2.367188-2.96875-15.222657-10.417969-53.597657-16.675782-34.515624-5.625-79.535156-8.722656-126.769531-8.722656s-92.257812 3.097656-126.769531 8.726562c-38.355469 6.25-51.21875 13.695313-53.601562 16.667969 2.382812 2.972657 15.246093 10.417969 53.601562 16.671875 34.511719 5.625 79.535156 8.722656 126.769531 8.722656 28.78125 0 56.375-1.117187 82.011719-3.324218 4.25-.367188 7.988281 2.78125 8.351562 7.027344.367188 4.25-2.78125 7.988281-7.027343 8.351562-26.078125 2.246094-54.113281 3.382812-83.335938 3.382812zm0 0"/><path d="m256.019531 137.089844c-23.273437 0-48.730469-1.179688-74.953125-3.519532-46.910156-4.1875-90.777344-11.609374-123.515625-20.898437-38.355469-10.882813-55.648437-22.316406-54.429687-35.980469.378906-4.246094 4.125-7.378906 8.375-7 4.160156.371094 7.253906 3.980469 7.019531 8.121094.457031.933594 5.917969 9.929688 47.394531 21.15625 31.367188 8.492188 72.75 15.316406 116.53125 19.226562 43.777344 3.90625 85.71875 4.519532 118.09375 1.71875 42.808594-3.703124 49.777344-11.589843 50.394532-12.425781.5-4.117187 4.1875-7.132812 8.347656-6.753906 4.246094.378906 7.378906 4.128906 7 8.375-1.21875 13.664063-20.265625 21.855469-59.941406 25.773437-14.9375 1.472657-31.949219 2.207032-50.316407 2.207032zm0 0"/><path d="m112.765625 286.75c-.175781 0-.355469-.003906-.53125-.015625-54.390625-3.710937-82.484375-14.1875-83.503906-31.132813-.257813-4.253906 2.984375-7.910156 7.238281-8.167968 4.265625-.257813 7.914062 2.984375 8.167969 7.238281.707031 2.527344 14.535156 12.933594 69.148437 16.660156 4.25.292969 7.464844 3.972657 7.175782 8.226563-.28125 4.074218-3.671876 7.191406-7.695313 7.191406zm0 0"/><path d="m150.050781 287.953125c-2.171875 0-4.332031-.007813-6.480469-.03125-4.261718-.042969-7.683593-3.535156-7.636718-7.796875.042968-4.261719 3.503906-7.652344 7.796875-7.640625 15.191406.160156 31.042969-.253906 47.121093-1.222656 39.085938-2.359375 75.890626-7.796875 103.625-15.304688 37.105469-10.050781 40.015626-18.78125 40.027344-18.867187-.253906-4.253906 2.984375-7.882813 7.242188-8.136719 4.246094-.257813 7.910156 3.011719 8.167968 7.269531.808594 13.394532-15.21875 24.507813-48.992187 33.96875-29.011719 8.128906-67.773437 13.980469-109.140625 16.476563-14.167969.855469-28.175781 1.285156-41.730469 1.285156zm0 0"/><path d="m231 244.5625c-19.859375 0-41.308594-.984375-63.339844-2.949219-42.820312-3.824219-82.84375-10.914062-112.695312-19.960937-34.679688-10.515625-50.957032-22.136719-49.761719-35.539063.378906-4.246093 4.125-7.390625 8.375-7 4.21875.375 7.339844 4.082031 7.007813 8.292969.5 2.304688 9.132812 10.8125 41.769531 20.339844 28.554687 8.332031 66.4375 14.898437 106.679687 18.492187 40.238282 3.589844 78.6875 3.835938 108.265625.695313 33.808594-3.59375 43.808594-10.4375 44.707031-12.617188.421876-4.203125 4.152344-7.300781 8.367188-6.921875 4.246094.378907 7.382812 4.128907 7.003906 8.375-1.195312 13.402344-19.277344 21.957031-55.269531 26.160157-15.042969 1.753906-32.367187 2.632812-51.109375 2.632812zm0 0"/><path d="m162.160156 345.367188c-10.886718 0-21.066406-.515626-30.257812-1.554688-29.335938-3.320312-45.148438-11.558594-46.992188-24.488281-.601562-4.222657 2.328125-8.132813 6.550782-8.734375 4.222656-.605469 8.128906 2.332031 8.730468 6.550781.230469 1.621094 6.585938 8.292969 33.445313 11.332031 24.054687 2.722656 55.492187 1.625 88.523437-3.089844 33.03125-4.714843 63.519532-12.457031 85.851563-21.800781 24.9375-10.4375 29.171875-18.617187 28.9375-20.238281-.601563-4.222656 2.332031-8.128906 6.550781-8.734375 4.222656-.605469 8.128906 2.332031 8.734375 6.550781 1.84375 12.929688-11.027344 25.265625-38.265625 36.660156-23.503906 9.835938-55.335938 17.949219-89.628906 22.84375-21.839844 3.117188-43.089844 4.703126-62.179688 4.703126zm0 0"/><path d="m242.269531 396.640625c-47.625 0-91.242187-11.015625-92.703125-34.5625-.261718-4.253906 2.972656-7.917969 7.226563-8.179687 4.242187-.269532 7.917969 2.96875 8.183593 7.226562.53125 8.601562 34.886719 23.285156 95.953126 19.496094 61.066406-3.785156 93.34375-22.59375 92.808593-31.199219-.261719-4.253906 2.972657-7.917969 7.230469-8.179687 4.234375-.269532 7.914062 2.96875 8.179688 7.226562 1.65625 26.753906-52.707032 44.175781-107.261719 47.558594-6.550781.40625-13.121094.613281-19.617188.613281zm0 0"/><path d="m245.269531 447.703125c-4.082031 0-8.230469-.132813-12.414062-.40625-21.71875-1.421875-42.023438-6.421875-57.164063-14.082031-17.167968-8.683594-26.1875-20.132813-25.394531-32.242188.28125-4.253906 3.957031-7.476562 8.207031-7.199218 4.253906.28125 7.476563 3.953124 7.199219 8.207031-.347656 5.304687 6.148437 11.992187 16.957031 17.460937 13.328125 6.738282 31.511719 11.160156 51.207032 12.449219 19.691406 1.292969 38.296874-.722656 52.390624-5.667969 11.425782-4.011718 18.738282-9.796875 19.085938-15.101562.28125-4.253906 3.957031-7.484375 8.207031-7.195313 4.253907.277344 7.476563 3.949219 7.199219 8.203125-.792969 12.109375-11.226562 22.285156-29.382812 28.660156-12.925782 4.535157-28.964844 6.914063-46.097657 6.914063zm0 0"/><path d="m210.160156 483.171875c-10.324218 0-23.140625-2.128906-36.164062-6.007813-13.25-3.949218-25.324219-9.296874-34-15.058593-14.257813-9.472657-15.398438-17.667969-13.847656-22.875 1.214843-4.082031 5.511718-6.414063 9.601562-5.191407 3.769531 1.121094 6.039062 4.867188 5.414062 8.648438 1.816407 3.625 14.234376 12.824219 37.238282 19.679688 23.007812 6.855468 38.4375 5.953124 41.9375 3.914062 1.546875-3.507812 5.496094-5.402344 9.265625-4.277344 4.085937 1.21875 6.410156 5.515625 5.191406 9.601563-1.550781 5.210937-6.992187 11.441406-24.109375 11.5625-.171875 0-.351562.003906-.527344.003906zm-69.214844-39.539063v.003907s0 0 0-.003907zm0 0"/><path d="m151.628906 510.035156c-3.042968 0-6.167968-.160156-9.324218-.480468-10.53125-1.074219-20.367188-3.855469-27.699219-7.832032-12.648438-6.855468-13.816407-14.949218-13.386719-19.164062.433594-4.242188 4.222656-7.328125 8.460938-6.898438 4.152343.425782 7.195312 4.0625 6.917968 8.191406 1.011719 2.363282 10.191406 8.601563 27.273438 10.34375 17.082031 1.738282 27.332031-2.519531 28.796875-4.628906.5625-4.097656 4.285156-7.050781 8.429687-6.625 4.242188.433594 7.328125 4.222656 6.894532 8.460938-.429688 4.214844-3.207032 11.910156-16.976563 16.070312-5.589844 1.691406-12.269531 2.5625-19.386719 2.5625zm-35.050781-25.914062v.003906zm0 0"/><path d="m151.554688 185.125c-35.878907 0-69.113282-2.324219-95.433594-6.75-37.890625-6.367188-55.722656-15.707031-56.11718775-29.382812-.12500025-4.261719 3.23046875-7.816407 7.49218775-7.9375 4.203125-.109376 7.71875 3.140624 7.929687 7.316406.429688.746094 6.105469 9 46.984375 15.382812 30.839844 4.816406 71.097656 6.796875 113.363282 5.578125 42.261718-1.21875 82.339843-5.511719 112.851562-12.09375 40.441406-8.726562 45.636719-17.292969 46.019531-18.0625-.027343-4.183593 3.292969-7.640625 7.496094-7.761719 4.265625-.121093 7.8125 3.230469 7.9375 7.492188.394531 13.679688-16.871094 24.027344-54.332031 32.566406-31.898438 7.269532-74.347656 11.988282-119.53125 13.292969-8.320313.238281-16.558594.359375-24.660156.359375zm183.089843-45.773438h.011719zm0 0"/></svg>