<svg height="511pt" viewBox="-15 1 511 511.99899" width="511pt" xmlns="http://www.w3.org/2000/svg"><path d="m386.429688 139.34375c1.398437 2.425781 3.941406 3.78125 6.554687 3.78125 1.28125 0 2.582031-.324219 3.773437-1.011719l15.507813-8.953125v17.90625c0 4.175782 3.382813 7.558594 7.5625 7.558594 4.175781 0 7.558594-3.382812 7.558594-7.558594v-17.90625l15.507812 8.953125c1.191407.6875 2.492188 1.011719 3.773438 1.011719 2.613281 0 5.15625-1.355469 6.554687-3.78125 2.089844-3.617188.851563-8.242188-2.765625-10.328125l-15.507812-8.953125 15.507812-8.953125c3.617188-2.085937 4.855469-6.710937 2.765625-10.328125-2.085937-3.617188-6.714844-4.859375-10.328125-2.769531l-15.507812 8.953125v-17.90625c0-4.175782-3.382813-7.558594-7.558594-7.558594-4.179687 0-7.5625 3.382812-7.5625 7.558594v17.90625l-15.507813-8.953125c-3.617187-2.089844-8.242187-.847657-10.328124 2.769531-2.089844 3.617188-.847657 8.242188 2.765624 10.328125l15.507813 8.953125-15.507813 8.953125c-3.617187 2.085937-4.855468 6.710937-2.765624 10.328125zm0 0"/><path d="m153.105469 399.175781c-2.089844-3.617187-6.714844-4.855469-10.332031-2.765625l-28.089844 16.21875v-32.4375c0-4.175781-3.382813-7.5625-7.5625-7.5625-4.175782 0-7.558594 3.386719-7.558594 7.5625v32.4375l-28.09375-16.21875c-3.617188-2.089844-8.238281-.851562-10.328125 2.765625-2.089844 3.617188-.847656 8.242188 2.765625 10.328125l28.09375 16.21875-28.09375 16.21875c-3.613281 2.089844-4.855469 6.714844-2.765625 10.332032 1.398437 2.425781 3.941406 3.78125 6.554687 3.78125 1.285157 0 2.585938-.328126 3.773438-1.015626l28.09375-16.21875v32.4375c0 4.175782 3.382812 7.5625 7.558594 7.5625 4.179687 0 7.5625-3.386718 7.5625-7.5625v-32.4375l28.089844 16.21875c1.191406.6875 2.492187 1.015626 3.777343 1.015626 2.613281 0 5.152344-1.355469 6.554688-3.78125 2.085937-3.617188.847656-8.242188-2.769531-10.332032l-28.089844-16.21875 28.089844-16.21875c3.617187-2.085937 4.855468-6.710937 2.769531-10.328125zm0 0"/><path d="m228.183594 225.554688 60.753906 35.074218c1.1875.6875 2.488281 1.011719 3.773438 1.011719 2.613281 0 5.152343-1.355469 6.554687-3.78125 2.085937-3.617187.847656-8.242187-2.769531-10.328125l-60.75-35.074219 42.75-11.453125c4.03125-1.082031 6.425781-5.230468 5.347656-9.261718-1.082031-4.035157-5.230469-6.425782-9.261719-5.347657l-57.359375 15.367188-51.710937-29.855469 9.816406-5.667969c3.617187-2.085937 4.855469-6.710937 2.769531-10.328125-2.089844-3.617187-6.714844-4.855468-10.332031-2.769531l-9.8125 5.667969v-59.710938l41.984375-41.988281c2.953125-2.953125 2.953125-7.738281 0-10.691406s-7.738281-2.953125-10.691406 0l-31.292969 31.292969v-70.148438c0-4.175781-3.386719-7.5625-7.5625-7.5625s-7.5625 3.386719-7.5625 7.5625v70.148438l-31.292969-31.292969c-2.953125-2.953125-7.742187-2.953125-10.695312 0s-2.953125 7.742187 0 10.691406l41.988281 41.988281v59.710938l-51.710937-29.855469-15.367188-57.355469c-1.082031-4.035156-5.230469-6.425781-9.261719-5.347656-4.035156 1.082031-6.425781 5.226562-5.347656 9.261719l11.453125 42.746093-60.75-35.074218c-3.617188-2.085938-8.242188-.847656-10.328125 2.769531-2.089844 3.617187-.851563 8.242187 2.765625 10.328125l60.753906 35.078125-42.75 11.453125c-4.035156 1.078125-6.425781 5.226562-5.347656 9.261719.90625 3.378906 3.960938 5.605469 7.300781 5.605469.648438 0 1.304688-.082032 1.960938-.257813l57.355469-15.371094 51.710937 29.855469-51.710937 29.855469-57.355469-15.367188c-4.027344-1.078125-8.179688 1.3125-9.261719 5.347657-1.082031 4.03125 1.3125 8.179687 5.347656 9.261718l42.746094 11.453125-60.75 35.074219c-3.617188 2.085938-4.855469 6.710938-2.765625 10.328125 1.398437 2.425781 3.941406 3.78125 6.554687 3.78125 1.28125 0 2.582032-.324219 3.773438-1.011719l60.75-35.074218-11.453125 42.746093c-1.082031 4.035157 1.3125 8.179688 5.34375 9.261719.65625.175781 1.316406.257812 1.964844.257812 3.335937 0 6.394531-2.226562 7.296875-5.605468l15.371094-57.355469 51.710937-29.855469v59.710938l-41.988281 41.984375c-2.953125 2.953125-2.953125 7.742187 0 10.695312 1.476562 1.476563 3.410156 2.214844 5.347656 2.214844 1.933594 0 3.871094-.738281 5.34375-2.214844l31.296875-31.292969v70.148438c0 4.175781 3.382813 7.5625 7.558594 7.5625 4.179687 0 7.5625-3.386719 7.5625-7.5625v-70.148438l31.292969 31.292969c2.953124 2.953125 7.742187 2.953125 10.695312 0s2.953125-7.742187 0-10.691406l-41.988281-41.988281v-59.710938l51.710937 29.855469 15.367188 57.355469c.90625 3.378906 3.960937 5.605468 7.300781 5.605468.648437 0 1.304687-.082031 1.960937-.257812 4.035157-1.082031 6.429688-5.226562 5.347657-9.261719zm0 0"/><path d="m192.230469 139.019531c-3.617188 2.085938-4.855469 6.710938-2.765625 10.328125 1.398437 2.425782 3.941406 3.78125 6.554687 3.78125 1.28125 0 2.582031-.324218 3.773438-1.011718l17.429687-10.066407 57.359375 15.367188c.652344.175781 1.3125.261719 1.960938.261719 3.335937 0 6.394531-2.230469 7.300781-5.609376 1.078125-4.03125-1.316406-8.179687-5.347656-9.261718l-42.75-11.453125 60.75-35.074219c3.617187-2.085938 4.855468-6.710938 2.769531-10.328125-2.089844-3.617187-6.714844-4.855469-10.328125-2.769531l-60.753906 35.074218 11.457031-42.746093c1.078125-4.035157-1.3125-8.179688-5.347656-9.261719-4.03125-1.078125-8.179688 1.3125-9.261719 5.347656l-15.371094 57.355469zm0 0"/><path d="m371.851562 444.9375v-6.269531c0-4.175781-3.386718-7.5625-7.5625-7.5625-4.175781 0-7.5625 3.386719-7.5625 7.5625v6.269531l-36.320312 36.320312c-2.953125 2.953126-2.953125 7.742188 0 10.695313s7.742188 2.953125 10.695312 0l25.625-25.628906v38.113281c0 4.175781 3.386719 7.5625 7.5625 7.5625 4.175782 0 7.5625-3.386719 7.5625-7.5625v-38.113281l25.628907 25.628906c1.476562 1.476563 3.414062 2.214844 5.347656 2.214844s3.871094-.738281 5.347656-2.214844c2.953125-2.953125 2.953125-7.742187 0-10.691406zm0 0"/><path d="m472.316406 393.554688-49.621094 13.296874-43.273437-24.992187 43.269531-24.988281 49.625 13.296875c.652344.175781 1.3125.257812 1.960938.257812 3.335937 0 6.394531-2.226562 7.300781-5.605469 1.078125-4.035156-1.316406-8.179687-5.347656-9.261718l-35.007813-9.382813 33.011719-19.058593c3.617187-2.085938 4.855469-6.710938 2.769531-10.328126-2.089844-3.617187-6.714844-4.855468-10.332031-2.765624l-33.015625 19.0625 9.382812-35.015626c1.082032-4.035156-1.3125-8.179687-5.347656-9.261718-4.03125-1.078125-8.179687 1.3125-9.261718 5.347656l-13.292969 49.613281-43.285157 24.996094v-49.980469l36.324219-36.324218c2.953125-2.953126 2.953125-7.742188 0-10.691407-2.953125-2.953125-7.742187-2.953125-10.691406 0l-25.628906 25.628907v-38.117188c0-4.175781-3.386719-7.5625-7.5625-7.5625s-7.5625 3.386719-7.5625 7.5625v38.113281l-25.628907-25.628906c-2.953124-2.953125-7.742187-2.953125-10.691406 0-2.953125 2.953125-2.953125 7.742187 0 10.695313l36.320313 36.320312v49.980469l-43.28125-24.996094-13.296875-49.613281c-1.078125-4.03125-5.226563-6.425782-9.261719-5.34375-4.03125 1.078125-6.425781 5.226562-5.34375 9.261718l9.378906 35-33.015625-19.0625c-3.613281-2.085937-8.242187-.847656-10.328125 2.769532-2.089843 3.617187-.851562 8.238281 2.765625 10.328125l33.023438 19.070312-35.015625 9.382813c-4.035157 1.082031-6.425781 5.226562-5.347657 9.261718.90625 3.378907 3.960938 5.605469 7.300782 5.605469.648437 0 1.304687-.082031 1.960937-.257812l49.625-13.296875 43.277344 24.988281-43.28125 24.992187-49.621094-13.296874c-4.027343-1.074219-8.179687 1.3125-9.261719 5.347656-1.082031 4.035156 1.3125 8.179687 5.347657 9.261718l35.011719 9.382813-33.019532 19.066406c-3.617187 2.089844-4.855468 6.714844-2.765625 10.332031 1.398438 2.425782 3.941407 3.78125 6.554688 3.78125 1.28125 0 2.582031-.328124 3.773437-1.015624l33.015625-19.0625-9.378906 35.003906c-1.082031 4.035156 1.3125 8.183594 5.347656 9.261718.652344.175782 1.3125.261719 1.960938.261719 3.335937 0 6.394531-2.230469 7.300781-5.609375l13.292969-49.613281 43.28125-24.992187v13.460937c0 4.175781 3.386719 7.5625 7.5625 7.5625s7.5625-3.386719 7.5625-7.5625v-13.46875l43.285156 24.996094 13.292969 49.617187c.90625 3.378906 3.960937 5.609375 7.300781 5.609375.648437 0 1.304687-.085937 1.960937-.261719 4.035157-1.078124 6.429688-5.226562 5.347657-9.261718l-9.382813-35.015625 33.015625 19.066406c1.191407.6875 2.492188 1.011719 3.777344 1.011719 2.613281 0 5.152344-1.355469 6.554687-3.78125 2.085938-3.617188.847657-8.242188-2.769531-10.328125l-33.007812-19.058594 35.003906-9.378906c4.03125-1.082031 6.425781-5.226563 5.347656-9.261719-1.085937-4.039062-5.234375-6.429688-9.265625-5.351562zm0 0"/></svg>