<svg height="512pt" viewBox="0 -35 512 512" width="512pt" xmlns="http://www.w3.org/2000/svg"><path d="m40.046875 324.386719 36.496094-128.203125 70.972656 12.167968 70.96875-200.746093 75.027344 22.304687 48.664062 125.71875 38.527344-18.25 32.445313 85.164063h34.46875l21.292968 101.84375" fill="#d3ddea"/><path d="m380.703125 137.378906 32.445313 85.164063-44.101563 44.105469-104.9375 16.726562 78.070313-127.746094zm0 0" fill="#97b0cc"/><path d="m147.515625 208.351562-20.703125 116.035157h-86.765625l36.5-128.203125zm0 0" fill="#97b0cc"/><path d="m447.617188 222.542969 21.292968 101.84375h-73.757812l-26.109375-57.738281 44.105469-44.105469zm0 0" fill="#e6ecf4"/><path d="m293.511719 29.910156-51.707031 98.941406-23.316407-121.246093zm0 0" fill="#97b0cc"/><path d="m293.511719 29.910156 48.664062 125.71875-78.066406 127.746094-22.304687-154.523438zm0 0" fill="#e6ecf4"/><path d="m143.34375 360.878906c0-4.199218-3.40625-7.605468-7.605469-7.605468h-95.804687c-4.199219 0-7.605469 3.40625-7.605469 7.605468 0 4.199219 3.40625 7.605469 7.605469 7.605469h95.804687c4.199219 0 7.605469-3.40625 7.605469-7.605469zm0 0"/><path d="m472.0625 353.273438h-305.90625c-4.199219 0-7.605469 3.40625-7.605469 7.605468 0 4.199219 3.40625 7.605469 7.605469 7.605469h305.90625c4.199219 0 7.601562-3.40625 7.601562-7.605469 0-4.199218-3.402343-7.605468-7.601562-7.605468zm0 0"/><path d="m341.035156 397.375c0-4.199219-3.402344-7.601562-7.605468-7.601562h-266.125c-4.199219 0-7.601563 3.402343-7.601563 7.601562s3.402344 7.605469 7.601563 7.605469h266.125c4.203124 0 7.605468-3.402344 7.605468-7.605469zm0 0"/><path d="m444.6875 389.773438h-80.839844c-4.199218 0-7.601562 3.402343-7.601562 7.601562s3.402344 7.605469 7.601562 7.605469h80.839844c4.199219 0 7.605469-3.40625 7.605469-7.605469s-3.40625-7.601562-7.605469-7.601562zm0 0"/><path d="m423.398438 426.269531h-334.800782c-4.199218 0-7.605468 3.40625-7.605468 7.605469s3.40625 7.601562 7.605468 7.601562h334.800782c4.199218 0 7.601562-3.402343 7.601562-7.601562s-3.402344-7.605469-7.601562-7.605469zm0 0"/><path d="m504.394531 316.78125h-29.308593l-20.027344-95.792969c-.734375-3.523437-3.839844-6.046875-7.441406-6.046875h-29.230469l-30.578125-80.269531c-.753906-1.980469-2.304688-3.558594-4.269532-4.347656-1.96875-.789063-4.175781-.726563-6.09375.183593l-31.132812 14.746094-45.710938-118.089844c-.847656-2.191406-2.667968-3.871093-4.921874-4.542968l-75.027344-22.304688c-3.882813-1.15625-7.984375.9375-9.335938 4.753906l-49.898437 141.144532c-1.398438 3.960937.675781 8.304687 4.632812 9.707031 3.960938 1.394531 8.304688-.679687 9.707031-4.636719l40.554688-114.71875 17.996094 93.554688 19.898437 137.835937-97.515625-62.746093 9.222656-26.085938c1.402344-3.960938-.675781-8.304688-4.632812-9.707031-3.960938-1.398438-8.304688.675781-9.703125 4.636719l-9.09375 25.71875-64.652344-11.085938c-3.828125-.652344-7.535156 1.679688-8.597656 5.414062l-34.929687 122.679688h-26.699219c-4.199219 0-7.605469 3.40625-7.605469 7.605469s3.40625 7.605469 7.605469 7.605469h32.414062.03125.023438 428.792969.035156.027344 35.464843c4.203125 0 7.605469-3.40625 7.605469-7.605469s-3.402344-7.605469-7.605469-7.605469zm-44.84375 0h-59.492187l-21.917969-48.476562 38.15625-38.15625h25.140625zm-306.554687-95.863281 107 68.851562c.042968.027344.105468.046875.15625.070313 1.199218.734375 2.5625 1.140625 3.960937 1.140625.398438 0 .796875-.03125 1.195313-.09375l99.199218-15.816407 18.863282 41.714844h-247.476563zm251.292968-.269531-38.875 38.878906-86.214843 13.742187 68.28125-111.738281 29.042969-13.757812zm-175.972656-202.1875 54.179688 16.109374-37.339844 71.449219zm64.160156 29.84375 41.253907 106.566406-65.105469 106.539062-18.941406-131.214844zm-210.488281 156.527343 56.695313 9.71875-18.238282 102.230469h-70.328124zm0 0"/></svg>