<svg height="512pt" viewBox="0 -124 512 512" width="512pt" xmlns="http://www.w3.org/2000/svg"><path d="m504.394531 256h-195.796875c0-29.046875-23.550781-52.597656-52.597656-52.597656-29.058594 0-52.609375 23.550781-52.609375 52.597656h-195.785156c0-136.960938 111.421875-248.394531 248.394531-248.394531 136.960938 0 248.394531 111.433593 248.394531 248.394531zm0 0" fill="#84abc1"/><path d="m455.445312 256h-146.847656c0-29.046875-23.550781-52.597656-52.597656-52.597656-29.058594 0-52.609375 23.550781-52.609375 52.597656h-146.835937c0-109.972656 89.460937-199.445312 199.445312-199.445312 109.972656 0 199.445312 89.472656 199.445312 199.445312zm0 0" fill="#6dd198"/><path d="m406.496094 256h-97.898438c0-29.046875-23.550781-52.597656-52.597656-52.597656-29.058594 0-52.609375 23.550781-52.609375 52.597656h-97.886719c0-82.984375 67.511719-150.496094 150.496094-150.496094s150.496094 67.511719 150.496094 150.496094zm0 0" fill="#ffee8c"/><path d="m357.546875 256h-48.949219c0-29.046875-23.550781-52.597656-52.597656-52.597656-29.058594 0-52.609375 23.550781-52.609375 52.597656h-48.9375c0-55.996094 45.550781-101.546875 101.546875-101.546875s101.546875 45.550781 101.546875 101.546875zm0 0" fill="#ff7694"/><path d="m453.464844 93.25c-2.671875-3.238281-7.464844-3.695312-10.703125-1.023438-3.238281 2.671876-3.699219 7.464844-1.023438 10.703126 33.886719 41.042968 53.238281 92.433593 54.933594 145.46875h-33.777344c-4.019531-110.660157-95.277343-199.445313-206.898437-199.445313s-202.878906 88.785156-206.894532 199.445313h-33.773437c4.03125-129.269532 110.445313-233.191407 240.671875-233.191407 63.128906 0 122.835938 24.355469 168.125 68.582031 3.003906 2.929688 7.816406 2.875 10.753906-.128906 2.933594-3.003906 2.875-7.820312-.128906-10.753906-48.144531-47.015625-111.625-72.90625-178.75-72.90625-141.160156 0-256 114.839844-256 256 0 4.199219 3.402344 7.605469 7.605469 7.605469h195.785156c4.199219 0 7.601563-3.40625 7.601563-7.605469 0-24.808594 20.191406-44.996094 45.007812-44.996094 24.808594 0 44.996094 20.1875 44.996094 44.996094 0 4.199219 3.402344 7.605469 7.601562 7.605469h195.796875c4.203125 0 7.605469-3.40625 7.605469-7.605469 0-59.234375-20.789062-117.03125-58.535156-162.75zm-197.46875-29.089844c103.234375 0 187.667968 81.964844 191.679687 184.234375h-33.761719c-3.984374-83.65625-73.289062-150.492187-157.917968-150.492187-52.53125 0-101.523438 26.074218-131.058594 69.753906-2.355469 3.480469-1.441406 8.207031 2.039062 10.558594 3.480469 2.355468 8.207032 1.441406 10.558594-2.039063 26.703125-39.492187 70.988282-63.066406 118.460938-63.066406 76.242187 0 138.722656 60.019531 142.691406 135.285156h-33.808594c-3.917968-56.648437-51.253906-101.546875-108.882812-101.546875-57.632813 0-104.964844 44.898438-108.886719 101.546875h-33.804687c.863281-16.519531 4.542968-32.570312 10.980468-47.808593 1.632813-3.871094-.175781-8.332032-4.046875-9.964844-3.867187-1.632813-8.328125.175781-9.960937 4.046875-7.234375 17.117187-11.324219 35.160156-12.203125 53.726562h-33.757813c4.007813-102.269531 88.445313-184.234375 191.679688-184.234375zm.003906 131.636719c-30.625 0-55.988281 22.980469-59.734375 52.597656h-33.90625c3.886719-48.257812 44.394531-86.339843 93.636719-86.339843 49.242187 0 89.75 38.082031 93.636718 86.339843h-33.910156c-3.746094-29.617187-29.101562-52.597656-59.722656-52.597656zm0 0"/></svg>