<svg height="512pt" viewBox="0 -24 512 512" width="512pt" xmlns="http://www.w3.org/2000/svg"><path d="m421.925781 75.21875-128.894531 128.898438c-19.125-19.125-50.132812-19.125-69.257812 0-19.128907 19.128906-19.128907 50.136718-.003907 69.261718l-128.894531 128.890625c-90.164062-90.164062-90.171875-236.878906 0-327.050781 90.167969-90.167969 236.886719-90.167969 327.050781 0zm0 0" fill="#84abc1"/><path d="m389.703125 107.441406-96.671875 96.675782c-19.125-19.125-50.132812-19.125-69.257812 0-19.128907 19.128906-19.128907 50.136718-.003907 69.261718l-96.667969 96.664063c-72.398437-72.394531-72.40625-190.195313 0-262.601563 72.398438-72.398437 190.203126-72.398437 262.601563 0zm0 0" fill="#6dd198"/><path d="m357.476562 139.667969-64.445312 64.449219c-19.125-19.125-50.132812-19.125-69.257812 0-19.128907 19.128906-19.128907 50.136718-.003907 69.261718l-64.445312 64.441406c-54.628907-54.632812-54.628907-143.523437 0-198.152343 54.632812-54.632813 143.523437-54.632813 198.152343 0zm0 0" fill="#ffee8c"/><path d="m325.253906 171.890625-32.222656 32.226563c-19.125-19.125-50.132812-19.125-69.257812 0-19.128907 19.128906-19.128907 50.136718-.003907 69.261718l-32.21875 32.214844c-36.863281-36.863281-36.863281-96.839844 0-133.703125s96.839844-36.863281 133.703125 0zm0 0" fill="#ff7694"/><path d="m329.476562 403.042969c0 29.878906-24.222656 54.097656-54.113281 54.097656h-195.800781c-39.730469 0-71.945312-32.203125-71.945312-71.941406 0-39.730469 32.214843-71.945313 71.945312-71.945313 3.5625 0 7.066406.273438 10.5.773438 16.25-32.265625 49.660156-54.40625 88.261719-54.40625 46.707031 0 85.839843 32.429687 96.117187 75.996094 1.023438 4.347656 1.765625 8.804687 2.191406 13.34375v.011718c29.289063.671875 52.84375 24.617188 52.84375 54.070313zm0 0" fill="#d3ddea"/><path d="m212.652344 265.757812c-10.695313-3.96875-22.261719-6.132812-34.328125-6.132812-38.601563 0-72.003907 22.140625-88.261719 54.394531v.011719c-3.433594-.5-6.9375-.773438-10.503906-.773438-39.738282 0-71.941406 32.214844-71.941406 71.945313 0 39.738281 32.203124 71.941406 71.941406 71.941406h34.773437c-35.808593 0-64.824219-29.023437-64.824219-64.824219 0-31.765624 22.851563-58.203124 53.023438-63.746093 2.988281-.558594 6.042969-.90625 9.160156-1.027344.875-.03125 1.757813-.050781 2.640625-.050781 11.640625 0 22.566407 3.066406 32.003907 8.449218-1.3125-9.132812-10.753907-17.6875-24.675782-24.582031 7.644532-25.851562 33.660156-49.824219 90.992188-45.605469zm0 0" fill="#97b0cc"/><path d="m504.382812 170.230469c0 22.921875-18.582031 41.507812-41.511718 41.507812h-150.226563c-30.480469 0-55.195312-24.707031-55.195312-55.195312 0-30.484375 24.714843-55.199219 55.195312-55.199219 2.734375 0 5.425781.210938 8.058594.59375 12.464844-24.753906 38.101563-41.742188 67.714844-41.742188 35.835937 0 65.855469 24.878907 73.742187 58.308594.785156 3.332032 1.355469 6.753906 1.683594 10.238282v.007812c22.46875.511719 40.539062 18.886719 40.539062 41.480469zm0 0" fill="#d3ddea"/><path d="m414.753906 64.90625c-8.203125-3.046875-17.078125-4.707031-26.335937-4.707031-29.617188 0-55.242188 16.988281-67.714844 41.734375v.007812c-2.632813-.382812-5.324219-.59375-8.058594-.59375-30.488281 0-55.195312 24.714844-55.195312 55.195313 0 30.488281 24.707031 55.195312 55.195312 55.195312h26.679688c-27.472657 0-49.734375-22.265625-49.734375-49.730469 0-24.375 17.53125-44.65625 40.679687-48.910156 2.292969-.429687 4.636719-.695312 7.027344-.789062.671875-.019532 1.347656-.035156 2.027344-.035156 8.929687 0 17.3125 2.351562 24.550781 6.480468-1.003906-7.007812-8.246094-13.570312-18.929688-18.859375 5.863282-19.832031 25.824219-38.226562 69.808594-34.988281zm0 0" fill="#97b0cc"/><path d="m497.980469 135.878906c-7.46875-7.625-17.019531-12.527344-27.394531-14.15625-.289063-1.667968-.625-3.328125-1.011719-4.96875-4.242188-17.972656-14.554688-34.269531-29.039063-45.882812-8.367187-6.707032-17.964844-11.695313-28.160156-14.753906-25.695312-21.695313-55.09375-37.433594-87.433594-46.753907-4.046875-1.167969-8.265625 1.164063-9.429687 5.207031-1.164063 4.042969 1.167969 8.265626 5.210937 9.429688 22.234375 6.410156 42.980469 16.058594 61.964844 28.777344-14.03125.945312-27.289062 5.355468-38.777344 12.597656-34.765625-17.085938-74.851562-23.421875-113.425781-17.84375-41.496094 6.007812-79.109375 24.863281-108.773437 54.527344-28.074219 28.074218-46.582032 63.546875-53.527344 102.59375-6.074219 34.152344-2.988282 68.835937 8.886718 101.050781-10.578124.328125-20.632812 2.722656-29.789062 6.804687-28.167969-80.917968-7.816406-171.109374 52.976562-231.902343 25.496094-25.488281 55.75-43.933594 89.933594-54.816407 32.613282-10.382812 67.800782-13.175781 101.75-8.070312 4.152344.628906 8.039063-2.238281 8.664063-6.398438.625-4.160156-2.238281-8.039062-6.398438-8.667968-36.246093-5.449219-73.8125-2.46875-108.640625 8.621094-36.007812 11.464843-69.230468 31.714843-96.078125 58.558593-65.597656 65.597657-87.105469 163.226563-55.652343 250.316407-20.445313 14.414062-33.835938 38.191406-33.835938 65.050781 0 21.253906 8.277344 41.234375 23.304688 56.261719 2.976562 2.972656 7.796874 2.972656 10.773437 0 2.972656-2.976563 2.972656-7.800782 0-10.773438-12.152344-12.148438-18.84375-28.304688-18.84375-45.488281 0-35.46875 28.855469-64.328125 64.328125-64.328125 3.066406 0 6.234375.234375 9.40625.695312 3.242188.46875 6.421875-1.1875 7.894531-4.113281 15.597657-30.972656 46.8125-50.214844 81.460938-50.214844 20.953125 0 40.644531 6.914063 56.957031 19.988281 15.839844 12.699219 27.113281 30.503907 31.746094 50.140626.945312 4.011718 1.621094 8.109374 2.011718 12.183593.289063 3.871094 3.476563 6.945313 7.421876 7.039063 12.183593.277344 23.59375 5.234375 32.132812 13.953125 8.554688 8.734375 13.265625 20.277343 13.265625 32.5 0 25.628906-20.859375 46.480469-46.496094 46.480469h-195.800781c-8.6875 0-17.113281-1.699219-25.035156-5.050782-3.878906-1.636718-8.347656.175782-9.984375 4.050782-1.636719 3.871093.175781 8.34375 4.046875 9.980468 9.816406 4.148438 20.234375 6.253906 30.972656 6.253906h195.800781c34.039063 0 61.726563-27.6875 61.726563-61.71875 0-16.230468-6.253906-31.554687-17.609375-43.15625-9.777344-9.984374-22.394531-16.253906-36.0625-18.023437-.417969-2.683594-.941407-5.355469-1.5625-7.992187-5.410157-22.929688-18.566407-43.714844-37.046875-58.53125-6.238282-4.996094-13.015625-9.230469-20.160156-12.683594-11.574219-16.304688-9.757813-38.875 4.507812-53.152344 9.625-9.621094 23.070312-13.820312 36.375-11.484375 11.519531 13.070313 28.363281 21.335937 47.113281 21.335937h150.226563c27.089844 0 49.128906-22.035156 49.128906-49.121093 0-12.917969-4.976562-25.117188-14.019531-34.351563zm-407.414063 162.355469c-10.277344-29.054687-12.84375-60.21875-7.382812-90.914063 6.394531-35.957031 23.441406-68.632812 49.300781-94.492187 27.320313-27.320313 61.964844-44.683594 100.183594-50.21875 33.101562-4.789063 67.398437-.058594 97.816406 13.316406-5.398437 5.230469-10.144531 11.234375-14.050781 17.921875-1.269532-.078125-2.535156-.121094-3.789063-.121094-5.730469 0-11.277343.789063-16.558593 2.234376-50.785157-13.324219-105.070313 1.242187-142.148438 38.320312-36.230469 36.242188-50.988281 88.941406-39.1875 138.71875-9.292969 6.929688-17.480469 15.417969-24.183594 25.234375zm162.464844-161.449219c-25.320312 1.304688-48.859375 11.710938-66.871094 29.722656-23.191406 23.1875-33.621094 55.414063-28.71875 87.539063-10.203125 2.015625-19.945312 5.5-28.976562 10.277344-8.425782-43.109375 5-88.019531 36.242187-119.269531 28.804688-28.808594 69.195313-42.460938 109.105469-37.828126-9.550781 7.535157-16.863281 17.773438-20.78125 29.558594zm-34.648438 61.945313c-15.105468 15.117187-20.003906 37.035156-14.105468 56.519531-8.445313-2.128906-17.164063-3.246094-25.953125-3.246094-1.929688 0-3.847657.066406-5.761719.167969-4.316406-27.476563 4.546875-55.070313 24.371094-74.894531 14.40625-14.40625 32.992187-23.105469 53.0625-25.003906-.097656 1.414062-.164063 2.832031-.164063 4.269531 0 9.140625 1.980469 17.828125 5.507813 25.671875-13.753906.710937-26.882813 6.445312-36.957032 16.515625zm244.488282 5.390625h-150.226563c-26.234375 0-47.578125-21.34375-47.578125-47.578125 0-26.238281 21.34375-47.582031 47.578125-47.582031 2.273438 0 4.617188.175781 6.964844.515624 3.246094.46875 6.421875-1.1875 7.894531-4.113281 11.664063-23.160156 35.007813-37.550781 60.914063-37.550781 31.769531 0 59.042969 21.5625 66.328125 52.4375.707031 2.992188 1.210937 6.050781 1.503906 9.085938.296875 3.867187 3.480469 6.9375 7.417969 7.027343 18.25.417969 33.097656 15.609375 33.097656 33.867188 0 18.6875-15.207031 33.890625-33.894531 33.890625zm0 0"/></svg>