<svg height="512pt" viewBox="-37 0 511 512" width="512pt" xmlns="http://www.w3.org/2000/svg"><path d="m429.097656 137.160156v180.296875l-254.273437 44.371094v-269.039063zm0 0" fill="#ff7694"/><path d="m429.097656 268.015625v49.441406l-254.273437 44.371094v-68.421875zm0 0" fill="#e53737"/><path d="m347.417969 122.910156v208.796875l-90.917969 15.871094v-240.53125zm0 0" fill="#d3ddea"/><path d="m347.417969 276.171875v55.535156l-90.917969 15.871094v-62.328125zm0 0" fill="#97b0cc"/><path d="m63.863281 79.789062v424.59375h-36.957031v-425.628906" fill="#84abc1"/><path d="m44.804688 79.789062v424.59375h-17.898438v-425.628906" fill="#4d87a1"/><path d="m84.542969 45.835938c0 21.101562-17.109375 38.210937-38.214844 38.210937s-38.214844-17.109375-38.214844-38.210937c0-21.105469 17.109375-38.214844 38.214844-38.214844s38.214844 17.109375 38.214844 38.214844zm0 0" fill="#e53737"/><path d="m84.542969 45.835938c0 16.269531-10.175781 30.164062-24.507813 35.679687-14.328125-5.515625-24.496094-19.410156-24.496094-35.679687 0-16.273438 10.167969-30.175782 24.496094-35.691407 14.332032 5.515625 24.507813 19.421875 24.507813 35.691407zm0 0" fill="#ff7694"/><path d="m430.402344 129.65625-254.269532-44.367188c-1.402343-.246093-2.824218-.085937-4.117187.425782-.007813 0-.015625.003906-.019531.003906l-100.511719 40.191406v-41.789062c12.652344-8.375 20.675781-22.773438 20.675781-38.285156 0-18.835938-11.808594-36.035157-29.390625-42.800782-5.246093-2.011718-10.777343-3.035156-16.445312-3.035156-25.265625 0-45.824219 20.5625-45.824219 45.835938 0 15.164062 7.40625 28.621093 18.789062 36.96875v304.035156c0 4.207031 3.410157 7.617187 7.617188 7.617187s7.617188-3.410156 7.617188-7.617187v-296.726563c3.769531 1.003907 7.722656 1.546875 11.800781 1.546875 3.367187 0 6.683593-.367187 9.921875-1.082031v406.1875h-21.722656v-79.453125c0-4.207031-3.410157-7.617188-7.617188-7.617188s-7.617188 3.410157-7.617188 7.617188v87.070312c0 4.207032 3.410157 7.617188 7.617188 7.617188h36.957031c4.207031 0 7.621094-3.410156 7.621094-7.617188v-175.675781l100.511719 40.191407c.003906 0 .011718-.003907.015625 0 .894531.351562 1.84375.542968 2.8125.542968.433593 0 .875-.035156 1.308593-.113281l81.691407-14.253906c.089843-.015625.179687-.027344.269531-.046875l172.308594-30.066406c3.648437-.632813 6.308594-3.800782 6.308594-7.503907v-180.296875c0-3.703125-2.664063-6.867187-6.308594-7.503906zm-414.667969-83.820312c0-16.875 13.722656-30.601563 30.589844-30.601563 3.792969 0 7.488281.679687 10.976562 2.019531 11.738281 4.519532 19.625 16.003906 19.625 28.582032 0 12.570312-7.886719 24.050781-19.621093 28.570312-3.492188 1.339844-7.1875 2.019531-10.980469 2.019531-16.867188 0-30.589844-13.722656-30.589844-30.589843zm55.753906 96.480468 95.71875-38.273437v246.53125l-95.71875-38.273438zm110.953125-40.460937 66.445313 11.59375v227.71875l-66.445313 11.59375zm239.035156 209.199219-66.441406 11.59375v-123.695313c0-4.207031-3.414062-7.617187-7.617187-7.617187-4.207031 0-7.617188 3.410156-7.617188 7.617187v126.355469l-75.679687 13.203125v-222.40625l75.679687 13.207031v39.167969c0 4.207031 3.410157 7.617187 7.617188 7.617187 4.203125 0 7.617187-3.410156 7.617187-7.617187v-36.511719l66.441406 11.59375zm0 0"/></svg>