<svg height="511pt" viewBox="1 -49 511.99899 511" width="511pt" xmlns="http://www.w3.org/2000/svg"><g fill="#ffee8c"><path d="m107.242188 405.964844c-60.492188-45.296875-99.636719-117.53125-99.636719-198.925782 0-81.390624 39.144531-153.625 99.636719-198.925781l21.972656 17.539063c-57.140625 40.007812-94.511719 106.332031-94.511719 181.386718 0 75.054688 37.371094 141.382813 94.511719 181.386719"/><path d="m404.757812 405.976562c60.492188-45.296874 99.636719-117.542968 99.636719-198.9375 0-81.390624-39.144531-153.636718-99.636719-198.933593l-21.960937 17.546875c57.140625 40.007812 94.5 106.332031 94.5 181.386718 0 75.054688-37.359375 141.382813-94.5 181.386719"/><path d="m406.457031 207.042969c0-14.78125 26.777344-32.875 23.132813-46.507813-3.769532-14.101562-36.113282-16.375-43.257813-28.71875-7.25-12.527344 6.878907-41.65625-3.285156-51.820312-10.167969-10.164063-39.292969 3.960937-51.820313-3.285156-12.347656-7.144532-14.617187-39.488282-28.71875-43.257813-13.632812-3.640625-31.726562 23.132813-46.507812 23.132813-14.777344 0-32.875-26.777344-46.503906-23.132813-14.101563 3.769531-16.375 36.113281-28.722656 43.257813-12.523438 7.25-41.652344-6.878907-51.816407 3.285156-10.167969 10.164062 3.960938 39.292968-3.285156 51.820312-7.144531 12.347656-39.492187 14.617188-43.257813 28.71875-3.644531 13.632813 23.132813 31.726563 23.132813 46.507813 0 14.777343-26.777344 32.875-23.132813 46.503906 3.769532 14.101563 36.113282 16.375 43.257813 28.722656 7.246094 12.523438-6.878906 41.652344 3.285156 51.816407 10.164063 10.164062 39.292969-3.960938 51.816407 3.285156 12.347656 7.144531 14.621093 39.488281 28.722656 43.257812 13.628906 3.644532 31.726562-23.132812 46.503906-23.132812 14.78125 0 32.875 26.777344 46.507812 23.132812 14.101563-3.769531 16.371094-36.113281 28.71875-43.257812 12.527344-7.246094 41.65625 6.878906 51.820313-3.285156 10.164063-10.164063-3.960937-39.292969 3.285156-51.820313 7.144531-12.34375 39.488281-14.617187 43.257813-28.71875 3.640625-13.628906-23.132813-31.726563-23.132813-46.503906zm0 0"/></g><path d="m372.152344 207.039062c0 58.667969-43.496094 107.175782-100.003906 115.035157-5.277344.738281-10.664063 1.113281-16.144532 1.113281-64.148437 0-116.15625-52-116.15625-116.148438 0-64.148437 52.007813-116.148437 116.15625-116.148437 5.480469 0 10.867188.375 16.144532 1.113281 56.507812 7.863282 100.003906 56.371094 100.003906 115.035156zm0 0" fill="#f28f44"/><path d="m372.152344 207.039062c0 58.667969-43.496094 107.175782-100.003906 115.035157-56.507813-7.859375-100.007813-56.367188-100.007813-115.035157 0-58.664062 43.496094-107.171874 100.007813-115.03125 56.507812 7.859376 100.003906 56.367188 100.003906 115.03125zm0 0" fill="#ffd073"/><path d="m212.214844 388.589844c-1.546875 0-3.105469-.195313-4.679688-.613282-11.210937-2.996093-16.152344-15.136718-20.929687-26.875-2.742188-6.742187-6.160157-15.136718-9.636719-17.148437-3.613281-2.09375-12.714844-.851563-20.03125.140625-12.429688 1.691406-25.285156 3.441406-33.355469-4.632812-8.074219-8.070313-6.324219-20.925782-4.632812-33.355469.992187-7.316407 2.230469-16.417969.140625-20.03125-2.101563-3.632813-.859375-8.285157 2.773437-10.386719 3.636719-2.105469 8.289063-.863281 10.390625 2.773438 4.695313 8.117187 3.203125 19.085937 1.761719 29.691406-1.023437 7.519531-2.421875 17.816406.316406 20.554687 2.742188 2.742188 13.039063 1.339844 20.558594.320313 10.605469-1.445313 21.574219-2.933594 29.691406 1.761718 7.988281 4.621094 12.117188 14.765626 16.109375 24.582032 2.898438 7.117187 6.867188 16.871094 10.769532 17.910156 3.539062.945312 11.609374-5.304688 17.503906-9.871094 8.574218-6.648437 17.445312-13.519531 27.039062-13.519531 9.589844 0 18.457032 6.871094 27.035156 13.519531 5.890626 4.566406 13.964844 10.8125 17.503907 9.871094 3.902343-1.039062 7.871093-10.792969 10.769531-17.910156 3.992188-9.816406 8.121094-19.960938 16.109375-24.582032 8.113281-4.695312 19.085937-3.207031 29.691406-1.761718 7.519531 1.019531 17.816407 2.421875 20.554688-.316406 2.742187-2.742188 1.339843-13.039063.320312-20.558594-1.445312-10.605469-2.9375-21.574219 1.761719-29.691406 4.621094-7.988282 14.765625-12.117188 24.578125-16.113282 7.121094-2.894531 16.871094-6.863281 17.914063-10.765625.949218-3.539062-5.308594-11.613281-9.875-17.503906-6.644532-8.578125-13.515626-17.445313-13.515626-27.039063 0-9.589843 6.871094-18.457031 13.515626-27.035156 4.566406-5.894531 10.824218-13.964844 9.875-17.503906-1.042969-3.902344-10.792969-7.871094-17.914063-10.769531-9.8125-3.992188-19.960937-8.121094-24.578125-16.109375-4.699219-8.117188-3.207031-19.085938-1.761719-29.691406 1.019531-7.519532 2.421875-17.816407-.320312-20.558594-2.742188-2.738282-13.035157-1.339844-20.554688-.316406-10.609375 1.445312-21.574219 2.933593-29.691406-1.761719-7.988281-4.621094-12.117187-14.765625-16.113281-24.582031-2.894532-7.117188-6.863282-16.867188-10.765625-17.910157-3.527344-.941406-11.609375 5.304688-17.507813 9.875-8.574218 6.644531-17.441406 13.515625-27.035156 13.515625s-18.460938-6.871094-27.035156-13.515625c-5.894532-4.570312-13.964844-10.820312-17.507813-9.875-3.898437 1.042969-7.867187 10.792969-10.765625 17.914063-3.992187 9.8125-8.125 19.957031-16.109375 24.578125-8.121093 4.699219-19.085937 3.207031-29.695312 1.765625-7.515625-1.023438-17.816407-2.425782-20.554688.316406-2.738281 2.738281-1.339843 13.035156-.316406 20.554688 1.441406 10.609374 2.933594 21.578124-1.761719 29.695312-4.621094 7.984375-14.769531 12.113281-24.582031 16.109375-7.117187 2.898437-16.871094 6.863281-17.910156 10.765625-.949219 3.542969 5.304687 11.613281 9.871093 17.507812 6.648438 8.574219 13.519532 17.441407 13.519532 27.035157s-6.871094 18.460937-13.519532 27.035156c-4.566406 5.894531-10.820312 13.964844-9.875 17.503906 1.03125 3.851563 10.707032 7.816407 15.90625 9.949219 3.882813 1.59375 5.742188 6.035156 4.148438 9.917969-1.589844 3.886719-6.03125 5.746093-9.917969 4.152343-9.222656-3.78125-21.851562-8.957031-24.824219-20.089843-2.894531-10.824219 4.957032-20.953125 12.542969-30.75 4.84375-6.246094 10.332031-13.328125 10.332031-17.71875s-5.488281-11.472657-10.332031-17.722657c-7.585937-9.792968-15.4375-19.921874-12.542969-30.746093 2.996094-11.207031 15.132813-16.148438 26.871094-20.925781 6.742188-2.746094 15.136719-6.160157 17.148438-9.640626 2.089844-3.613281.855468-12.714843-.140625-20.027343-1.691407-12.433594-3.441407-25.289063 4.632812-33.359375 8.070313-8.070313 20.925781-6.324219 33.359375-4.632813 7.3125.992188 16.414063 2.234375 20.027344.144531 3.476562-2.015624 6.894531-10.40625 9.636719-17.152343 4.78125-11.738281 9.71875-23.875 20.929687-26.871094 10.828125-2.894531 20.953125 4.953125 30.746094 12.546875 6.25 4.839844 13.328125 10.328125 17.722656 10.328125 4.386719 0 11.46875-5.488281 17.71875-10.328125 9.796875-7.589844 19.921875-15.441406 30.75-12.546875 11.207032 2.996094 16.148438 15.132813 20.921875 26.871094 2.746094 6.742187 6.164063 15.136719 9.640625 17.148437 3.613282 2.09375 12.714844.851563 20.03125-.140625 12.433594-1.691406 25.285156-3.441406 33.355469 4.632813 8.074219 8.070312 6.324219 20.925781 4.632813 33.355468-.992188 7.316407-2.230469 16.417969-.140626 20.027344 2.011719 3.480469 10.40625 6.898438 17.148438 9.640625 11.738281 4.777344 23.875 9.71875 26.871094 20.925781 2.894531 10.824219-4.953125 20.953126-12.542969 30.75-4.84375 6.246094-10.328125 13.328126-10.328125 17.71875 0 4.390626 5.484375 11.472657 10.328125 17.722657 7.589844 9.796875 15.4375 19.925781 12.546875 30.746093-3 11.210938-15.136719 16.148438-26.875 20.925782-6.742188 2.746094-15.136719 6.164062-17.148438 9.640625-2.089843 3.613281-.851562 12.714843.140626 20.027343 1.691406 12.433594 3.441406 25.289063-4.628907 33.359376-8.074219 8.070312-20.929687 6.324218-33.359375 4.632812-7.3125-.992188-16.417968-2.230469-20.03125-.144531-3.476562 2.015625-6.894531 10.40625-9.636718 17.152343-4.777344 11.738282-9.71875 23.875-20.929688 26.871094-10.824219 2.894532-20.949219-4.957031-30.746094-12.546875-6.246094-4.839843-13.328125-10.328125-17.71875-10.328125-4.394531 0-11.472656 5.488282-17.722656 10.332032-8.371094 6.484374-16.984375 13.160156-26.066406 13.160156zm0 0"/><path d="m256.003906 330.792969c-68.242187 0-123.757812-55.515625-123.757812-123.753907 0-68.234374 55.515625-123.75 123.757812-123.75 5.78125 0 11.566406.398438 17.199219 1.1875 29.300781 4.074219 56.242187 18.628907 75.851563 40.980469 19.796874 22.5625 30.699218 51.535157 30.699218 81.582031 0 30.050782-10.902344 59.023438-30.699218 81.585938-19.609376 22.351562-46.550782 36.902344-75.859376 40.980469-5.625.785156-11.410156 1.1875-17.191406 1.1875zm0-232.296875c-59.855468 0-108.550781 48.691406-108.550781 108.542968 0 59.855469 48.695313 108.546876 108.550781 108.546876 5.078125 0 10.15625-.351563 15.089844-1.042969 25.703125-3.574219 49.324219-16.339844 66.53125-35.949219 17.363281-19.785156 26.925781-45.199219 26.925781-71.554688 0-26.355468-9.5625-51.765624-26.925781-71.554687-17.207031-19.605469-40.828125-32.371094-66.523438-35.945313-4.945312-.691406-10.019531-1.042968-15.097656-1.042968zm0 0"/><path d="m382.800781 396.03125c-2.394531 0-4.753906-1.132812-6.234375-3.242188-2.410156-3.441406-1.570312-8.183593 1.867188-10.59375 57.144531-40.003906 91.257812-105.484374 91.257812-175.15625 0-69.667968-34.113281-135.148437-91.257812-175.15625-3.4375-2.410156-4.277344-7.148437-1.867188-10.589843 2.410156-3.441407 7.148438-4.277344 10.589844-1.867188 61.203125 42.851563 97.742188 112.988281 97.742188 187.613281 0 74.628907-36.539063 144.765626-97.742188 187.617188-1.328125.929688-2.847656 1.375-4.355469 1.375zm0 0"/><path d="m129.207031 396.03125c-1.507812 0-3.027343-.445312-4.355469-1.375-61.210937-42.859375-97.753906-112.992188-97.753906-187.617188 0-74.621093 36.542969-144.757812 97.753906-187.613281 3.441407-2.410156 8.183594-1.574219 10.589844 1.867188 2.410156 3.4375 1.570313 8.179687-1.867187 10.589843-57.148438 40.011719-91.269531 105.492188-91.269531 175.15625 0 69.664063 34.121093 135.144532 91.269531 175.160157 3.4375 2.40625 4.277343 7.148437 1.867187 10.589843-1.476562 2.109376-3.835937 3.242188-6.234375 3.242188zm0 0"/><path d="m404.761719 413.582031c-2.3125 0-4.597657-1.054687-6.09375-3.046875-2.515625-3.363281-1.832031-8.128906 1.53125-10.644531 29.335937-21.96875 53.640625-50.777344 70.292969-83.3125 17.453124-34.097656 26.300781-70.953125 26.300781-109.539063 0-41.640624-10.796875-82.671874-31.222657-118.660156-2.074218-3.652344-.792968-8.292968 2.859376-10.367187 3.652343-2.070313 8.292968-.792969 10.367187 2.859375 21.722656 38.273437 33.203125 81.902344 33.203125 126.167968 0 41.019532-9.410156 80.203126-27.972656 116.46875-17.699219 34.585938-43.535156 65.207032-74.714844 88.554688-1.367188 1.023438-2.964844 1.519531-4.550781 1.519531zm0 0"/><path d="m453.40625 63.847656c-2.289062 0-4.546875-1.027344-6.046875-2.984375-13.503906-17.648437-29.371094-33.351562-47.160156-46.671875-3.363281-2.515625-4.046875-7.28125-1.53125-10.644531 2.519531-3.363281 7.28125-4.046875 10.644531-1.53125 18.90625 14.15625 35.769531 30.847656 50.125 49.609375 2.550781 3.335938 1.917969 8.105469-1.417969 10.660156-1.378906 1.054688-3.003906 1.5625-4.613281 1.5625zm0 0"/><path d="m107.238281 413.570312c-1.585937 0-3.1875-.492187-4.550781-1.519531-31.183594-23.347656-57.019531-53.964843-74.71875-88.546875-18.558594-36.261718-27.96875-75.445312-27.96875-116.464844 0-41.015624 9.410156-80.199218 27.96875-116.460937 17.699219-34.582031 43.535156-65.203125 74.71875-88.550781 3.359375-2.515625 8.125-1.832032 10.644531 1.53125 2.515625 3.359375 1.832031 8.125-1.53125 10.644531-29.335937 21.964844-53.644531 50.773437-70.296875 83.304687-17.449218 34.09375-26.296875 70.945313-26.296875 109.53125 0 38.585938 8.847657 75.4375 26.296875 109.535157 16.652344 32.53125 40.960938 61.339843 70.296875 83.304687 3.359375 2.515625 4.046875 7.28125 1.53125 10.644532-1.496093 1.996093-3.78125 3.046874-6.09375 3.046874zm0 0"/><path d="m223.648438 191.308594c-1.945313 0-3.894532-.742188-5.378907-2.226563-6.867187-6.871093-18.046875-6.871093-24.914062 0-2.972657 2.96875-7.785157 2.96875-10.753907 0-2.972656-2.972656-2.972656-7.785156 0-10.753906 12.796876-12.800781 33.625-12.800781 46.421876 0 2.972656 2.96875 2.972656 7.785156 0 10.753906-1.484376 1.484375-3.429688 2.226563-5.375 2.226563zm0 0"/><path d="m324.027344 191.308594c-1.945313 0-3.894532-.742188-5.378906-2.226563-3.328126-3.328125-7.75-5.164062-12.457032-5.164062-4.707031 0-9.128906 1.835937-12.457031 5.164062-2.972656 2.96875-7.785156 2.96875-10.753906 0-2.96875-2.972656-2.96875-7.785156 0-10.753906 6.199219-6.203125 14.441406-9.613281 23.210937-9.613281 8.769532 0 17.011719 3.414062 23.214844 9.613281 2.96875 2.96875 2.96875 7.785156-.003906 10.753906-1.484375 1.484375-3.429688 2.226563-5.375 2.226563zm0 0"/><path d="m256 246.382812c-11.667969 0-23.332031-4.441406-32.214844-13.324218-2.96875-2.96875-2.96875-7.785156 0-10.753906s7.785156-2.96875 10.753906 0c11.835938 11.835937 31.09375 11.835937 42.925782 0 2.972656-2.96875 7.785156-2.96875 10.753906 0 2.96875 2.972656 2.96875 7.785156 0 10.753906-8.882812 8.882812-20.550781 13.324218-32.21875 13.324218zm0 0"/></svg>