<svg height="512pt" viewBox="0 -1 512.00404 512" width="512pt" xmlns="http://www.w3.org/2000/svg"><path d="m481.300781 168.910156c0-13.707031 24.832031-30.488281 21.453125-43.132812-3.496094-13.078125-33.492187-15.183594-40.117187-26.636719-6.71875-11.617187 6.378906-38.628906-3.046875-48.058594-9.425782-9.425781-36.441406 3.675781-48.058594-3.042969-11.449219-6.625-13.558594-36.625-26.636719-40.121093-12.640625-3.378907-29.425781 21.457031-43.128906 21.457031-13.707031 0-30.492187-24.835938-43.132813-21.457031-13.078124 3.496093-15.183593 33.496093-26.636718 40.121093-11.617188 6.71875-38.628906-6.382812-48.058594 3.046876-9.425781 9.425781 3.675781 36.441406-3.042969 48.054687-6.628906 11.453125-36.625 13.558594-40.121093 26.640625-3.378907 12.640625 21.453124 29.421875 21.453124 43.128906 0 13.707032-24.832031 30.488282-21.453124 43.128906 3.496093 13.078126 33.492187 15.1875 40.121093 26.640626 6.71875 11.613281-6.382812 38.628906 3.046875 48.054687 9.425782 9.429687 36.4375-3.671875 48.054688 3.046875 11.453125 6.625 13.558594 36.625 26.640625 40.117188 12.640625 3.378906 29.421875-21.453126 43.128906-21.453126s30.488281 24.832032 43.128906 21.453126c13.078125-3.492188 15.1875-33.492188 26.636719-40.117188 11.617188-6.71875 38.632812 6.382812 48.058594-3.046875 9.429687-9.425781-3.671875-36.441406 3.046875-48.058594 6.625-11.449219 36.621093-13.558593 40.117187-26.636719 3.378906-12.640624-21.453125-29.425781-21.453125-43.128906zm0 0" fill="#ffee8c"/><path d="m449.488281 168.90625c0 54.410156-40.339843 99.398438-92.75 106.6875-4.890625.683594-9.890625 1.035156-14.972656 1.035156-59.492187 0-107.726563-48.230468-107.726563-107.722656s48.234376-107.71875 107.726563-107.71875c5.085937 0 10.082031.347656 14.972656 1.035156 52.410157 7.289063 92.75 52.273438 92.75 106.683594zm0 0" fill="#f28f44"/><path d="m449.488281 168.90625c0 54.410156-40.339843 99.398438-92.75 106.6875-52.40625-7.289062-92.746093-52.277344-92.746093-106.6875 0-54.40625 40.339843-99.394531 92.746093-106.683594 52.410157 7.289063 92.75 52.273438 92.75 106.683594zm0 0" fill="#ffd073"/><path d="m403.589844 319.707031c0 36.761719-29.800782 66.5625-66.574219 66.5625h-240.917969c-48.878906 0-88.515625-39.625-88.515625-88.519531 0-48.882812 39.632813-88.519531 88.515625-88.519531 4.386719 0 8.699219.339843 12.921875.953125 19.992188-39.699219 61.101563-66.941406 108.597657-66.941406 57.46875 0 105.613281 39.898437 118.257812 93.503906 1.265625 5.347656 2.175781 10.832031 2.699219 16.417968v.011719c36.039062.828125 65.015625 30.292969 65.015625 66.53125zm0 0" fill="#d3ddea"/><path d="m259.851562 150.792969c-13.15625-4.882813-27.390624-7.546875-42.234374-7.546875-47.496094 0-88.59375 27.242187-108.597657 66.925781v.015625c-4.222656-.613281-8.535156-.953125-12.921875-.953125-48.894531 0-88.519531 39.636719-88.519531 88.519531 0 48.894532 39.625 88.519532 88.519531 88.519532h42.785156c-44.058593 0-79.757812-35.710938-79.757812-79.757813 0-39.085937 28.113281-71.613281 65.238281-78.4375 3.671875-.683594 7.433594-1.109375 11.269531-1.261719 1.074219-.035156 2.164063-.0625 3.25-.0625 14.320313 0 27.765626 3.773438 39.375 10.398438-1.613281-11.238282-13.230468-21.765625-30.359374-30.246094 9.40625-31.808594 41.414062-61.308594 111.953124-56.113281zm0 0" fill="#97b0cc"/><path d="m264.070312 381.886719c.480469.085937.761719.085937.808594.085937h-3.6875c.964844 0 1.921875-.03125 2.878906-.085937zm0 0" fill="#97b0cc"/><path d="m504.421875 448.039062c0 29.734376-24.101563 53.835938-53.84375 53.835938h-194.835937c-39.535157 0-71.589844-32.046875-71.589844-71.589844 0-39.535156 32.054687-71.589844 71.589844-71.589844 3.546874 0 7.03125.273438 10.449218.769532 16.167969-32.105469 49.417969-54.136719 87.828125-54.136719 46.476563 0 85.414063 32.265625 95.640625 75.621094 1.019532 4.324219 1.757813 8.761719 2.183594 13.277343v.011719c29.144531.667969 52.578125 24.496094 52.578125 53.800781zm0 0" fill="#d3ddea"/><path d="m388.175781 311.4375c-10.640625-3.953125-22.152343-6.105469-34.15625-6.105469-38.414062 0-71.652343 22.03125-87.828125 54.125v.011719c-3.417968-.496094-6.902344-.769531-10.449218-.769531-39.546876 0-71.589844 32.054687-71.589844 71.589843 0 39.542969 32.042968 71.589844 71.589844 71.589844h34.601562c-35.632812 0-64.507812-28.882812-64.507812-64.503906 0-31.613281 22.738281-57.917969 52.761718-63.433594 2.972656-.558594 6.015625-.902344 9.117188-1.023437.867187-.027344 1.75-.050781 2.628906-.050781 11.578125 0 22.453125 3.054687 31.839844 8.410156-1.300782-9.089844-10.695313-17.601563-24.550782-24.460938 7.609376-25.726562 33.492188-49.582031 90.542969-45.378906zm0 0" fill="#97b0cc"/><path d="m494.476562 405.097656c-9.726562-9.9375-22.28125-16.171875-35.882812-17.9375-.417969-2.667968-.9375-5.328125-1.558594-7.949218-5.378906-22.816407-18.472656-43.5-36.863281-58.242188-2.949219-2.363281-6.027344-4.539062-9.199219-6.5625-.230468-3.253906-.667968-6.472656-1.3125-9.628906 1.351563-2.941406 3.550782-7.214844 5.660156-8.433594 3.199219-1.847656 11.542969-.714844 18.246094.195312 11.65625 1.585938 23.710938 3.222657 31.378906-4.445312 7.675782-7.667969 6.035157-19.722656 4.445313-31.382812-.910156-6.703126-2.046875-15.046876-.199219-18.234376 1.777344-3.070312 9.46875-6.203124 15.648438-8.71875 10.492187-4.273437 22.386718-9.113281 25.234375-19.757812 2.753906-10.292969-4.609375-19.796875-11.730469-28.984375-4.21875-5.445313-9.46875-12.21875-9.46875-16.109375 0-3.886719 5.25-10.660156 9.46875-16.105469 7.121094-9.1875 14.484375-18.691406 11.730469-28.980469-2.847657-10.644531-14.738281-15.484374-25.226563-19.753906-6.183594-2.515625-13.875-5.648437-15.65625-8.722656-1.847656-3.191406-.710937-11.53125.199219-18.234375 1.589844-11.65625 3.230469-23.710937-4.441406-31.382813-7.671875-7.671874-19.726563-6.035156-31.382813-4.449218-6.703125.910156-15.050781 2.042968-18.246094.195312-3.070312-1.773437-6.199218-9.464844-8.710937-15.644531-4.269531-10.496094-9.105469-22.390625-19.757813-25.238281-10.292968-2.746094-19.789062 4.617187-28.976562 11.738281-5.441406 4.21875-12.21875 9.472656-16.109375 9.472656-3.894531 0-10.671875-5.253906-16.117187-9.476562-9.183594-7.121094-18.679688-14.480469-28.972657-11.730469-10.644531 2.84375-15.484375 14.738281-19.757812 25.234375-2.515625 6.179687-5.644531 13.871094-8.714844 15.644531-3.195313 1.847656-11.542969.714844-18.246094-.195312-11.65625-1.585938-23.710937-3.222656-31.386719 4.453125-7.660156 7.667969-6.023437 19.71875-4.4375 31.375.910157 6.703125 2.042969 15.046875.199219 18.238281-1.78125 3.074219-9.476562 6.207031-15.65625 8.722656-10.492187 4.269532-22.378906 9.109375-25.226562 19.757813-1.710938 6.40625.625 12.65625 3.964843 18.191406-30.535156 9.933594-56.570312 31.046875-72.664062 60.035156-2.929688-.265625-5.824219-.398437-8.65625-.398437-52.984375 0-96.09375 43.109375-96.09375 96.101562 0 52.988282 43.109375 96.097656 96.09375 96.097656h12.46875c4.183594 0 7.578125-3.394531 7.578125-7.578124 0-4.1875-3.394531-7.582032-7.578125-7.582032h-12.464844c-44.628906 0-80.9375-36.308594-80.9375-80.9375 0-44.632812 36.308594-80.945312 80.9375-80.945312 3.828125 0 7.8125.292968 11.847656.875 3.214844.460937 6.382813-1.1875 7.847657-4.09375 19.5-38.71875 58.515625-62.769532 101.828125-62.769532 26.1875 0 50.808594 8.640626 71.195312 24.984376 19.800782 15.875 33.894532 38.136718 39.683594 62.683593 1.183594 5.007813 2.03125 10.140625 2.519531 15.265625.289063 3.851563 3.460938 6.910156 7.382813 7 27.347656.628906 49.851562 19.53125 55.960937 45.019532-12.726562-5.238282-26.449219-8.023438-40.34375-8.023438-38.457031 0-73.269531 20.410156-92.089843 53.617188-2.078126-.167969-4.148438-.25-6.1875-.25-23.953126 0-45.441407 10.710937-59.96875 27.574218h-56.890626c-4.1875 0-7.578124 3.394532-7.578124 7.582032 0 4.183593 3.390624 7.578124 7.578124 7.578124h46.609376c-5.683594 10.914063-8.917969 23.300782-8.917969 36.433594 0 43.65625 35.515625 79.167969 79.167969 79.167969h194.839843c33.867188 0 61.421875-27.546875 61.421875-61.410156 0-16.152344-6.226562-31.40625-17.527344-42.945313zm-151.222656-170.089844c-6.5625-27.824218-22.527344-53.046874-44.953125-71.03125-15.253906-12.226562-33.144531-20.769531-52.085937-25.085937 5.894531-18.714844 17.320312-35.542969 32.730468-47.972656 17.964844-14.488281 39.6875-22.148438 62.820313-22.148438 4.710937 0 9.394531.320313 13.925781.957031 11.964844 1.664063 23.410156 5.445313 34.011719 11.238282 3.675781 2.007812 8.277344.65625 10.285156-3.019532 2.003907-3.671874.652344-8.277343-3.019531-10.285156-12.214844-6.675781-25.402344-11.03125-39.179688-12.945312-5.21875-.734375-10.605468-1.105469-16.023437-1.105469-26.253906 0-51.941406 9.058594-72.339844 25.507813-18.285156 14.75-31.6875 34.894531-38.273437 57.257812-4.484375-.472656-9-.71875-13.535156-.71875-8.378907 0-16.609376.8125-24.617188 2.347656-2.578125-3.59375-5.464844-8.171875-4.90625-10.273437.898438-3.359375 10.167969-7.132813 16.296875-9.628907 9.1875-3.734374 18.683594-7.601562 23.0625-15.167968 4.445313-7.683594 3.050781-17.949219 1.699219-27.875-.878906-6.476563-2.210938-16.261719.140625-18.617188 2.355469-2.359375 12.148437-1.027344 18.625-.148437 9.925781 1.347656 20.191406 2.742187 27.875-1.699219 7.5625-4.375 11.429687-13.871094 15.167969-23.054688 2.496093-6.136718 6.269531-15.40625 9.628906-16.304687 3.050781-.804687 10.699218 5.132813 15.773437 9.066406 8.023438 6.222657 16.320313 12.652344 25.402344 12.652344 9.078125 0 17.375-6.429687 25.398437-12.648437 5.078126-3.9375 12.757813-9.875 15.777344-9.074219 3.363282.902343 7.132813 10.171875 9.625 16.304687 3.738282 9.183594 7.601563 18.683594 15.164063 23.054688 7.6875 4.445312 17.949219 3.050781 27.875 1.703125 6.480469-.878907 16.265625-2.210938 18.625.148437 2.355469 2.355469 1.023437 12.144532.144531 18.617188-1.351562 9.925781-2.75 20.1875 1.695312 27.871094 4.378907 7.566406 13.878907 11.433593 23.066407 15.171874 6.128906 2.496094 15.394531 6.265626 16.292969 9.628907.8125 3.03125-5.132813 10.703125-9.066407 15.78125-6.214843 8.023437-12.644531 16.316406-12.644531 25.390625 0 9.078125 6.425781 17.371094 12.644531 25.394531 3.933594 5.074219 9.878907 12.746094 9.066407 15.78125-.898438 3.363281-10.167969 7.136719-16.304688 9.632813-9.179688 3.738281-18.675781 7.605468-23.054688 15.164062-4.445312 7.683594-3.046874 17.949219-1.695312 27.875.878906 6.476562 2.210938 16.261719-.144531 18.617188-2.359375 2.355468-12.148438 1.027343-18.625.144531-9.925781-1.347657-20.191407-2.742188-27.871094 1.699219-1.605469.929687-3.042969 2.089843-4.34375 3.417968-2.621094-5.25-5.882813-10.203125-9.738281-14.753906 17.035156-8.578125 31.667968-21.21875 42.71875-37.050781 13.539062-19.394531 20.691406-42.1875 20.691406-65.921875 0-31.761719-12.640625-61.351563-35.601562-83.316406-3.023438-2.894532-7.820313-2.789063-10.714844.234374-2.894532 3.027344-2.789063 7.824219.234375 10.71875 19.941406 19.078126 30.921875 44.777344 30.921875 72.363282 0 20.613281-6.210938 40.410156-17.960938 57.246094-10.660156 15.269531-25.144531 27.136718-42.070312 34.53125-10.628906-8.097657-23.1875-13.152344-36.519532-14.640626-.539062-3.707031-1.242187-7.402343-2.097656-11.03125zm107.324219 259.285157h-194.835937c-35.296876 0-64.011719-28.710938-64.011719-64.007813s28.714843-64.007812 64.011719-64.007812c3.054687 0 6.203124.230468 9.359374.6875 3.226563.46875 6.390626-1.179688 7.859376-4.09375 15.519531-30.820313 46.582031-49.964844 81.058593-49.964844 20.847657 0 40.445313 6.878906 56.671875 19.886719 15.765625 12.636719 26.980469 30.355469 31.59375 49.898437.9375 3.984375 1.613282 8.0625 2 12.121094.289063 3.851562 3.460938 6.910156 7.382813 7 12.125.277344 23.480469 5.210938 31.980469 13.890625 8.507812 8.6875 13.195312 20.175781 13.195312 32.335937 0 25.507813-20.753906 46.253907-46.265625 46.253907zm0 0"/><path d="m358.648438 147.625v-6.671875c0-4.1875-3.390626-7.578125-7.578126-7.578125s-7.582031 3.390625-7.582031 7.578125v6.671875c0 4.183594 3.394531 7.578125 7.582031 7.578125s7.578126-3.394531 7.578126-7.578125zm0 0"/><path d="m397.722656 155.203125c4.1875 0 7.578125-3.394531 7.578125-7.578125v-6.671875c0-4.1875-3.390625-7.578125-7.578125-7.578125s-7.578125 3.390625-7.578125 7.578125v6.671875c0 4.183594 3.390625 7.578125 7.578125 7.578125zm0 0"/><path d="m402.101562 182.875c2.957032-2.960938 2.957032-7.761719 0-10.71875-2.960937-2.960938-7.761718-2.960938-10.71875 0-4.195312 4.191406-9.769531 6.5-15.699218 6.5-5.933594 0-11.507813-2.308594-15.699219-6.5-2.960937-2.960938-7.761719-2.960938-10.71875 0-2.960937 2.957031-2.960937 7.757812 0 10.71875 7.054687 7.054688 16.4375 10.941406 26.417969 10.941406 9.980468 0 19.359375-3.886718 26.417968-10.941406zm0 0"/></svg>