<svg height="512pt" viewBox="0 -41 512.00069 512" width="512pt" xmlns="http://www.w3.org/2000/svg"><path d="m393.925781 214.753906c0-17.601562 31.890625-39.152344 27.550781-55.382812-4.488281-16.796875-43.007812-19.503906-51.515624-34.207032-8.632813-14.917968 8.191406-49.605468-3.914063-61.710937s-46.796875 4.71875-61.710937-3.914063c-14.707032-8.503906-17.410157-47.027343-34.207032-51.515624-16.230468-4.339844-37.78125 27.550781-55.382812 27.550781-17.597656 0-39.152344-31.890625-55.382813-27.550781-16.796875 4.488281-19.5 43.007812-34.207031 51.515624-14.914062 8.632813-49.605469-8.191406-61.710938 3.914063-12.105468 12.105469 4.71875 46.796875-3.910156 61.710937-8.507812 14.707032-47.027344 17.410157-51.519531 34.207032-4.335937 16.230468 27.550781 37.78125 27.550781 55.382812 0 17.597656-31.886718 39.152344-27.550781 55.382813 4.492187 16.792969 43.011719 19.5 51.519531 34.207031 8.628906 14.914062-8.195312 49.605469 3.910156 61.710938 12.105469 12.105468 46.796876-4.71875 61.714844 3.910156 14.703125 8.507812 17.40625 47.027344 34.203125 51.519531 16.230469 4.335937 37.785157-27.550781 55.382813-27.550781 17.601562 0 39.152344 31.886718 55.382812 27.550781 16.796875-4.492187 19.503906-43.011719 34.207032-51.519531 14.917968-8.628906 49.605468 8.195312 61.710937-3.910156 12.105469-12.105469-4.71875-46.796876 3.914063-61.710938 8.503906-14.707031 47.027343-17.410156 51.515624-34.207031 4.339844-16.230469-27.550781-37.785157-27.550781-55.382813zm0 0" fill="#ffee8c"/><path d="m353.074219 214.753906c0 69.867188-51.800781 127.636719-119.097657 136.996094-6.28125.878906-12.699218 1.324219-19.226562 1.324219-76.394531 0-138.332031-61.925781-138.332031-138.320313 0-76.398437 61.9375-138.324218 138.332031-138.324218 6.527344 0 12.945312.445312 19.226562 1.324218 67.296876 9.359375 119.097657 67.128906 119.097657 137zm0 0" fill="#f28f44"/><path d="m353.074219 214.753906c0 49.808594-26.332031 93.464844-65.832031 117.808594-15.90625 9.820312-33.941407 16.503906-53.265626 19.191406-67.300781-9.371094-119.097656-67.136718-119.097656-137 0-69.867187 51.796875-127.632812 119.097656-137.003906 19.324219 2.6875 37.359376 9.371094 53.265626 19.195312 39.5 24.339844 65.832031 67.996094 65.832031 117.808594zm0 0" fill="#ffd073"/><path d="m353.074219 214.753906c0 49.808594-26.332031 93.464844-65.832031 117.808594-45.589844-19.660156-77.507813-65.007812-77.507813-117.808594 0-52.804687 31.917969-98.152344 77.507813-117.808594 39.5 24.339844 65.832031 67.996094 65.832031 117.808594zm0 0" fill="#f28f44"/><path d="m504.394531 214.753906c0 64.777344-48.027343 118.335938-110.417969 127.011719-5.824218.816406-11.773437 1.234375-17.824218 1.234375-70.832032 0-128.253906-57.417969-128.253906-128.246094s57.421874-128.246094 128.253906-128.246094c6.050781 0 12 .414063 17.824218 1.230469 62.390626 8.675781 110.417969 62.234375 110.417969 127.015625zm0 0" fill="#84abc1"/><path d="m347.464844 339.769531c3.566406.820313 7.1875 1.488281 10.855468 1.996094 5.820313.8125 11.773438 1.226563 17.824219 1.226563 70.828125 0 128.25-57.414063 128.25-128.238282 0-70.828125-57.421875-128.242187-128.25-128.242187-6.050781 0-12.003906.414062-17.824219 1.226562-3.667968.507813-7.289062 1.175781-10.855468 1.996094 57.015625 13.027344 99.558594 64.054687 99.558594 125.019531 0 60.960938-42.542969 111.988282-99.558594 125.015625zm0 0" fill="#4d87a1"/><path d="m451.679688 188.664062c0 17.359376-14.074219 31.429688-31.429688 31.429688-3.671875 0-7.199219-.628906-10.472656-1.792969 12.207031-4.320312 20.945312-15.957031 20.945312-29.636719 0-13.675781-8.738281-25.3125-20.945312-29.632812 3.273437-1.164062 6.800781-1.792969 10.472656-1.792969 17.355469 0 31.429688 14.070313 31.429688 31.425781zm0 0" fill="#a3c4d3"/><path d="m336.101562 244.425781c-2.636718 0-5.144531.53125-7.433593 1.492188 6.945312 2.910156 11.828125 9.769531 11.828125 17.769531 0 8.003906-4.882813 14.863281-11.828125 17.773438 2.289062.960937 4.796875 1.492187 7.433593 1.492187 10.636719 0 19.261719-8.625 19.261719-19.265625 0-10.636719-8.625-19.261719-19.261719-19.261719zm0 0" fill="#a3c4d3"/><path d="m452.40625 102.308594c-3.476562-2.359375-8.203125-1.457032-10.5625 2.019531-2.359375 3.472656-1.457031 8.199219 2.015625 10.558594 33.144531 22.519531 52.933594 59.851562 52.933594 99.867187 0 29.292969-10.628907 57.535156-29.925781 79.527344-19.121094 21.792969-45.382813 35.984375-73.945313 39.957031-5.488281.765625-11.132813 1.15625-16.773437 1.15625-66.527344 0-120.648438-54.121093-120.648438-120.640625 0-66.523437 54.125-120.644531 120.648438-120.644531 5.644531 0 11.289062.390625 16.78125 1.160156 9.191406 1.277344 18.234374 3.628907 26.875 6.980469 3.914062 1.519531 8.320312-.421875 9.839843-4.335938 1.519531-3.914062-.421875-8.320312-4.335937-9.839843-9.738282-3.78125-19.925782-6.425781-30.277344-7.867188-5.515625-.773437-11.167969-1.183593-16.832031-1.265625.058593-7.773437-1.339844-15.429687-6.769531-20.859375-9.105469-9.105469-24.054688-7.074219-38.511719-5.109375-9.394531 1.277344-20.042969 2.726563-24.773438-.011718-4.574219-2.644532-8.574219-12.46875-12.097656-21.136719-5.558594-13.648438-11.300781-27.765625-23.957031-31.148438-12.191406-3.253906-23.960938 5.867188-35.34375 14.6875-7.628906 5.910157-16.273438 12.609375-22 12.609375-5.726563 0-14.371094-6.699218-21.996094-12.605468-11.378906-8.824219-23.152344-17.945313-35.34375-14.691407-12.652344 3.382813-18.402344 17.503907-23.957031 31.15625-3.527344 8.664063-7.523438 18.484375-12.09375 21.128907-4.734375 2.738281-15.382813 1.289062-24.777344.015624-14.457031-1.96875-29.402344-4-38.503906 5.105469-9.105469 9.101563-7.074219 24.050781-5.109375 38.503907 1.277344 9.394531 2.726562 20.046874-.011719 24.777343-2.644531 4.570313-12.464844 8.566407-21.132813 12.09375-13.652343 5.554688-27.769531 11.300781-31.144531 23.945313-3.257812 12.195312 5.863281 23.96875 14.683594 35.355468 5.910156 7.628907 12.605469 16.269532 12.605469 21.996094 0 5.726563-6.695313 14.371094-12.605469 21.996094-8.820313 11.382812-17.941406 23.160156-14.683594 35.347656 3.375 12.648438 17.488281 18.394532 31.136719 23.949219 8.671875 3.53125 18.492188 7.527344 21.140625 12.105469 2.734375 4.730468 1.289063 15.375.011719 24.773437-1.964844 14.457031-3.996094 29.40625 5.109375 38.507813 9.101562 9.105468 24.050781 7.066406 38.507812 5.101562 9.394531-1.277344 20.042969-2.726562 24.769531.007813 4.574219 2.648437 8.570313 12.46875 12.097657 21.132812 5.554687 13.652344 11.300781 27.769531 23.957031 31.152344 1.730469.464844 3.453125.679687 5.167969.679687 10.359375 0 20.414062-7.796874 30.183593-15.367187 7.621094-5.910156 16.261719-12.609375 21.988282-12.609375 5.722656 0 14.367187 6.699219 21.992187 12.609375 11.386719 8.824219 23.164063 17.949219 35.355469 14.691406 12.65625-3.382812 18.402344-17.503906 23.960938-31.15625 3.527343-8.664062 7.523437-18.484375 12.089843-21.132812 4.726563-2.734375 15.375-1.285157 24.765625-.007813 14.464844 1.964844 29.414063 4 38.515625-5.109375 5.433594-5.433593 6.832031-13.089843 6.773438-20.859375 5.660156-.085937 11.3125-.496094 16.824219-1.269531 32.171874-4.472656 61.746093-20.449219 83.277343-44.984375 21.734375-24.769531 33.699219-56.574219 33.699219-89.5625 0-45.054688-22.277344-87.089844-59.59375-112.441406zm-91.734375 258.363281c-3.773437 3.777344-15.9375 2.121094-25.710937.792969-12.386719-1.6875-25.195313-3.429688-34.433594 1.917968-9.074219 5.253907-13.898438 17.101563-18.558594 28.558594-3.765625 9.25-8.453125 20.765625-13.800781 22.195313-4.914063 1.320312-14.449219-6.078125-22.113281-12.015625-10.019532-7.765625-20.382813-15.796875-31.3125-15.796875-10.925782 0-21.285157 8.03125-31.304688 15.796875-7.660156 5.9375-17.195312 13.332031-22.105469 12.015625-5.347656-1.429688-10.035156-12.941407-13.800781-22.195313-4.664062-11.457031-9.484375-23.304687-18.5625-28.5625-9.238281-5.34375-22.050781-3.597656-34.4375-1.914062-9.773438 1.332031-21.933594 2.984375-25.707031-.785156-3.773438-3.773438-2.117188-15.933594-.789063-25.707032 1.683594-12.390625 3.425782-25.199218-1.917968-34.433594-5.253907-9.085937-17.105469-13.910156-28.570313-18.578124-9.246094-3.761719-20.753906-8.445313-22.179687-13.785157-1.3125-4.914062 6.078124-14.449219 12.015624-22.117187 7.761719-10.019532 15.789063-20.378906 15.789063-31.308594 0-10.925781-8.027344-21.289062-15.789063-31.308594-5.9375-7.664062-13.328124-17.199218-12.015624-22.113281 1.425781-5.339844 12.9375-10.023437 22.183593-13.785156 11.460938-4.664063 23.3125-9.488281 28.566407-18.566407 5.34375-9.242187 3.601562-22.050781 1.917968-34.441406-1.328125-9.769531-2.980468-21.929687.789063-25.703125 3.773437-3.769531 15.933593-2.121093 25.703125-.789062 12.390625 1.683593 25.199218 3.425781 34.441406-1.917969 9.078125-5.253906 13.902344-17.101562 18.566406-28.5625 3.765625-9.25 8.449219-20.765625 13.792969-22.195312 4.917969-1.308594 14.445313 6.078124 22.105469 12.015624 10.023437 7.765626 20.382812 15.796876 31.3125 15.796876 10.929687 0 21.292968-8.03125 31.3125-15.796876 7.664062-5.9375 17.207031-13.328124 22.109375-12.015624 5.34375 1.425781 10.027343 12.9375 13.792969 22.1875 4.664062 11.464843 9.484374 23.316406 18.570312 28.570312 9.234375 5.34375 22.046875 3.601562 34.4375 1.917969 9.773438-1.328125 21.933594-2.984375 25.707031.789062 1.980469 1.984375 2.421875 6.300781 2.316407 10.710938-21.402344 2.066406-41.363282 9.121093-58.714844 19.980469-20.144532-15.683594-43.96875-25.785157-69.253906-29.304688-6.652344-.921875-13.46875-1.390625-20.269532-1.390625-80.472656 0-145.941406 65.460937-145.941406 145.925781 0 40.371094 16.957031 79.308594 46.523438 106.832032 1.464843 1.363281 3.324218 2.039062 5.179687 2.039062 2.039063 0 4.070313-.816406 5.566406-2.425781 2.859375-3.074219 2.6875-7.882813-.382812-10.746094-26.488281-24.65625-41.679688-59.539063-41.679688-95.703125 0-72.074219 58.648438-130.714844 130.734375-130.714844 6.101563 0 12.21875.421875 18.175782 1.246094 21.117187 2.9375 41.101562 11.011719 58.335937 23.484375-31.050781 24.917969-50.972656 63.167969-50.972656 105.984375 0 42.820312 19.921875 81.066406 50.972656 105.984375-17.234375 12.472656-37.21875 20.546875-58.332031 23.484375-6.011719.835938-12.128906 1.257812-18.179688 1.257812-22.871094 0-45.378906-5.992187-65.082031-17.324218-3.636719-2.09375-8.289063-.839844-10.382813 2.800781s-.839843 8.289063 2.800782 10.382813c22.007812 12.65625 47.136718 19.347656 72.664062 19.347656 6.75 0 13.570313-.472656 20.273438-1.402344 25.28125-3.519531 49.101562-13.621094 69.25-29.300781 17.351562 10.859375 37.3125 17.914062 58.714844 19.980469.105468 4.410156-.335938 8.726562-2.320313 10.710937zm0 0"/><path d="m459.28125 188.664062c0-21.519531-17.507812-39.03125-39.03125-39.03125s-39.03125 17.511719-39.03125 39.03125c0 21.523438 17.507812 39.035157 39.03125 39.035157s39.03125-17.511719 39.03125-39.035157zm-39.03125 23.828126c-13.136719 0-23.824219-10.6875-23.824219-23.828126 0-13.136718 10.6875-23.824218 23.824219-23.824218s23.824219 10.6875 23.824219 23.824218c0 13.140626-10.6875 23.828126-23.824219 23.828126zm0 0"/><path d="m309.234375 263.6875c0 14.816406 12.050781 26.867188 26.867187 26.867188 14.8125 0 26.867188-12.050782 26.867188-26.867188 0-14.8125-12.054688-26.863281-26.867188-26.863281-14.816406 0-26.867187 12.050781-26.867187 26.863281zm26.867187-11.65625c6.429688 0 11.660157 5.230469 11.660157 11.65625 0 6.429688-5.230469 11.660156-11.660157 11.660156-6.429687 0-11.660156-5.230468-11.660156-11.660156 0-6.425781 5.230469-11.65625 11.660156-11.65625zm0 0"/><path d="m332.523438 192.0625c3.0625-.585938 5.488281-3.136719 6.007812-6.195312.546875-3.238282-1.144531-6.582032-4.082031-8.042969-2.753907-1.371094-6.136719-.9375-8.449219 1.09375-2.453125 2.152343-3.238281 5.761719-1.925781 8.746093 1.414062 3.222657 4.992187 5.101563 8.449219 4.398438zm0 0"/><path d="m424.386719 263.109375c-3.203125-1.277344-6.929688-.292969-9.003907 2.488281-1.820312 2.4375-1.992187 5.8125-.4375 8.425782 1.554688 2.617187 4.636719 4.085937 7.648438 3.632812 3.171875-.480469 5.75-2.964844 6.351562-6.113281.667969-3.5-1.289062-7.050781-4.558593-8.433594zm0 0"/><path d="m147.265625 174.804688v-10.386719c0-4.199219-3.40625-7.605469-7.605469-7.605469-4.199218 0-7.601562 3.40625-7.601562 7.605469v10.386719c0 4.199218 3.402344 7.605468 7.601562 7.605468 4.199219 0 7.605469-3.40625 7.605469-7.605468zm0 0"/><path d="m212.296875 182.410156c4.199219 0 7.605469-3.40625 7.605469-7.605468v-10.386719c0-4.199219-3.40625-7.605469-7.605469-7.605469s-7.601563 3.40625-7.601563 7.605469v10.386719c0 4.199218 3.402344 7.605468 7.601563 7.605468zm0 0"/><path d="m166.800781 239.542969h25.175781c4.199219 0 7.601563-3.402344 7.601563-7.601563 0-4.199218-3.402344-7.605468-7.601563-7.605468h-25.175781c-4.199219 0-7.605469 3.40625-7.605469 7.605468 0 4.199219 3.40625 7.601563 7.605469 7.601563zm0 0"/></svg>