<svg height="512pt" viewBox="0 0 512 512.00024" width="512pt" xmlns="http://www.w3.org/2000/svg"><path d="m406.351562 181.503906c0-14.773437 26.769532-32.867187 23.125-46.492187-3.765624-14.101563-36.105468-16.371094-43.246093-28.714844-7.246094-12.523437 6.878906-41.644531-3.285157-51.808594-10.160156-10.160156-39.28125 3.960938-51.804687-3.28125-12.34375-7.144531-14.617187-39.480469-28.714844-43.25-13.625-3.640625-31.71875 23.128907-46.492187 23.128907-14.777344 0-32.867188-26.769532-46.496094-23.128907-14.097656 3.769531-16.371094 36.105469-28.714844 43.25-12.519531 7.246094-41.644531-6.878906-51.804687 3.28125-10.164063 10.164063 3.960937 39.285157-3.285157 51.808594-7.140624 12.34375-39.480468 14.613281-43.246093 28.714844-3.640625 13.625 23.125 31.71875 23.125 46.492187 0 14.773438-26.769531 32.867188-23.125 46.492188 3.769531 14.101562 36.105469 16.371094 43.246093 28.714844 7.246094 12.523437-6.875 41.644531 3.285157 51.808593 10.164062 10.160157 39.285156-3.960937 51.804687 3.285157 12.347656 7.140624 14.617188 39.476562 28.714844 43.246093 13.628906 3.640625 31.71875-23.128906 46.496094-23.128906 14.773437 0 32.867187 26.769531 46.492187 23.128906 14.097657-3.769531 16.371094-36.105469 28.714844-43.25 12.523437-7.246093 41.644531 6.878907 51.804687-3.28125 10.164063-10.164062-3.960937-39.285156 3.285157-51.808593 7.140625-12.34375 39.480469-14.613282 43.246093-28.714844 3.644532-13.625-23.125-31.71875-23.125-46.492188zm0 0" fill="#ffee8c"/><path d="m372.054688 181.503906c0 58.652344-43.484376 107.148438-99.980469 115.003906-5.273438.738282-10.660157 1.117188-16.140625 1.117188-64.128906 0-116.125-51.988281-116.125-116.121094 0-64.132812 51.996094-116.121094 116.125-116.121094 5.480468 0 10.867187.375 16.140625 1.113282 56.496093 7.859375 99.980469 56.355468 99.980469 115.007812zm0 0" fill="#f28f44"/><path d="m372.054688 181.503906c0 58.652344-43.484376 107.148438-99.980469 115.003906-56.496094-7.855468-99.980469-56.351562-99.980469-115.003906s43.484375-107.148437 99.980469-115.003906c56.496093 7.855469 99.980469 56.351562 99.980469 115.003906zm0 0" fill="#ffd073"/><path d="m75.042969 229.960938c2.996093 11.207031 15.128906 16.144531 26.867187 20.921874 6.742188 2.742188 15.132813 6.160157 17.144532 9.636719 2.089843 3.609375.851562 12.710938-.140626 20.023438-1.691406 12.429687-3.441406 25.28125 4.628907 33.351562 8.070312 8.070313 20.921875 6.320313 33.351562 4.632813 7.308594-.996094 16.410157-2.234375 20.023438-.144532 3.476562 2.011719 6.894531 10.402344 9.636719 17.144532 4.777343 11.738281 9.714843 23.871094 20.921874 26.867187 10.816407 2.894531 20.945313-4.953125 30.738282-12.542969 6.246094-4.839843 13.328125-10.324218 17.71875-10.324218 4.386718 0 11.46875 5.484375 17.714844 10.324218 8.371093 6.484376 16.980468 13.15625 26.058593 13.15625 1.546875 0 3.105469-.191406 4.679688-.613281 11.207031-2.996093 16.148437-15.128906 20.925781-26.867187 2.742188-6.742188 6.15625-15.132813 9.636719-17.144532 3.609375-2.089843 12.710937-.851562 20.023437.140626 12.429688 1.691406 25.28125 3.441406 33.347656-4.628907 8.070313-8.070312 6.324219-20.921875 4.632813-33.351562-.992187-7.3125-2.230469-16.414063-.144531-20.023438 2.015625-3.480469 10.40625-6.894531 17.148437-9.636719 11.734375-4.777343 23.871094-9.714843 26.867188-20.921874 2.890625-10.820313-4.957031-20.949219-12.542969-30.742188-4.839844-6.246094-10.328125-13.324219-10.328125-17.714844s5.488281-11.46875 10.328125-17.714844c7.585938-9.792968 15.433594-19.921874 12.539062-30.742187-2.992187-11.207031-15.128906-16.144531-26.863281-20.921875-6.742187-2.742188-15.132812-6.160156-17.148437-9.636719-2.085938-3.609375-.851563-12.710937.144531-20.023437 1.691406-12.425782 3.4375-25.28125-4.632813-33.351563-8.070312-8.066406-20.917968-6.320312-33.347656-4.628906-7.316406.992187-16.414062 2.230469-20.023437.140625-3.480469-2.011719-6.894531-10.402344-9.640625-17.144531-4.773438-11.734375-9.714844-23.871094-20.917969-26.867188-10.824219-2.890625-20.949219 4.957031-30.742187 12.542969-6.246094 4.84375-13.328126 10.328125-17.714844 10.328125-4.390625 0-11.472656-5.488281-17.71875-10.328125-9.789063-7.585938-19.914063-15.433594-30.738282-12.542969-11.207031 2.996094-16.144531 15.132813-20.921874 26.867188-2.746094 6.742187-6.160157 15.132812-9.636719 17.144531-3.613281 2.089844-12.710938.851562-20.023438-.140625-12.425781-1.691406-25.28125-3.4375-33.351562 4.628906-8.070313 8.070313-6.320313 20.921875-4.632813 33.351563.996094 7.3125 2.234375 16.414062.144532 20.023437-2.011719 3.480469-10.402344 6.894531-17.144532 9.636719-11.738281 4.777344-23.871094 9.714844-26.867187 20.921875-2.890625 10.820313 4.957031 20.945313 12.542969 30.742187 4.839843 6.246094 10.328124 13.324219 10.328124 17.714844s-5.488281 11.46875-10.328124 17.714844c-7.585938 9.796875-15.433594 19.921875-12.542969 30.742188zm24.5625-21.425782c6.644531-8.574218 13.511719-17.441406 13.511719-27.03125s-6.867188-18.457031-13.511719-27.03125c-4.566407-5.890625-10.820313-13.960937-9.871094-17.5 1.039063-3.898437 10.789063-7.867187 17.90625-10.765625 9.8125-3.992187 19.957031-8.121093 24.574219-16.105469 4.695312-8.113281 3.203125-19.082031 1.761718-29.6875-1.023437-7.515624-2.421874-17.808593.316407-20.546874 2.742187-2.742188 13.035156-1.34375 20.554687-.320313 10.601563 1.441406 21.566406 2.933594 29.683594-1.761719 7.984375-4.617187 12.113281-14.765625 16.105469-24.574218 2.898437-7.117188 6.867187-16.867188 10.765625-17.910157 3.539062-.941406 11.609375 5.308594 17.503906 9.875 8.574219 6.640625 17.4375 13.511719 27.027344 13.511719s18.457031-6.867188 27.027344-13.511719c5.894531-4.566406 13.96875-10.8125 17.503906-9.871093 3.902344 1.042968 7.867187 10.789062 10.765625 17.90625 3.992187 9.8125 8.121093 19.957031 16.105469 24.578124 8.117187 4.695313 19.082031 3.203126 29.683593 1.761719 7.519531-1.023437 17.8125-2.421875 20.550781.316407 2.742188 2.738281 1.339844 13.035156.320313 20.550781-1.445313 10.605469-2.933594 21.570312 1.761719 29.6875 4.617187 7.984375 14.761718 12.109375 24.574218 16.105469 7.117188 2.894531 16.867188 6.863281 17.90625 10.765624.949219 3.539063-5.304687 11.609376-9.871093 17.5-6.644531 8.574219-13.511719 17.4375-13.511719 27.03125 0 9.589844 6.867188 18.453126 13.511719 27.027344 4.566406 5.890625 10.820312 13.960938 9.875 17.5-1.042969 3.902344-10.792969 7.867188-17.910157 10.765625-9.8125 3.992188-19.957031 8.121094-24.574218 16.105469-4.695313 8.117188-3.207032 19.082031-1.761719 29.6875 1.019531 7.515625 2.421875 17.8125-.320313 20.550781-2.738281 2.738281-13.03125 1.339844-20.546874.316407-10.605469-1.441407-21.570313-2.929688-29.6875 1.761718-7.984376 4.621094-12.113282 14.765625-16.105469 24.574219-2.898438 7.121094-6.867188 16.867187-10.765625 17.910156-3.546875.945313-11.609375-5.304687-17.503906-9.871093-8.570313-6.644532-17.4375-13.515626-27.027344-13.515626s-18.457032 6.871094-27.03125 13.515626c-5.890625 4.566406-13.972656 10.8125-17.5 9.871093-3.898438-1.042969-7.867188-10.789062-10.765625-17.910156-3.992188-9.808594-8.121094-19.953125-16.105469-24.574219-8.113281-4.695312-19.078125-3.203125-29.683594-1.761718-7.519531 1.023437-17.8125 2.421874-20.550781-.316407-2.742187-2.738281-1.339844-13.035156-.320313-20.550781 1.441407-10.605469 2.933594-21.570312-1.761718-29.6875-4.621094-7.984375-14.761719-12.113281-24.574219-16.105469-7.117187-2.894531-16.867187-6.863281-17.90625-10.765625-.949219-3.539062 5.304687-11.609375 9.871094-17.5zm0 0"/><path d="m255.933594 305.226562c5.78125 0 11.566406-.398437 17.1875-1.1875 29.300781-4.074218 56.234375-18.625 75.84375-40.96875 19.792968-22.558593 30.691406-51.527343 30.691406-81.566406 0-30.042968-10.898438-59.007812-30.691406-81.566406-19.609375-22.34375-46.542969-36.894531-75.835938-40.96875-5.628906-.789062-11.414062-1.1875-17.195312-1.1875-43.75 0-84.683594 23.476562-106.824219 61.261719-2.125 3.625-.910156 8.28125 2.714844 10.402343 3.621093 2.125 8.28125.90625 10.402343-2.714843 19.425782-33.152344 55.332032-53.746094 93.707032-53.746094 5.078125 0 10.152344.351563 15.09375 1.042969 25.6875 3.574218 49.308594 16.335937 66.507812 35.9375 17.359375 19.78125 26.917969 45.1875 26.917969 71.539062 0 26.351563-9.558594 51.757813-26.917969 71.539063-17.199218 19.601562-40.820312 32.363281-66.515625 35.9375-4.933593.691406-10.007812 1.042969-15.085937 1.042969-59.839844 0-108.523438-48.683594-108.523438-108.519532 0-9.800781 1.304688-19.507812 3.878906-28.855468 1.113282-4.050782-1.265624-8.234376-5.3125-9.347657-4.054687-1.117187-8.234374 1.265625-9.347656 5.3125-2.933594 10.664063-4.421875 21.726563-4.421875 32.890625 0 68.21875 55.503907 123.722656 123.726563 123.722656zm0 0"/><path d="m182.550781 152.796875c-2.972656 2.96875-2.972656 7.78125 0 10.75 2.96875 2.96875 7.78125 2.96875 10.75 0 6.867188-6.867187 18.042969-6.867187 24.910157 0 1.484374 1.484375 3.429687 2.226563 5.375 2.226563 1.945312 0 3.890624-.742188 5.375-2.226563 2.96875-2.96875 2.96875-7.78125 0-10.75-12.796876-12.796875-33.617188-12.796875-46.410157 0zm0 0"/><path d="m288.277344 165.773438c1.945312 0 3.894531-.742188 5.378906-2.226563 3.324219-3.324219 7.75-5.15625 12.453125-5.15625 4.707031 0 9.128906 1.832031 12.457031 5.15625 2.96875 2.96875 7.78125 2.972656 10.75 0 2.96875-2.96875 2.96875-7.78125 0-10.75-6.199218-6.199219-14.441406-9.613281-23.207031-9.613281s-17.007813 3.414062-23.207031 9.613281c-2.96875 2.96875-2.96875 7.78125 0 10.75 1.484375 1.484375 3.429687 2.226563 5.375 2.226563zm0 0"/><path d="m255.933594 205.652344c-8.105469 0-15.726563-3.15625-21.460938-8.886719-2.96875-2.96875-7.78125-2.96875-10.75 0s-2.96875 7.78125 0 10.75c8.605469 8.605469 20.042969 13.34375 32.210938 13.34375 12.167968 0 23.605468-4.738281 32.207031-13.34375 2.96875-2.96875 2.96875-7.78125 0-10.75s-7.78125-2.96875-10.75 0c-5.730469 5.730469-13.351563 8.886719-21.457031 8.886719zm0 0"/><path d="m504.265625 466.386719c-18.625 0-28.050781 9.234375-36.363281 17.375-7.433594 7.285156-13.304688 13.035156-25.726563 13.035156-12.417969 0-18.289062-5.75-25.722656-13.035156-8.3125-8.140625-17.738281-17.375-36.363281-17.375s-28.046875 9.234375-36.359375 17.375c-7.433594 7.285156-13.304688 13.035156-25.722657 13.035156-12.417968 0-18.289062-5.75-25.722656-13.035156-8.3125-8.140625-17.738281-17.375-36.359375-17.375-18.625 0-28.046875 9.234375-36.359375 17.378906-7.433594 7.28125-13.304687 13.03125-25.722656 13.03125-12.414062 0-18.285156-5.75-25.71875-13.03125-8.3125-8.144531-17.738281-17.378906-36.363281-17.378906-18.621094 0-28.046875 9.234375-36.359375 17.378906-7.433594 7.28125-13.304688 13.03125-25.71875 13.03125-12.417969 0-18.289063-5.75-25.722656-13.035156-8.3125-8.140625-17.734376-17.375-36.359376-17.375-4.199218 0-7.601562 3.40625-7.601562 7.605469 0 4.195312 3.402344 7.601562 7.601562 7.601562 12.417969 0 18.289063 5.75 25.71875 13.03125 8.316407 8.144531 17.738282 17.375 36.363282 17.375 18.621094 0 28.042968-9.230469 36.359375-17.375 7.433593-7.28125 13.304687-13.03125 25.71875-13.03125 12.417969 0 18.289062 5.75 25.722656 13.03125 8.316406 8.144531 17.738281 17.375 36.359375 17.375 18.625 0 28.046875-9.230469 36.359375-17.375 7.433594-7.28125 13.304687-13.03125 25.722656-13.03125 12.414063 0 18.285157 5.75 25.71875 13.03125 8.316407 8.144531 17.738281 17.375 36.363281 17.375 18.621094 0 28.046876-9.230469 36.359376-17.375 7.433593-7.28125 13.304687-13.03125 25.722656-13.03125 12.417968 0 18.292968 5.75 25.726562 13.03125 8.3125 8.144531 17.734375 17.375 36.359375 17.375s28.050781-9.230469 36.363281-17.375c7.433594-7.28125 13.308594-13.03125 25.726563-13.03125 4.199219 0 7.601563-3.40625 7.601563-7.601562 0-4.199219-3.402344-7.605469-7.601563-7.605469zm0 0"/><path d="m467.902344 427.691406c-7.433594 7.285156-13.304688 13.035156-25.726563 13.035156-12.417969 0-18.289062-5.75-25.722656-13.035156-8.3125-8.140625-17.738281-17.375-36.363281-17.375-4.199219 0-7.601563 3.40625-7.601563 7.605469 0 4.195313 3.402344 7.601563 7.601563 7.601563 12.417968 0 18.292968 5.75 25.726562 13.03125 8.3125 8.144531 17.734375 17.375 36.359375 17.375s28.050781-9.230469 36.363281-17.375c7.433594-7.28125 13.308594-13.03125 25.726563-13.03125 4.199219 0 7.601563-3.40625 7.601563-7.601563 0-4.199219-3.402344-7.605469-7.601563-7.605469-18.625 0-28.050781 9.234375-36.363281 17.375zm0 0"/><path d="m7.601562 425.523438c12.417969 0 18.289063 5.75 25.71875 13.03125 8.316407 8.144531 17.738282 17.375 36.363282 17.375 18.621094 0 28.042968-9.230469 36.359375-17.375 7.433593-7.28125 13.304687-13.03125 25.71875-13.03125 12.417969 0 18.289062 5.75 25.722656 13.03125 8.316406 8.144531 17.738281 17.375 36.359375 17.375 18.625 0 28.046875-9.230469 36.359375-17.375 7.433594-7.28125 13.304687-13.03125 25.722656-13.03125 12.414063 0 18.285157 5.75 25.71875 13.03125 8.316407 8.144531 17.738281 17.375 36.363281 17.375 18.621094 0 28.046876-9.230469 36.359376-17.375 3-2.9375 3.050781-7.75.109374-10.75-2.933593-3-7.75-3.050782-10.746093-.109376-7.433594 7.28125-13.304688 13.03125-25.722657 13.03125-12.417968 0-18.289062-5.75-25.722656-13.03125-8.3125-8.144531-17.738281-17.375-36.359375-17.375-18.625 0-28.046875 9.230469-36.363281 17.375-7.429688 7.28125-13.300781 13.03125-25.71875 13.03125-12.414062 0-18.285156-5.75-25.71875-13.03125-8.3125-8.144531-17.738281-17.375-36.363281-17.375-18.621094 0-28.046875 9.230469-36.359375 17.375-7.433594 7.28125-13.304688 13.03125-25.71875 13.03125-12.417969 0-18.289063-5.75-25.722656-13.03125-8.3125-8.144531-17.734376-17.375-36.359376-17.375-4.199218 0-7.601562 3.402344-7.601562 7.601563s3.402344 7.601563 7.601562 7.601563zm0 0"/><path d="m426.726562 371.519531c0 4.199219 3.402344 7.601563 7.601563 7.601563s7.601563-3.402344 7.601563-7.601563c0-8.707031 11.140624-16.0625 24.328124-16.0625 4.199219 0 7.601563-3.40625 7.601563-7.605469 0-4.195312-3.402344-7.601562-7.601563-7.601562-13.097656 0-24.730468 5.066406-31.929687 12.851562-7.195313-7.785156-18.828125-12.851562-31.925781-12.851562-4.199219 0-7.601563 3.40625-7.601563 7.601562 0 4.199219 3.402344 7.605469 7.601563 7.605469 13.183594 0 24.324218 7.355469 24.324218 16.0625zm0 0"/><path d="m427.234375 296.765625c0 4.199219 3.402344 7.601563 7.601563 7.601563 13.1875 0 24.328124 7.359374 24.328124 16.0625 0 4.199218 3.402344 7.605468 7.601563 7.605468s7.601563-3.40625 7.601563-7.605468c0-8.707032 11.136718-16.0625 24.324218-16.0625 4.199219 0 7.601563-3.402344 7.601563-7.601563s-3.402344-7.601563-7.601563-7.601563c-13.097656 0-24.730468 5.066407-31.925781 12.851563-7.199219-7.785156-18.832031-12.851563-31.929687-12.851563-4.199219 0-7.601563 3.402344-7.601563 7.601563zm0 0"/></svg>