<svg height="512pt" viewBox="-1 0 512 512.00044" width="512pt" xmlns="http://www.w3.org/2000/svg"><path d="m394.292969 184.820312c0-15.058593 27.285156-33.496093 23.574219-47.386718-3.839844-14.371094-36.800782-16.6875-44.082032-29.269532-7.382812-12.761718 7.011719-42.445312-3.347656-52.800781-10.359375-10.359375-40.039062 4.035157-52.804688-3.347656-12.582031-7.28125-14.894531-40.238281-29.265624-44.082031-13.886719-3.710938-32.328126 23.574218-47.390626 23.574218-15.058593 0-33.496093-27.285156-47.386718-23.574218-14.371094 3.839844-16.6875 36.800781-29.269532 44.082031-12.761718 7.382813-42.445312-7.011719-52.800781 3.347656-10.359375 10.359375 4.035157 40.039063-3.347656 52.800781-7.28125 12.582032-40.238281 14.898438-44.082031 29.269532-3.710938 13.886718 23.574218 32.328125 23.574218 47.386718 0 15.0625-27.285156 33.5-23.574218 47.390626 3.839844 14.371093 36.800781 16.6875 44.082031 29.269531 7.382813 12.761719-7.011719 42.441406 3.347656 52.800781s40.039063-4.035156 52.800781 3.347656c12.582032 7.277344 14.898438 40.238282 29.269532 44.082032 13.886718 3.710937 32.328125-23.574219 47.386718-23.574219 15.0625 0 33.5 27.285156 47.390626 23.574219 14.371093-3.84375 16.6875-36.800782 29.269531-44.082032 12.761719-7.382812 42.445312 7.011719 52.800781-3.347656 10.359375-10.359375-4.035156-40.039062 3.347656-52.804688 7.28125-12.582031 40.238282-14.894531 44.082032-29.265624 3.710937-13.890626-23.574219-32.328126-23.574219-47.390626zm0 0" fill="#ffee8c"/><path d="m359.335938 184.820312c0 60.613282-45.558594 110.585938-104.304688 117.535157-4.605469.546875-9.296875.824219-14.050781.824219-65.367188 0-118.363281-52.992188-118.363281-118.359376 0-65.367187 52.996093-118.351562 118.363281-118.351562 4.753906 0 9.445312.277344 14.050781.824219 58.746094 6.949219 104.304688 56.914062 104.304688 117.527343zm0 0" fill="#f28f44"/><path d="m359.335938 184.820312c0 60.613282-45.558594 110.585938-104.304688 117.535157-58.746094-6.949219-104.3125-56.921875-104.3125-117.535157 0-60.613281 45.566406-110.578124 104.3125-117.527343 58.746094 6.949219 104.304688 56.914062 104.304688 117.527343zm0 0" fill="#ffd073"/><path d="m446.238281 348.183594c0 22.964844-18.617187 41.582031-41.589843 41.582031h-150.5c-30.535157 0-55.296876-24.753906-55.296876-55.296875 0-30.535156 24.757813-55.296875 55.296876-55.296875 2.738281 0 5.433593.210937 8.070312.59375 12.492188-24.800781 38.171875-41.820313 67.84375-41.820313 35.898438 0 65.972656 24.925782 73.875 58.414063.789062 3.339844 1.359375 6.769531 1.6875 10.257813v.007812c22.511719.515625 40.613281 18.921875 40.613281 41.558594zm0 0" fill="#d3ddea"/><path d="m356.445312 242.664062c-8.21875-3.050781-17.109374-4.714843-26.382812-4.714843-29.671875 0-55.34375 17.019531-67.84375 41.808593v.007813c-2.636719-.382813-5.328125-.589844-8.070312-.589844-30.542969 0-55.296876 24.757813-55.296876 55.296875 0 30.542969 24.753907 55.296875 55.296876 55.296875h26.726562c-27.523438 0-49.824219-22.308593-49.824219-49.824219 0-24.417968 17.5625-44.738281 40.753907-49 2.296874-.429687 4.644531-.695312 7.042968-.789062.671875-.023438 1.347656-.039062 2.027344-.039062 8.945312 0 17.347656 2.359374 24.597656 6.496093-1.007812-7.023437-8.265625-13.597656-18.964844-18.894531 5.875-19.871094 25.871094-38.296875 69.9375-35.054688zm0 0" fill="#97b0cc"/><path d="m80.089844 184.820312c0 4.535157-5.613282 11.777344-10.5625 18.167969-7.707032 9.945313-15.675782 20.234375-12.753906 31.179688 3.03125 11.339843 15.359374 16.355469 27.285156 21.210937 6.898437 2.804688 15.476562 6.296875 17.554687 9.886719 2.160157 3.738281.894531 13.046875-.121093 20.527344-1.71875 12.625-3.492188 25.679687 4.671874 33.84375 8.164063 8.164062 21.21875 6.390625 33.84375 4.675781 7.480469-1.019531 16.792969-2.285156 20.523438-.125 3.59375 2.078125 7.085938 10.660156 9.894531 17.554688 4.851563 11.925781 9.871094 24.257812 21.210938 27.285156 1.515625.40625 3.070312.609375 4.664062.609375 1.710938 0 3.476563-.246094 5.292969-.714844 11.25 17.101563 30.601562 28.421875 52.554688 28.421875h150.5c13.132812 0 25.476562-5.113281 34.761718-14.398438 2.957032-2.960937 2.957032-7.753906 0-10.714843-2.957031-2.957031-7.753906-2.957031-10.710937 0-6.421875 6.425781-14.964844 9.964843-24.050781 9.964843h-150.5c-26.316407 0-47.722657-21.410156-47.722657-47.722656 0-26.316406 21.40625-47.726562 47.722657-47.726562 2.300781 0 4.648437.175781 6.976562.515625 3.222656.46875 6.394531-1.175781 7.859375-4.089844 11.695313-23.222656 35.097656-37.648437 61.074219-37.648437 17.117187 0 33.492187 6.359374 46.109375 17.902343 12.539062 11.472657 20.324219 27.066407 21.914062 43.910157.363281 3.824218 3.527344 6.769531 7.367188 6.859374 18.3125.421876 33.214843 15.671876 33.214843 33.988282 0 4.183594 3.390626 7.574218 7.574219 7.574218 4.179688 0 7.570313-3.390624 7.570313-7.574218 0-12.929688-4.980469-25.136719-14.023438-34.375-7.484375-7.640625-17.058594-12.550782-27.457031-14.175782-2.679687-15.585937-9.746094-30.042968-20.378906-41.78125 1.929687-.839843 3.949219-1.660156 5.941406-2.472656 11.929687-4.851562 24.261719-9.871094 27.289063-21.207031 2.929687-10.949219-5.042969-21.238281-12.753907-31.1875-4.949219-6.386719-10.5625-13.628906-10.5625-18.160156s5.613281-11.773438 10.5625-18.160157c7.710938-9.949218 15.683594-20.238281 12.757813-31.1875-3.03125-11.335937-15.359375-16.355468-27.28125-21.207031-6.898438-2.804687-15.480469-6.296875-17.5625-9.894531-2.160156-3.730469-.894532-13.039062.125-20.519531 1.714844-12.628907 3.488281-25.6875-4.671875-33.847657-8.160157-8.167968-21.214844-6.390624-33.84375-4.671874-7.480469 1.019531-16.789063 2.285156-20.519531.128906-3.597657-2.082032-7.089844-10.667969-9.894532-17.5625-4.851562-11.921875-9.867187-24.25-21.207031-27.28125-10.953125-2.929688-21.238281 5.042968-31.1875 12.753906-6.386719 4.945312-13.625 10.554688-18.15625 10.554688-4.535156 0-11.777344-5.609376-18.167969-10.558594-9.949218-7.707032-20.234375-15.679688-31.179687-12.75-11.335938 3.027344-16.355469 15.355468-21.207031 27.277344-2.808594 6.898437-6.304688 15.480468-9.902344 17.5625-3.734375 2.160156-13.042969.890624-20.523438-.125-12.621094-1.714844-25.671875-3.492188-33.839844 4.667968-8.160156 8.160156-6.386718 21.21875-4.671874 33.847656 1.019531 7.480469 2.285156 16.789063.125 20.523438-2.082032 3.59375-10.664063 7.085938-17.558594 9.894531-11.925782 4.847657-24.253906 9.867188-27.285156 21.207031-2.917969 10.945313 5.050781 21.234376 12.757812 31.179688 4.949219 6.390625 10.558594 13.632812 10.558594 18.164062zm-8.683594-45.433593c1.085938-4.058594 11.066406-8.121094 18.355469-11.085938 9.976562-4.058593 20.289062-8.253906 24.964843-16.339843 4.753907-8.21875 3.238282-19.367188 1.773438-30.148438-1.046875-7.699219-2.480469-18.242188.371094-21.09375 2.851562-2.851562 13.394531-1.417969 21.089844-.371094 10.78125 1.464844 21.929687 2.984375 30.148437-1.773437 8.089844-4.679688 12.285156-14.992188 16.34375-24.960938 2.96875-7.289062 7.03125-17.273437 11.09375-18.359375 3.695313-.984375 11.957031 5.417969 17.992187 10.09375 8.714844 6.75 17.726563 13.730469 27.441407 13.730469 9.710937 0 18.722656-6.980469 27.433593-13.730469 6.039063-4.675781 14.3125-11.078125 18-10.09375 4.058594 1.085938 8.121094 11.066406 11.085938 18.355469 4.058594 9.972656 8.253906 20.285156 16.339844 24.964844 8.222656 4.757812 19.371094 3.238281 30.148437 1.769531 7.699219-1.046875 18.238281-2.480469 21.089844.371094 2.851563 2.855468 1.417969 13.398437.371094 21.097656-1.464844 10.78125-2.980469 21.929688 1.777343 30.148438 4.679688 8.085937 14.992188 12.28125 24.964844 16.339843 7.285156 2.964844 17.269532 7.027344 18.351563 11.085938.992187 3.695312-5.417969 11.960937-10.09375 17.996093-6.753907 8.714844-13.738281 17.726563-13.738281 27.4375 0 9.714844 6.984374 18.726563 13.738281 27.445313 4.675781 6.035156 11.082031 14.300781 10.09375 17.992187-1.082031 4.058594-11.070313 8.125-18.363281 11.089844-4.191407 1.707032-8.46875 3.457032-12.351563 5.5-7.089844-5.273437-14.914063-9.367187-23.207031-12.148437 6.742187-15.660157 10.285156-32.722657 10.285156-49.875 0-63.804688-47.710938-117.566407-110.984375-125.046875-4.945313-.585938-9.972656-.882813-14.945313-.882813-34.007812 0-65.878906 13.347657-89.738281 37.578125-2.933593 2.980469-2.898437 7.777344.082031 10.710938 2.980469 2.9375 7.777344 2.898437 10.710938-.082032 20.992188-21.316406 49.027344-33.058593 78.945312-33.058593 4.378907 0 8.8125.261719 13.167969.777343 55.648438 6.582032 97.613281 53.871094 97.613281 110.003907 0 16.003906-3.5 31.910156-10.144531 46.351562-3.804687-.53125-7.664062-.800781-11.558593-.800781-29.964844 0-57.121094 15.710938-72.082032 41.34375-1.28125-.078125-2.558594-.117188-3.828125-.117188-17.757812 0-33.804687 7.410157-45.25 19.289063-46.5625-14.035156-78.699219-57.011719-78.699219-106.066406 0-19.113281 4.941407-37.953125 14.296876-54.480469 2.058593-3.640625.777343-8.261719-2.863282-10.320312-3.640625-2.0625-8.261718-.78125-10.320312 2.859374-10.640625 18.800782-16.261719 40.21875-16.261719 61.941407 0 53.921875 34.167969 101.390625 84.296875 118.886719-5.128906 9.101562-8.066406 19.589843-8.066406 30.761718 0 6.738282 1.074218 13.226563 3.046875 19.316406-3.644531-2.476562-7.199219-11.195312-9.871094-17.753906-4.058594-9.972656-8.253906-20.28125-16.335937-24.960937-8.222657-4.753907-19.371094-3.238281-30.152344-1.773438-7.695313 1.046875-18.238282 2.480469-21.09375-.375-2.851563-2.851562-1.417969-13.394531-.371094-21.089843 1.464844-10.78125 2.980469-21.929688-1.777344-30.152344-4.675781-8.082032-14.984375-12.277344-24.957031-16.335938-7.289063-2.96875-17.273437-7.03125-18.359375-11.089844-.984375-3.691406 5.417969-11.953124 10.09375-17.992187 6.753906-8.714844 13.738281-17.730469 13.738281-27.445313 0-9.714843-6.984375-18.722656-13.738281-27.4375-4.675781-6.039062-11.078125-14.304687-10.09375-17.996093zm0 0"/><path d="m177.015625 166.398438c7.066406-7.070313 18.566406-7.070313 25.636719 0 1.480468 1.476562 3.417968 2.21875 5.355468 2.21875s3.878907-.742188 5.355469-2.21875c2.957031-2.960938 2.957031-7.753907 0-10.714844-12.972656-12.972656-34.085937-12.972656-47.058593 0-2.960938 2.960937-2.960938 7.753906 0 10.714844 2.957031 2.957031 7.753906 2.957031 10.710937 0zm0 0"/><path d="m279.304688 166.398438c7.066406-7.070313 18.566406-7.070313 25.636718 0 1.476563 1.476562 3.417969 2.21875 5.355469 2.21875s3.875-.742188 5.355469-2.21875c2.957031-2.960938 2.957031-7.753907 0-10.714844-12.976563-12.972656-34.085938-12.972656-47.0625 0-2.957032 2.960937-2.957032 7.753906 0 10.714844 2.960937 2.957031 7.753906 2.957031 10.714844 0zm0 0"/><path d="m206.109375 192.160156c-2.957031 2.960938-2.957031 7.753906 0 10.710938 9.613281 9.613281 22.242187 14.421875 34.867187 14.421875 12.628907 0 25.257813-4.808594 34.871094-14.421875 2.957032-2.957032 2.957032-7.75 0-10.710938-2.957031-2.957031-7.753906-2.957031-10.710937 0-13.320313 13.324219-34.996094 13.320313-48.316407 0-2.957031-2.957031-7.753906-2.957031-10.710937 0zm0 0"/><path d="m502.410156 466.554688c-18.554687 0-27.945312 9.199218-36.230468 17.3125-7.40625 7.253906-13.253907 12.984374-25.628907 12.984374-12.371093 0-18.222656-5.730468-25.628906-12.984374-8.285156-8.113282-17.671875-17.3125-36.230469-17.3125-18.554687 0-27.941406 9.199218-36.226562 17.3125-7.40625 7.253906-13.253906 12.984374-25.628906 12.984374-12.371094 0-18.21875-5.730468-25.625-12.984374-8.285157-8.113282-17.671876-17.3125-36.226563-17.3125s-27.941406 9.199218-36.226563 17.3125c-7.40625 7.253906-13.253906 12.984374-25.625 12.984374-12.371093 0-18.222656-5.730468-25.625-12.984374-8.285156-8.113282-17.675781-17.3125-36.230468-17.3125-18.550782 0-27.941406 9.199218-36.226563 17.3125-7.402343 7.253906-13.253906 12.984374-25.625 12.984374-12.371093 0-18.21875-5.730468-25.625-12.984374-8.285156-8.113282-17.671875-17.3125-36.226562-17.3125-4.183594 0-7.574219 3.394531-7.574219 7.574218 0 4.183594 3.390625 7.574219 7.574219 7.574219 12.371093 0 18.21875 5.730469 25.625 12.984375 8.285156 8.113281 17.671875 17.3125 36.226562 17.3125 18.554688 0 27.945313-9.195312 36.226563-17.3125 7.40625-7.253906 13.257812-12.984375 25.628906-12.984375s18.21875 5.730469 25.625 12.984375c8.285156 8.117188 17.671875 17.3125 36.226562 17.3125 18.554688 0 27.941407-9.195312 36.226563-17.3125 7.40625-7.253906 13.253906-12.984375 25.625-12.984375s18.222656 5.730469 25.628906 12.984375c8.28125 8.117188 17.671875 17.3125 36.226563 17.3125 18.554687 0 27.941406-9.195312 36.226562-17.3125 7.40625-7.253906 13.257813-12.984375 25.628906-12.984375 12.371094 0 18.222657 5.730469 25.628907 12.984375 8.285156 8.117188 17.671875 17.3125 36.230469 17.3125 18.554687 0 27.945312-9.195312 36.226562-17.3125 7.40625-7.253906 13.257812-12.984375 25.628906-12.984375 4.183594 0 7.574219-3.390625 7.574219-7.574219 0-4.179687-3.390625-7.574218-7.574219-7.574218zm0 0"/><path d="m7.574219 425.839844c12.371093 0 18.21875 5.730468 25.625 12.984375 8.285156 8.113281 17.671875 17.3125 36.226562 17.3125 18.554688 0 27.945313-9.195313 36.226563-17.3125 7.40625-7.253907 13.257812-12.984375 25.628906-12.984375s18.21875 5.730468 25.625 12.984375c8.285156 8.117187 17.671875 17.3125 36.226562 17.3125 18.554688 0 27.941407-9.195313 36.226563-17.3125 7.40625-7.253907 13.253906-12.984375 25.625-12.984375s18.222656 5.730468 25.628906 12.984375c8.28125 8.117187 17.671875 17.3125 36.226563 17.3125 18.554687 0 27.941406-9.195313 36.226562-17.3125 7.40625-7.253907 13.257813-12.984375 25.628906-12.984375 12.371094 0 18.222657 5.730468 25.628907 12.984375 8.285156 8.117187 17.671875 17.3125 36.230469 17.3125 18.554687 0 27.945312-9.195313 36.226562-17.3125 7.40625-7.253907 13.257812-12.984375 25.628906-12.984375 4.183594 0 7.574219-3.390625 7.574219-7.574219s-3.390625-7.574219-7.574219-7.574219c-18.554687 0-27.945312 9.199219-36.226562 17.3125-7.40625 7.253906-13.257813 12.984375-25.628906 12.984375-12.375 0-18.226563-5.730469-25.632813-12.984375-8.28125-8.113281-17.671875-17.3125-36.226563-17.3125-18.554687 0-27.945312 9.199219-36.230468 17.3125-7.402344 7.253906-13.253906 12.984375-25.625 12.984375s-18.222656-5.730469-25.628906-12.984375c-8.28125-8.113281-17.671876-17.3125-36.226563-17.3125s-27.941406 9.199219-36.226563 17.3125c-7.402343 7.253906-13.253906 12.984375-25.625 12.984375-12.371093 0-18.21875-5.730469-25.625-12.984375-8.285156-8.113281-17.671874-17.3125-36.226562-17.3125s-27.945312 9.199219-36.226562 17.3125c-7.40625 7.253906-13.257813 12.984375-25.628907 12.984375-12.371093 0-18.21875-5.730469-25.625-12.984375-8.28125-8.113281-17.671875-17.3125-36.226562-17.3125-4.183594 0-7.574219 3.390625-7.574219 7.574219s3.390625 7.574219 7.574219 7.574219zm0 0"/></svg>